<svg width="122" height="122" viewBox="0 0 122 122" fill="none" xmlns="http://www.w3.org/2000/svg">
<mask id="mask0_1_126" style="mask-type:alpha" maskUnits="userSpaceOnUse" x="0" y="0" width="122" height="122">
<rect width="122" height="122" rx="20" fill="url(#paint0_linear_1_126)"/>
</mask>
<g mask="url(#mask0_1_126)">
<path fill-rule="evenodd" clip-rule="evenodd" d="M65.5915 80H72.2926V98.8188H72.4601C74.6938 96.0267 77.6906 94.6306 81.4507 94.6306C85.2479 94.6306 88.3565 95.9708 90.7763 98.6512C93.2333 101.332 94.4619 104.682 94.4619 108.703C94.4619 112.723 93.252 116.111 90.8321 118.866C88.4495 121.621 85.2665 122.998 81.2831 122.998C79.3845 122.998 77.5976 122.589 75.9223 121.77C74.247 120.914 72.9627 119.722 72.0692 118.196H71.9575V122.217H65.5915V80ZM85.583 114.79C86.9604 113.04 87.6491 111.011 87.6491 108.703C87.6491 106.395 86.9604 104.384 85.583 102.672C84.2428 100.959 82.3628 100.103 79.9429 100.103C77.5976 100.103 75.6989 100.997 74.247 102.784C72.7952 104.57 72.0692 106.581 72.0692 108.814C72.0692 111.048 72.7952 113.04 74.247 114.79C75.6989 116.539 77.5976 117.414 79.9429 117.414C82.3628 117.414 84.2428 116.539 85.583 114.79ZM21 122.217L38.1993 82.6806H44.2861L61.3179 122.217H53.2767L49.5911 113.17H32.4476L28.8737 122.217H21ZM34.8488 107.139H47.1341L41.0473 91.0569L34.8488 107.139ZM116.882 102.841L121.461 98.8203C120.419 97.5173 118.967 96.4935 117.106 95.7489C115.244 95.0044 113.327 94.6321 111.354 94.6321C107.296 94.6321 103.89 95.9351 101.135 98.541C98.3801 101.147 97.0027 104.572 97.0027 108.816C97.0027 113.134 98.3987 116.578 101.191 119.147C103.983 121.715 107.427 123 111.522 123C115.803 123 119.098 121.753 121.406 119.258L117.218 115.014C115.915 116.615 114.035 117.416 111.577 117.416C109.195 117.416 107.333 116.559 105.993 114.847C104.653 113.134 103.983 111.124 103.983 108.816C103.983 106.545 104.634 104.553 105.937 102.841C107.24 101.091 109.046 100.216 111.354 100.216C112.434 100.216 113.495 100.477 114.537 100.998C115.579 101.482 116.361 102.096 116.882 102.841Z" fill="url(#paint1_linear_1_126)"/>
</g>
<defs>
<linearGradient id="paint0_linear_1_126" x1="5.68107e-07" y1="61" x2="122" y2="61" gradientUnits="userSpaceOnUse">
<stop stop-color="#0C65C9"/>
<stop offset="1" stop-color="#58A4EA"/>
</linearGradient>
<linearGradient id="paint1_linear_1_126" x1="21" y1="101.5" x2="121.461" y2="101.5" gradientUnits="userSpaceOnUse">
<stop stop-color="#0C65C9"/>
<stop offset="1" stop-color="#1F7FD8"/>
</linearGradient>
</defs>
</svg>
