<svg width="173" height="119" viewBox="0 0 173 119" fill="#46AEAC" xmlns="http://www.w3.org/2000/svg">
<g opacity="0.9">
<path d="M-28.48 23.0275L-28.4773 23.028C-22.8083 24.1791 -17.1897 25.5467 -11.6353 27.4373C-6.43488 29.1548 -1.31476 31.2367 3.34815 34.1285C7.29984 36.5244 10.7006 39.7033 13.5087 43.259C19.8993 51.2782 23.4152 61.2197 25.2071 71.0455L25.2082 71.0516C25.896 75.112 26.2721 79.1497 26.6522 83.2294C26.6962 83.7019 26.7403 84.1749 26.7849 84.6486L26.7849 84.6488C27.2719 89.8458 27.8318 95.0616 28.485 100.225C28.5796 100.96 28.672 101.697 28.7644 102.433C29.3446 107.059 29.9268 111.7 31.0849 116.158C32.0894 119.986 33.8239 123.716 36.0621 127.053L36.0622 127.053C41.4724 135.127 49.5209 141.123 57.9596 145.935L57.9612 145.936C64.4561 149.672 71.7943 151.588 79.1531 153.428L79.1549 153.428C80.9708 153.889 82.7909 154.343 84.6124 154.796C91.9083 156.613 99.2257 158.435 106.384 160.806C115.129 163.637 123.92 167.33 131.051 173.297L131.061 173.305L131.061 173.305C132.576 174.64 134.083 176.057 135.407 177.584C135.478 177.66 135.532 177.666 135.562 177.665C135.605 177.664 135.666 177.643 135.722 177.589C135.779 177.536 135.807 177.474 135.812 177.423C135.816 177.384 135.81 177.324 135.736 177.243L135.73 177.237L135.724 177.23C130.121 170.709 122.241 166.361 114.221 163.116C105.423 159.585 96.1478 157.148 86.9501 154.886L86.9476 154.885C85.6163 154.551 84.274 154.223 82.9256 153.893C76.4094 152.299 69.7523 150.671 63.5158 148.149L63.5111 148.147C59.2403 146.369 55.2598 143.894 51.5616 141.352M-28.48 23.0275L40.2231 131.54C40.2235 131.541 40.224 131.541 40.2244 131.542C43.5282 135.309 47.453 138.539 51.5616 141.352M-28.48 23.0275C-30.6398 22.6012 -32.8249 22.2599 -34.9984 21.9204C-35.4632 21.8478 -35.9275 21.7752 -36.391 21.702C-39.0262 21.2854 -41.6385 20.8444 -44.1962 20.2277C-55.0806 17.5073 -65.5993 12.444 -73.9865 5.1463C-74.0479 5.08578 -74.0461 5.04813 -74.0446 5.03133C-74.0416 4.99797 -74.0198 4.9402 -73.9591 4.88302C-73.8991 4.82647 -73.8284 4.79697 -73.771 4.79254C-73.7255 4.78904 -73.6689 4.79829 -73.6004 4.86308L-73.5919 4.87117M-28.48 23.0275L-73.5919 4.87117M51.5616 141.352C51.5617 141.352 51.5617 141.352 51.5618 141.352L51.8494 140.941L51.5609 141.351C51.5611 141.351 51.5614 141.352 51.5616 141.352ZM-73.5919 4.87117L-73.583 4.87884M-73.5919 4.87117L-73.583 4.87884M-73.583 4.87884C-71.4807 6.68606 -69.2604 8.37262 -66.9018 9.86509C-61.8738 13.0826 -56.4424 15.7135 -50.8276 17.6985C-45.5659 19.589 -40.2144 20.5731 -34.7836 21.4295L-73.583 4.87884Z" fill="#46AEAC" stroke="url(#paint0_linear_1_331)"/>
<path d="M45.2316 126.676C48.5357 130.443 52.4609 133.674 56.57 136.487L56.5715 136.488C60.3394 139.048 64.2476 141.503 68.5194 143.282L68.5241 143.284C74.7483 145.801 81.3416 147.414 87.8695 149.011C89.2358 149.346 90.5992 149.679 91.9558 150.02L91.9583 150.021C101.229 152.302 110.431 154.72 119.23 158.251C127.322 161.515 135.129 165.844 140.732 172.365L140.738 172.372L140.744 172.378C140.818 172.459 140.824 172.519 140.82 172.558C140.815 172.609 140.787 172.671 140.731 172.724C140.674 172.778 140.614 172.799 140.57 172.8C140.54 172.801 140.487 172.795 140.415 172.719C139.092 171.192 137.584 169.775 136.069 168.44L136.069 168.44L136.061 168.433C129.002 162.484 120.136 158.772 111.466 155.961C104.308 153.59 96.9902 151.768 89.694 149.951C87.8725 149.497 86.0523 149.044 84.2363 148.583L84.2345 148.582C76.8758 146.742 69.5375 144.827 63.0426 141.091L63.0411 141.09C54.6032 136.278 46.5013 130.191 41.1435 122.208C38.9051 118.87 37.1705 115.14 36.166 111.311L36.1654 111.309C34.9848 106.894 34.4005 102.239 33.8172 97.5924C33.7275 96.8782 33.6378 96.1641 33.5461 95.4512C32.8929 90.2876 32.333 85.0718 31.846 79.8749L31.846 79.8746C31.7858 79.2356 31.727 78.5962 31.6682 77.9568C31.3074 74.0337 30.9466 70.111 30.2687 66.2742L30.2682 66.2715C28.4763 56.4458 24.9604 46.5043 18.5698 38.4851C15.7617 34.9294 12.3609 31.7505 8.40925 29.3546C3.74641 26.4628 -1.37363 24.3809 -6.57402 22.6635C-12.0556 20.7925 -17.7474 19.4051 -23.4162 18.2541L-23.4189 18.2535C-25.5787 17.8273 -27.7638 17.4859 -29.9373 17.1464C-30.4021 17.0738 -30.8664 17.0013 -31.3298 16.928C-33.9651 16.5114 -36.5774 16.0704 -39.1351 15.4537C-49.9496 12.7524 -60.4715 7.68681 -68.8602 0.385263C-68.95 0.305776 -68.9519 0.253099 -68.9514 0.232535C-68.9504 0.196522 -68.9313 0.134425 -68.8686 0.0666677C-68.8058 -0.00106465 -68.7259 -0.0446593 -68.6582 -0.0587282C-68.6065 -0.0694845 -68.5705 -0.0628208 -68.5401 -0.044497C-66.4592 1.83133 -64.2436 3.51295 -61.8934 5.00008C-56.8654 8.2176 -51.434 10.8484 -45.8192 12.8335C-40.5576 14.7239 -35.206 15.708 -29.7753 16.5644C-18.8747 18.2916 -7.87515 20.9682 2.18279 25.5267L2.18574 25.5281C6.556 27.4746 10.6215 29.8693 14.0771 33.0016L14.0823 33.0062C17.437 35.9617 20.2368 39.5289 22.5063 43.3399L22.5072 43.3415C27.7496 52.0719 30.4671 62.0335 31.5381 72.0295L31.5384 72.0322C31.915 75.3716 32.2506 78.7062 32.5859 82.0382C33.2426 88.5635 33.8983 95.0785 34.8591 101.599L34.8598 101.604C34.9012 101.867 34.9424 102.131 34.9836 102.395C35.6921 106.934 36.4064 111.509 38.1976 115.824L38.1987 115.826C39.8689 119.788 42.3465 123.414 45.2316 126.676ZM45.2316 126.676C45.2315 126.675 45.2314 126.675 45.2314 126.675L45.6112 126.346M45.2316 126.676C45.232 126.676 45.2324 126.676 45.2327 126.677L45.6112 126.346M45.6112 126.346C42.7518 123.113 40.3067 119.532 38.6617 115.629C36.8938 111.371 36.1878 106.85 35.4769 102.298C35.4365 102.039 35.3961 101.781 35.3555 101.522M45.6112 126.346C48.8808 130.074 52.7718 133.279 56.8578 136.075C60.6188 138.631 64.4936 141.063 68.7176 142.822C74.9052 145.324 81.4564 146.927 87.9834 148.524C89.3525 148.86 90.7205 149.194 92.0839 149.537C101.357 151.819 110.589 154.243 119.422 157.789C127.546 161.065 135.437 165.431 141.115 172.039L35.3555 101.522M35.3555 101.522C34.3962 95.0116 33.7427 88.5171 33.0868 81.9992C32.7512 78.6644 32.415 75.3236 32.0369 71.9714C30.9605 61.9245 28.227 51.8895 22.9388 43.0827L35.3555 101.522Z" fill="#46AEAC" stroke="url(#paint1_linear_1_331)"/>
<path d="M7.7735 76.821L7.7768 76.8222C13.9444 79.0329 20.2585 80.7442 26.7594 81.8115C26.8638 81.8327 26.8858 81.8721 26.8925 81.8847C26.9063 81.9108 26.9186 81.966 26.8966 82.043C26.875 82.119 26.8285 82.1835 26.7737 82.2214C26.7273 82.2536 26.6587 82.2791 26.5484 82.2579L26.5405 82.2564L26.5326 82.2552C19.04 81.0654 11.6597 78.9135 4.62256 76.089L4.62116 76.0884C-0.828113 73.9204 -6.15878 71.6372 -10.494 67.8178C-14.4709 64.3142 -17.6163 60.0462 -20.0467 55.4306L-20.0467 55.4306L-20.0492 55.4259C-22.6026 50.7037 -24.2964 45.6743 -25.6435 40.4894C-27.1491 34.6947 -28.576 29.076 -28.22 23.1961L-28.2195 23.1877L-28.2193 23.1793C-28.2172 23.1003 -28.1891 23.0611 -28.155 23.0332C-28.1107 22.9969 -28.0365 22.9676 -27.9498 22.9667C-27.8628 22.9658 -27.8039 22.9933 -27.776 23.0179C-27.7603 23.0317 -27.7274 23.0651 -27.7311 23.1697C-28.1871 29.8275 -26.3602 36.3095 -24.5981 42.5324C-21.8624 52.3847 -16.9841 62.336 -8.53189 68.8328C-3.75441 72.5434 2.15091 74.761 7.7735 76.821Z" fill="#46AEAC" stroke="url(#paint2_linear_1_331)"/>
<path d="M27.238 87.5494L27.2296 87.5474C26.6063 87.4055 25.982 87.264 25.3569 87.1222C18.8716 85.6517 12.3091 84.1636 5.97582 82.096L5.97332 82.0952C-0.304355 80.0091 -6.55958 77.3882 -11.7654 73.2538C-21.1908 65.8064 -26.9001 55.1828 -30.2122 44.0135C-30.2122 44.0134 -30.2123 44.0133 -30.2123 44.0133L-29.7309 43.8676C-31.8268 36.8475 -32.5701 29.5025 -33.021 22.2367L27.238 87.5494ZM27.238 87.5494L27.2465 87.551C27.3549 87.5718 27.3779 87.6119 27.3859 87.6269C27.4013 87.656 27.4154 87.7181 27.3925 87.807C27.3698 87.8949 27.3191 87.9738 27.2577 88.0235C27.2085 88.0634 27.1506 88.0874 27.0757 88.085C26.1822 87.8762 25.288 87.6689 24.3936 87.4615C17.0094 85.7497 9.61484 84.0354 2.53539 81.4364C-3.47679 79.1969 -9.10139 76.2249 -13.9018 72.0401C-18.2614 68.199 -21.8587 63.5736 -24.7188 58.5329C-27.6654 53.2365 -29.8716 47.5288 -31.3442 41.7127L-31.3442 41.7127L-31.3455 41.7077C-33.0378 35.3056 -33.5966 28.7445 -34.0107 22.1835L27.238 87.5494Z" fill="#46AEAC" stroke="url(#paint3_linear_1_331)"/>
<path d="M87.1177 148.693L87.1176 148.693L87.1188 148.702C87.1256 148.755 87.1182 148.78 87.1162 148.786C87.1153 148.788 87.1146 148.79 87.1135 148.791C87.1125 148.793 87.1112 148.794 87.1093 148.796C87.097 148.807 87.0467 148.837 86.9505 148.835C86.8573 148.833 86.7697 148.801 86.7123 148.755C86.6638 148.717 86.6312 148.667 86.6269 148.583L86.6261 148.568L86.6243 148.553C85.7871 141.254 84.7806 133.963 82.8618 126.803L82.8611 126.8C80.9211 119.71 77.8582 112.577 72.547 107.083C67.9466 102.263 62.2491 98.553 56.3709 95.5707L56.3684 95.5695C49.2988 92.0321 41.6984 89.5078 33.8723 88.314C33.7698 88.2927 33.7482 88.2538 33.7416 88.2413C33.7278 88.2152 33.7155 88.16 33.7374 88.0829C33.7591 88.007 33.8056 87.9425 33.8603 87.9046C33.9067 87.8724 33.9753 87.8469 34.0856 87.8681L34.0938 87.8696L34.102 87.8709C42.862 89.2523 51.4167 92.1806 59.1838 96.4979C64.7943 99.6222 70.1073 103.424 74.2733 108.195C76.5403 110.851 78.3333 113.838 79.8022 116.899C81.5437 120.642 82.7928 124.484 83.7656 128.488L83.766 128.49C85.4036 135.127 86.3796 141.897 87.1177 148.693Z" fill="#46AEAC" stroke="url(#paint4_linear_1_331)"/>
<path d="M88.6615 123.752L88.6627 123.756C89.5095 126.93 90.016 130.141 90.5265 133.378C90.6771 134.332 90.8279 135.289 90.988 136.248C91.699 140.666 92.4025 145.044 92.4883 149.4C92.4845 149.472 92.4591 149.501 92.4335 149.521C92.3943 149.552 92.3196 149.583 92.2184 149.583C92.1178 149.583 92.0315 149.554 91.9786 149.515C91.9378 149.485 91.9142 149.451 91.9073 149.396C91.8227 144.824 91.0664 140.267 90.3198 135.769C90.2537 135.371 90.1877 134.973 90.1222 134.576C90.0384 134.055 89.9557 133.532 89.8729 133.008C89.2562 129.109 88.629 125.143 87.4217 121.261L87.4216 121.261C84.5867 112.167 78.6013 104.647 71.0323 98.8785L71.0316 98.878C59.941 90.4554 46.2848 85.8353 32.6766 83.1497L32.6766 83.1497L32.6739 83.1492C32.5647 83.1283 32.5422 83.0877 32.5354 83.0749C32.5216 83.0488 32.5093 82.9936 32.5313 82.9166C32.5529 82.8406 32.5994 82.7761 32.6542 82.7382C32.7005 82.7061 32.769 82.6806 32.8791 82.7016C41.8032 84.4307 50.5463 87.0301 58.7532 90.9341L58.7539 90.9344C67.036 94.8593 74.8142 100.171 80.509 107.262L80.5116 107.265C84.49 112.136 87.109 117.703 88.6615 123.752Z" fill="#46AEAC" stroke="url(#paint5_linear_1_331)"/>
<path d="M-20.9916 52.995L2.41512 33.2973" stroke="url(#paint6_linear_1_331)" stroke-miterlimit="10"/>
<path d="M-19.679 55.5777L4.20697 34.4735" stroke="url(#paint7_linear_1_331)" stroke-miterlimit="10"/>
<path d="M-18.4649 57.6738L6.44866 36.003" stroke="url(#paint8_linear_1_331)" stroke-miterlimit="10"/>
<path d="M-17.2293 59.6986L8.7565 37.8575" stroke="url(#paint9_linear_1_331)" stroke-miterlimit="10"/>
<path d="M-15.4921 62.1664L10.6033 39.6637" stroke="url(#paint10_linear_1_331)" stroke-miterlimit="10"/>
<path d="M-13.9566 63.965L12.1795 41.3197" stroke="url(#paint11_linear_1_331)" stroke-miterlimit="10"/>
<path d="M-12.2016 65.8232L13.898 43.8593" stroke="url(#paint12_linear_1_331)" stroke-miterlimit="10"/>
<path d="M-10.4059 67.5381L15.3525 45.9427" stroke="url(#paint13_linear_1_331)" stroke-miterlimit="10"/>
<path d="M-8.5696 69.1108L17.0994 48.1057" stroke="url(#paint14_linear_1_331)" stroke-miterlimit="10"/>
<path d="M-6.06925 70.5574L18.0482 49.7464" stroke="url(#paint15_linear_1_331)" stroke-miterlimit="10"/>
<path d="M-3.48186 72.2567L19.2384 52.757" stroke="url(#paint16_linear_1_331)" stroke-miterlimit="10"/>
<path d="M-1.33703 73.2988L20.2867 54.8846" stroke="url(#paint17_linear_1_331)" stroke-miterlimit="10"/>
<path d="M1.17381 74.4391L21.5344 57.1421" stroke="url(#paint18_linear_1_331)" stroke-miterlimit="10"/>
<path d="M3.35882 75.3389L22.5131 59.7891" stroke="url(#paint19_linear_1_331)" stroke-miterlimit="10"/>
<path d="M5.98217 76.3572L23.1625 61.6552" stroke="url(#paint20_linear_1_331)" stroke-miterlimit="10"/>
<path d="M8.75232 77.4148L23.9872 64.5669" stroke="url(#paint21_linear_1_331)" stroke-miterlimit="10"/>
<path d="M11.5221 78.4726C11.5627 78.33 23.9667 67.4035 23.9667 67.4035" stroke="url(#paint22_linear_1_331)" stroke-miterlimit="10"/>
<path d="M14.0821 79.1659L24.7071 70.0619" stroke="url(#paint23_linear_1_331)" stroke-miterlimit="10"/>
<path d="M17.5175 80.097L25.6609 72.2408" stroke="url(#paint24_linear_1_331)" stroke-miterlimit="10"/>
<path d="M19.8649 80.4258L26.071 75.5013" stroke="url(#paint25_linear_1_331)" stroke-miterlimit="10"/>
<path d="M22.4976 81.1387L26.3682 77.5018" stroke="url(#paint26_linear_1_331)" stroke-miterlimit="10"/>
<path d="M33.3862 91.8469L37.3016 88.6062" stroke="url(#paint27_linear_1_331)" stroke-miterlimit="10"/>
<path d="M33.6743 94.1525L39.202 89.1211" stroke="url(#paint28_linear_1_331)" stroke-miterlimit="10"/>
<path d="M33.9307 96.2961L41.6882 89.7949" stroke="url(#paint29_linear_1_331)" stroke-miterlimit="10"/>
<path d="M34.2628 98.9979L44.0918 90.7535" stroke="url(#paint30_linear_1_331)" stroke-miterlimit="10"/>
<path d="M34.6251 101.324L46.432 91.3876" stroke="url(#paint31_linear_1_331)" stroke-miterlimit="10"/>
<path d="M35.1609 104.695L49.6484 92.259" stroke="url(#paint32_linear_1_331)" stroke-miterlimit="10"/>
<path d="M35.8231 106.795L51.7403 93.2098" stroke="url(#paint33_linear_1_331)" stroke-miterlimit="10"/>
<path d="M36.0635 109.548L54.0521 94.2203" stroke="url(#paint34_linear_1_331)" stroke-miterlimit="10"/>
<path d="M37.2167 111.857L56.6147 95.4516" stroke="url(#paint35_linear_1_331)" stroke-miterlimit="10"/>
<path d="M37.9438 114.282L58.2271 96.4268" stroke="url(#paint36_linear_1_331)" stroke-miterlimit="10"/>
<path d="M38.9634 116.786L60.8673 98.2169" stroke="url(#paint37_linear_1_331)" stroke-miterlimit="10"/>
<path d="M40.0885 119.472L63.3774 99.3581" stroke="url(#paint38_linear_1_331)" stroke-miterlimit="10"/>
<path d="M41.2811 121.639L65.7439 100.998" stroke="url(#paint39_linear_1_331)" stroke-miterlimit="10"/>
<path d="M42.907 124.23L67.7271 102.611" stroke="url(#paint40_linear_1_331)" stroke-miterlimit="10"/>
<path d="M44.6012 126.302L69.6772 104.061" stroke="url(#paint41_linear_1_331)" stroke-miterlimit="10"/>
<path d="M45.9781 127.827L71.4928 105.705" stroke="url(#paint42_linear_1_331)" stroke-miterlimit="10"/>
<path d="M48.2851 129.681L73.3449 108.05" stroke="url(#paint43_linear_1_331)" stroke-miterlimit="10"/>
<path d="M50.1738 131.345L74.9858 110.031" stroke="url(#paint44_linear_1_331)" stroke-miterlimit="10"/>
<path d="M52.0819 132.937L76.7193 111.96" stroke="url(#paint45_linear_1_331)" stroke-miterlimit="10"/>
<path d="M53.6374 134.665L77.6858 114.373" stroke="url(#paint46_linear_1_331)" stroke-miterlimit="10"/>
<path d="M55.8588 136.265L79.2005 116.243" stroke="url(#paint47_linear_1_331)" stroke-miterlimit="10"/>
<path d="M58.1013 137.795L80.054 118.778" stroke="url(#paint48_linear_1_331)" stroke-miterlimit="10"/>
<path d="M60.3641 139.252L81.5207 121.096" stroke="url(#paint49_linear_1_331)" stroke-miterlimit="10"/>
</g>
<defs>
<linearGradient id="paint0_linear_1_331" x1="120.5" y1="170.425" x2="96.6815" y2="-9.39753" gradientUnits="userSpaceOnUse">
<stop stop-color="#7AD5D4"/>
<stop offset="1" stop-color="#46AEAC"/>
</linearGradient>
<linearGradient id="paint1_linear_1_331" x1="125.515" y1="165.561" x2="101.654" y2="-14.2795" gradientUnits="userSpaceOnUse">
<stop stop-color="#7AD5D4"/>
<stop offset="1" stop-color="#46AEAC"/>
</linearGradient>
<linearGradient id="paint2_linear_1_331" x1="22.7549" y1="80.8519" x2="5.28365" y2="16.5551" gradientUnits="userSpaceOnUse">
<stop stop-color="#7AD5D4"/>
<stop offset="1" stop-color="#46AEAC"/>
</linearGradient>
<linearGradient id="paint3_linear_1_331" x1="22.7897" y1="86.2566" x2="3.61132" y2="14.972" gradientUnits="userSpaceOnUse">
<stop stop-color="#7AD5D4"/>
<stop offset="1" stop-color="#46AEAC"/>
</linearGradient>
<linearGradient id="paint4_linear_1_331" x1="83.2689" y1="146.855" x2="63.5964" y2="81.3161" gradientUnits="userSpaceOnUse">
<stop stop-color="#7AD5D4"/>
<stop offset="1" stop-color="#46AEAC"/>
</linearGradient>
<linearGradient id="paint5_linear_1_331" x1="88.1129" y1="147.365" x2="67.4903" y2="75.4859" gradientUnits="userSpaceOnUse">
<stop stop-color="#7AD5D4"/>
<stop offset="1" stop-color="#46AEAC"/>
</linearGradient>
<linearGradient id="paint6_linear_1_331" x1="-5.38568" y1="56.4049" x2="-21.3165" y2="36.1191" gradientUnits="userSpaceOnUse">
<stop stop-color="#7AD5D4"/>
<stop offset="1" stop-color="#46AEAC"/>
</linearGradient>
<linearGradient id="paint7_linear_1_331" x1="-3.99222" y1="58.9612" x2="-20.7908" y2="38.6255" gradientUnits="userSpaceOnUse">
<stop stop-color="#7AD5D4"/>
<stop offset="1" stop-color="#46AEAC"/>
</linearGradient>
<linearGradient id="paint8_linear_1_331" x1="-2.02203" y1="61.2355" x2="-19.3657" y2="39.8964" gradientUnits="userSpaceOnUse">
<stop stop-color="#7AD5D4"/>
<stop offset="1" stop-color="#46AEAC"/>
</linearGradient>
<linearGradient id="paint9_linear_1_331" x1="0.102624" y1="63.4868" x2="-17.5681" y2="40.9564" gradientUnits="userSpaceOnUse">
<stop stop-color="#7AD5D4"/>
<stop offset="1" stop-color="#46AEAC"/>
</linearGradient>
<linearGradient id="paint10_linear_1_331" x1="1.77743" y1="65.916" x2="-16.2841" y2="43.4924" gradientUnits="userSpaceOnUse">
<stop stop-color="#7AD5D4"/>
<stop offset="1" stop-color="#46AEAC"/>
</linearGradient>
<linearGradient id="paint11_linear_1_331" x1="3.31426" y1="67.7101" x2="-14.8332" y2="45.291" gradientUnits="userSpaceOnUse">
<stop stop-color="#7AD5D4"/>
<stop offset="1" stop-color="#46AEAC"/>
</linearGradient>
<linearGradient id="paint12_linear_1_331" x1="5.19974" y1="69.6254" x2="-12.5638" y2="47.0058" gradientUnits="userSpaceOnUse">
<stop stop-color="#7AD5D4"/>
<stop offset="1" stop-color="#46AEAC"/>
</linearGradient>
<linearGradient id="paint13_linear_1_331" x1="6.7873" y1="71.2984" x2="-10.6976" y2="48.9465" gradientUnits="userSpaceOnUse">
<stop stop-color="#7AD5D4"/>
<stop offset="1" stop-color="#46AEAC"/>
</linearGradient>
<linearGradient id="paint14_linear_1_331" x1="8.68657" y1="72.9075" x2="-8.43503" y2="50.4618" gradientUnits="userSpaceOnUse">
<stop stop-color="#7AD5D4"/>
<stop offset="1" stop-color="#46AEAC"/>
</linearGradient>
<linearGradient id="paint15_linear_1_331" x1="9.88801" y1="74.0214" x2="-6.81203" y2="53.3026" gradientUnits="userSpaceOnUse">
<stop stop-color="#7AD5D4"/>
<stop offset="1" stop-color="#46AEAC"/>
</linearGradient>
<linearGradient id="paint16_linear_1_331" x1="11.5761" y1="75.5302" x2="-4.0991" y2="55.9733" gradientUnits="userSpaceOnUse">
<stop stop-color="#7AD5D4"/>
<stop offset="1" stop-color="#46AEAC"/>
</linearGradient>
<linearGradient id="paint17_linear_1_331" x1="13.0285" y1="76.4281" x2="-1.81068" y2="57.7635" gradientUnits="userSpaceOnUse">
<stop stop-color="#7AD5D4"/>
<stop offset="1" stop-color="#46AEAC"/>
</linearGradient>
<linearGradient id="paint18_linear_1_331" x1="14.7101" y1="77.3896" x2="0.760825" y2="59.8006" gradientUnits="userSpaceOnUse">
<stop stop-color="#7AD5D4"/>
<stop offset="1" stop-color="#46AEAC"/>
</linearGradient>
<linearGradient id="paint19_linear_1_331" x1="16.265" y1="78.1839" x2="3.56407" y2="61.3953" gradientUnits="userSpaceOnUse">
<stop stop-color="#7AD5D4"/>
<stop offset="1" stop-color="#46AEAC"/>
</linearGradient>
<linearGradient id="paint20_linear_1_331" x1="17.3787" y1="78.8366" x2="5.54921" y2="64.0328" gradientUnits="userSpaceOnUse">
<stop stop-color="#7AD5D4"/>
<stop offset="1" stop-color="#46AEAC"/>
</linearGradient>
<linearGradient id="paint21_linear_1_331" x1="18.9034" y1="79.6316" x2="8.519" y2="66.4374" gradientUnits="userSpaceOnUse">
<stop stop-color="#7AD5D4"/>
<stop offset="1" stop-color="#46AEAC"/>
</linearGradient>
<linearGradient id="paint22_linear_1_331" x1="19.6773" y1="80.2283" x2="10.8878" y2="69.6618" gradientUnits="userSpaceOnUse">
<stop stop-color="#7AD5D4"/>
<stop offset="1" stop-color="#46AEAC"/>
</linearGradient>
<linearGradient id="paint23_linear_1_331" x1="21.1274" y1="80.6982" x2="13.8051" y2="71.5472" gradientUnits="userSpaceOnUse">
<stop stop-color="#7AD5D4"/>
<stop offset="1" stop-color="#46AEAC"/>
</linearGradient>
<linearGradient id="paint24_linear_1_331" x1="22.7082" y1="81.1871" x2="16.6797" y2="74.5258" gradientUnits="userSpaceOnUse">
<stop stop-color="#7AD5D4"/>
<stop offset="1" stop-color="#46AEAC"/>
</linearGradient>
<linearGradient id="paint25_linear_1_331" x1="24.0736" y1="81.3584" x2="20.0293" y2="75.8841" gradientUnits="userSpaceOnUse">
<stop stop-color="#7AD5D4"/>
<stop offset="1" stop-color="#46AEAC"/>
</linearGradient>
<linearGradient id="paint26_linear_1_331" x1="24.9879" y1="81.6661" x2="22.1632" y2="78.4582" gradientUnits="userSpaceOnUse">
<stop stop-color="#7AD5D4"/>
<stop offset="1" stop-color="#46AEAC"/>
</linearGradient>
<linearGradient id="paint27_linear_1_331" x1="36.0096" y1="92.4225" x2="33.3762" y2="89.0108" gradientUnits="userSpaceOnUse">
<stop stop-color="#7AD5D4"/>
<stop offset="1" stop-color="#46AEAC"/>
</linearGradient>
<linearGradient id="paint28_linear_1_331" x1="37.2695" y1="94.9214" x2="33.3093" y2="90.2731" gradientUnits="userSpaceOnUse">
<stop stop-color="#7AD5D4"/>
<stop offset="1" stop-color="#46AEAC"/>
</linearGradient>
<linearGradient id="paint29_linear_1_331" x1="39.1093" y1="97.4288" x2="33.8449" y2="90.6962" gradientUnits="userSpaceOnUse">
<stop stop-color="#7AD5D4"/>
<stop offset="1" stop-color="#46AEAC"/>
</linearGradient>
<linearGradient id="paint30_linear_1_331" x1="40.8225" y1="100.432" x2="34.1483" y2="91.9046" gradientUnits="userSpaceOnUse">
<stop stop-color="#7AD5D4"/>
<stop offset="1" stop-color="#46AEAC"/>
</linearGradient>
<linearGradient id="paint31_linear_1_331" x1="42.4971" y1="103.044" x2="34.4612" y2="92.811" gradientUnits="userSpaceOnUse">
<stop stop-color="#7AD5D4"/>
<stop offset="1" stop-color="#46AEAC"/>
</linearGradient>
<linearGradient id="paint32_linear_1_331" x1="44.7621" y1="106.782" x2="34.7657" y2="94.3123" gradientUnits="userSpaceOnUse">
<stop stop-color="#7AD5D4"/>
<stop offset="1" stop-color="#46AEAC"/>
</linearGradient>
<linearGradient id="paint33_linear_1_331" x1="46.3904" y1="109.095" x2="35.4506" y2="95.3668" gradientUnits="userSpaceOnUse">
<stop stop-color="#7AD5D4"/>
<stop offset="1" stop-color="#46AEAC"/>
</linearGradient>
<linearGradient id="paint34_linear_1_331" x1="48.0118" y1="112.151" x2="35.662" y2="96.627" gradientUnits="userSpaceOnUse">
<stop stop-color="#7AD5D4"/>
<stop offset="1" stop-color="#46AEAC"/>
</linearGradient>
<linearGradient id="paint35_linear_1_331" x1="50.1305" y1="114.675" x2="36.882" y2="97.8919" gradientUnits="userSpaceOnUse">
<stop stop-color="#7AD5D4"/>
<stop offset="1" stop-color="#46AEAC"/>
</linearGradient>
<linearGradient id="paint36_linear_1_331" x1="51.2802" y1="117.162" x2="37.0489" y2="99.8682" gradientUnits="userSpaceOnUse">
<stop stop-color="#7AD5D4"/>
<stop offset="1" stop-color="#46AEAC"/>
</linearGradient>
<linearGradient id="paint37_linear_1_331" x1="53.5351" y1="119.964" x2="38.5505" y2="101.027" gradientUnits="userSpaceOnUse">
<stop stop-color="#7AD5D4"/>
<stop offset="1" stop-color="#46AEAC"/>
</linearGradient>
<linearGradient id="paint38_linear_1_331" x1="55.4933" y1="122.815" x2="39.3575" y2="102.815" gradientUnits="userSpaceOnUse">
<stop stop-color="#7AD5D4"/>
<stop offset="1" stop-color="#46AEAC"/>
</linearGradient>
<linearGradient id="paint39_linear_1_331" x1="57.5782" y1="125.197" x2="40.8979" y2="104.015" gradientUnits="userSpaceOnUse">
<stop stop-color="#7AD5D4"/>
<stop offset="1" stop-color="#46AEAC"/>
</linearGradient>
<linearGradient id="paint40_linear_1_331" x1="59.2811" y1="127.775" x2="41.9868" y2="106.527" gradientUnits="userSpaceOnUse">
<stop stop-color="#7AD5D4"/>
<stop offset="1" stop-color="#46AEAC"/>
</linearGradient>
<linearGradient id="paint41_linear_1_331" x1="61.0491" y1="129.846" x2="43.3701" y2="108.53" gradientUnits="userSpaceOnUse">
<stop stop-color="#7AD5D4"/>
<stop offset="1" stop-color="#46AEAC"/>
</linearGradient>
<linearGradient id="paint42_linear_1_331" x1="62.8347" y1="131.482" x2="45.1104" y2="109.601" gradientUnits="userSpaceOnUse">
<stop stop-color="#7AD5D4"/>
<stop offset="1" stop-color="#46AEAC"/>
</linearGradient>
<linearGradient id="paint43_linear_1_331" x1="64.8642" y1="133.28" x2="47.5079" y2="111.754" gradientUnits="userSpaceOnUse">
<stop stop-color="#7AD5D4"/>
<stop offset="1" stop-color="#46AEAC"/>
</linearGradient>
<linearGradient id="paint44_linear_1_331" x1="66.6134" y1="134.918" x2="49.4846" y2="113.568" gradientUnits="userSpaceOnUse">
<stop stop-color="#7AD5D4"/>
<stop offset="1" stop-color="#46AEAC"/>
</linearGradient>
<linearGradient id="paint45_linear_1_331" x1="68.4503" y1="136.503" x2="51.5448" y2="115.236" gradientUnits="userSpaceOnUse">
<stop stop-color="#7AD5D4"/>
<stop offset="1" stop-color="#46AEAC"/>
</linearGradient>
<linearGradient id="paint46_linear_1_331" x1="69.6582" y1="138.163" x2="53.2599" y2="117.34" gradientUnits="userSpaceOnUse">
<stop stop-color="#7AD5D4"/>
<stop offset="1" stop-color="#46AEAC"/>
</linearGradient>
<linearGradient id="paint47_linear_1_331" x1="71.3311" y1="139.629" x2="55.2328" y2="119.534" gradientUnits="userSpaceOnUse">
<stop stop-color="#7AD5D4"/>
<stop offset="1" stop-color="#46AEAC"/>
</linearGradient>
<linearGradient id="paint48_linear_1_331" x1="72.6088" y1="140.941" x2="57.3683" y2="122.109" gradientUnits="userSpaceOnUse">
<stop stop-color="#7AD5D4"/>
<stop offset="1" stop-color="#46AEAC"/>
</linearGradient>
<linearGradient id="paint49_linear_1_331" x1="74.386" y1="142.301" x2="59.7901" y2="124.089" gradientUnits="userSpaceOnUse">
<stop stop-color="#7AD5D4"/>
<stop offset="1" stop-color="#46AEAC"/>
</linearGradient>
</defs>
</svg>
