<svg width="122" height="122" viewBox="0 0 122 122" fill="none" xmlns="http://www.w3.org/2000/svg">
<mask id="mask0_1_138" style="mask-type:alpha" maskUnits="userSpaceOnUse" x="0" y="0" width="122" height="122">
<rect width="122" height="122" rx="20" fill="url(#paint0_linear_1_138)"/>
</mask>
<g mask="url(#mask0_1_138)">
<path d="M113.91 33.6869C114.481 35.5913 115.053 37.6861 113.148 36.7339C109.911 35.02 105.721 33.1156 107.054 34.4487C108.387 35.7817 108.958 37.3052 106.864 37.1148C104.769 36.9244 100.96 36.3531 99.2461 38.8288C97.5321 41.3045 95.2469 40.7331 94.6756 41.6853C94.1042 42.6375 93.152 46.6367 91.4381 45.3037C89.7241 44.161 86.2962 39.781 89.1528 40.9236C92.0094 42.0662 95.2469 40.7331 92.5807 37.6861C89.9146 34.6391 87.2484 35.7817 86.1058 34.0678C84.9632 32.3538 81.1544 30.259 78.2978 34.4487C75.6317 38.6383 73.156 44.161 71.6325 45.3037C70.1089 46.4463 66.8715 48.5411 67.4428 50.2551C67.8237 51.969 68.0141 55.9682 69.7281 54.8256C71.442 53.683 72.3942 53.1117 73.156 54.2543C73.7273 55.3969 73.5368 57.6822 74.8699 57.6822C74.8699 57.6822 77.5361 55.7778 77.7265 54.0639C77.9169 52.3499 75.8221 51.3977 77.3456 48.922C78.8691 46.4463 82.297 41.6853 81.5353 44.161C80.7735 46.4463 79.0596 49.8742 80.3926 51.3977C81.5353 52.9212 88.2006 51.0168 85.1536 52.5404C82.1066 54.0639 80.5831 55.2065 80.0118 57.1109C79.4404 59.0153 78.8691 60.5388 77.3456 59.777C75.8221 59.0153 73.9177 59.3961 73.156 59.3961C72.3942 59.3961 72.0133 55.9682 70.6803 56.73C69.5376 57.4918 71.0611 59.9675 69.7281 60.1579C68.395 60.3483 68.2046 61.8719 66.681 63.0145C65.1575 64.1571 63.0627 66.4424 61.7296 66.6328C60.3966 66.8233 63.8245 68.5372 63.2532 70.0607C62.6818 71.7747 59.6348 71.5842 58.4922 71.7747C57.3495 71.9651 58.3017 74.2504 57.7304 75.5835C57.1591 76.9165 58.3017 78.2496 60.2061 78.2496C62.1105 78.2496 64.0149 77.8687 64.2053 76.1548C64.3958 74.4408 66.1097 71.5842 67.4428 72.1556C68.5854 72.7269 71.442 71.0129 72.0133 71.9651C72.5847 72.9173 76.203 76.1548 75.8221 76.5356C75.4412 76.9165 73.3464 77.8687 74.1082 78.2496C74.1082 78.2496 74.6795 79.2018 75.0604 79.0113C75.4412 78.8209 76.3934 76.3452 76.9647 75.9643C77.5361 75.5835 77.5361 74.2504 76.7743 73.6791C75.8221 73.1077 72.5847 70.8225 73.3464 69.6798C74.1082 68.5372 75.8221 71.0129 76.5839 71.7747C77.3456 72.5364 78.4883 73.4886 78.4883 75.2026C78.4883 76.9165 79.6309 76.9165 79.6309 77.6783C79.8213 78.6305 80.2022 78.8209 81.1544 78.8209C82.1066 78.6305 82.4875 76.5356 82.1066 75.9643C81.5353 75.393 81.5353 74.2504 82.6779 74.2504C83.8205 74.2504 85.1536 73.2982 85.1536 72.7269C85.1536 72.1555 86.2962 68.7277 87.058 68.7277C87.8198 68.7277 88.3911 70.0607 88.5815 70.8225C88.9624 71.5842 90.8668 70.2512 90.4859 69.4894C90.105 68.7277 90.6763 68.5372 91.2477 68.5372C91.819 68.5372 91.4381 70.0607 91.819 70.4416C92.3903 70.8225 95.0564 72.5364 94.1042 73.4886C93.1521 74.4408 91.819 73.8695 90.8668 73.1077C89.9146 72.346 87.4389 72.7269 86.6771 73.4886C86.1058 74.2504 85.5345 74.6313 84.3919 74.6313C83.2492 74.6313 83.4397 76.7261 84.3919 77.4878C85.3441 78.44 86.6771 77.6783 87.6293 78.2496C88.5815 78.8209 90.105 77.4878 90.2955 78.44C90.4859 79.3922 90.105 82.2488 89.1528 82.4393C88.2006 82.6297 85.1536 83.201 83.0588 82.2488C80.7735 81.2966 78.6787 80.9157 78.4883 81.8679C78.2978 83.0106 78.2978 83.7723 76.7743 82.8201C75.2508 81.8679 73.9177 81.2966 72.9655 81.2966C72.0133 81.2966 72.0133 79.5827 72.2038 78.2496C72.3942 76.9165 69.9185 77.2974 68.395 77.6783C66.8715 78.0592 63.8245 79.0113 61.9201 79.0113C60.0157 79.0113 59.2539 79.3922 58.8731 80.154C58.4922 80.9157 56.7782 80.9157 56.7782 82.4393C56.7782 83.9628 56.9687 84.3436 55.4452 85.1054C53.7312 85.6767 53.3503 88.7237 52.5886 89.4855C51.8268 90.2472 53.3503 92.1516 52.5886 93.2943C51.8268 94.2465 51.0651 96.9126 52.3981 97.4839C53.7312 98.0552 55.0643 100.721 55.6356 101.674C56.2069 102.626 58.3017 103.578 60.3966 103.197C62.4914 102.816 66.3002 101.674 68.395 102.626C70.4898 103.578 72.5847 103.388 71.6325 105.292C70.4898 107.196 72.2038 109.672 73.5368 111.005C74.8699 112.338 74.489 115.766 73.7273 116.718C72.9655 117.861 73.156 119.765 73.9177 120.717C74.6795 121.67 75.0604 123.955 75.0604 124.717C75.0604 125.669 76.5839 127.383 76.7743 129.097C76.9647 131.001 75.6317 133.096 77.3456 133.096C79.0596 133.096 83.4397 133.286 83.8205 132.525C84.2014 131.763 87.6293 128.716 88.5815 127.383C89.5337 126.05 91.4381 123.764 90.8668 122.431C89.7241 121.479 90.4859 120.527 92.3903 119.765C94.2947 119.004 94.2947 113.671 93.3425 112.338C92.3903 111.005 94.1042 107.768 96.1991 106.815C98.2939 105.863 103.245 97.103 101.722 97.8648C100.008 98.6265 96.7704 99.1979 95.6278 98.4361C94.4851 97.6744 87.8198 86.248 88.7719 85.4863C89.7241 84.7245 95.0564 95.9604 96.0086 97.2935C96.9608 98.817 105.911 93.2943 107.054 91.9612C108.006 90.6281 106.483 89.295 105.911 89.295C105.34 89.295 103.245 87.962 102.674 88.7237C102.103 89.4855 98.2939 83.201 99.627 83.7723C100.96 84.3436 103.817 86.248 106.483 87.7715C109.149 89.295 112.196 86.8193 113.91 89.6759C115.814 92.5325 116.957 90.6281 116.766 91.9612C116.576 93.2943 119.052 98.817 120.004 100.531C120.766 102.245 122.48 99.7692 122.67 97.8648C122.861 95.77 126.86 92.5325 128.383 91.3899C129.716 90.2472 132.382 91.9612 132.763 94.2465C133.144 96.5317 135.049 93.8656 135.049 95.5795C135.049 97.4839 134.668 99.9596 136.001 102.245C138.667 95.5795 140 88.9142 140 81.6775C140 61.491 129.526 43.7802 113.91 33.6869ZM53.1599 40.9236C52.0173 41.3045 50.8746 42.6375 49.3511 41.8758C47.8276 41.114 44.5901 42.2567 46.685 43.9706C48.5894 45.875 47.8276 47.0176 49.732 47.2081C51.6364 47.3985 52.779 44.7324 54.1121 44.9228C55.4452 45.1132 54.493 40.5427 53.1599 40.9236Z" fill="url(#paint1_linear_1_138)"/>
<path d="M99.4365 115.385C98.1034 115.576 98.4843 118.242 96.9608 118.623C95.6277 119.004 96.7703 120.146 96.0086 121.098C95.4372 122.051 95.0564 124.336 96.0086 125.478C96.9608 126.812 97.3416 126.812 98.4843 124.717C99.6269 122.812 102.293 115.195 99.4365 115.385ZM61.1583 53.683C60.5869 53.683 60.0156 54.0639 59.4443 54.0639C58.873 54.2544 58.4921 55.0161 58.4921 55.7779C58.4921 56.7301 60.0156 56.9205 59.4443 57.4918C58.873 58.0631 55.826 58.6345 56.2068 59.5866C56.5877 60.5388 57.159 61.3006 56.5877 62.2528C56.0164 63.205 57.159 63.3954 58.3017 63.0146C59.4443 62.6337 60.2061 61.3006 60.0156 60.5388C59.8252 59.5866 61.7296 59.3962 61.1583 60.158C60.5869 60.9197 59.6347 62.8241 60.2061 63.3954C60.7774 63.9667 58.6826 64.9189 59.4443 65.2998C60.2061 65.6807 62.3009 63.7763 63.4435 64.1572C64.5862 64.5381 64.967 63.7763 65.1575 62.8241C65.3479 61.6815 63.634 60.3484 63.0626 59.0153C62.4913 57.4918 62.8722 53.683 61.1583 53.683Z" fill="url(#paint2_linear_1_138)"/>
</g>
<defs>
<linearGradient id="paint0_linear_1_138" x1="5.68107e-07" y1="61" x2="122" y2="61" gradientUnits="userSpaceOnUse">
<stop stop-color="#0C65C9"/>
<stop offset="1" stop-color="#58A4EA"/>
</linearGradient>
<linearGradient id="paint1_linear_1_138" x1="133.554" y1="129.939" x2="45.2049" y2="41.6148" gradientUnits="userSpaceOnUse">
<stop stop-color="#46AEAC"/>
<stop offset="1" stop-color="#7AD5D4"/>
</linearGradient>
<linearGradient id="paint2_linear_1_138" x1="97.6594" y1="124.114" x2="39.2863" y2="85.6632" gradientUnits="userSpaceOnUse">
<stop stop-color="#46AEAC"/>
<stop offset="1" stop-color="#7AD5D4"/>
</linearGradient>
</defs>
</svg>
