<svg width="30" height="26" viewBox="0 0 30 26" fill="none" xmlns="http://www.w3.org/2000/svg">
<path d="M29.9452 13.8021L25.5826 2.7383H25.5689L25.528 2.64149C25.528 2.63782 25.5266 2.6343 25.5241 2.63171C25.5215 2.62912 25.518 2.62766 25.5144 2.62766C25.5011 2.59702 25.4826 2.56894 25.4599 2.54468H25.4463L25.3781 2.4617C25.3745 2.4617 25.371 2.46024 25.3684 2.45765C25.3659 2.45506 25.3645 2.45154 25.3645 2.44787L25.2963 2.39255H25.269L25.1872 2.33723C25.1736 2.33723 25.16 2.33723 25.16 2.3234L25.0782 2.29574H25.0509L24.9555 2.26809H24.6419L15.8213 4.21809V0.829787C15.8213 0.609714 15.7351 0.398654 15.5817 0.243039C15.4283 0.0874237 15.2203 0 15.0033 0C14.7864 0 14.5783 0.0874237 14.4249 0.243039C14.2715 0.398654 14.1853 0.609714 14.1853 0.829787V4.59149L5.01028 6.65213H4.94211L4.83305 6.69362H4.81942L4.73762 6.74894H4.72398L4.64219 6.80426H4.62855L4.56039 6.88723H4.54675L4.49222 6.97021H4.47859C4.46344 7.00414 4.44518 7.03656 4.42406 7.06702L0.0614737 18.1309C0.00723948 18.2569 -0.0116314 18.3957 0.00694146 18.5319C0.00694146 21.5606 3.18345 22.6809 5.18751 22.6809C7.19157 22.6809 10.3681 21.5606 10.3681 18.5319C10.371 18.4277 10.3524 18.3241 10.3135 18.2277L6.30542 8.06277L14.1853 6.29255V24.3404H11.7314C11.5144 24.3404 11.3064 24.4278 11.153 24.5835C10.9996 24.7391 10.9134 24.9501 10.9134 25.1702C10.9134 25.3903 10.9996 25.6013 11.153 25.757C11.3064 25.9126 11.5144 26 11.7314 26H18.2753C18.4922 26 18.7003 25.9126 18.8537 25.757C19.0071 25.6013 19.0932 25.3903 19.0932 25.1702C19.0932 24.9501 19.0071 24.7391 18.8537 24.5835C18.7003 24.4278 18.4922 24.3404 18.2753 24.3404H15.8213V5.91915L23.4831 4.19043L19.6931 13.8021C19.6542 13.8986 19.6356 14.0022 19.6386 14.1064C19.6386 17.1351 22.8151 18.2553 24.8191 18.2553C26.8232 18.2553 29.9997 17.1351 29.9997 14.1064C30.0026 14.0022 29.9841 13.8986 29.9452 13.8021ZM5.18751 21.0213C4.35229 21.0151 3.53196 20.7964 2.80172 20.3851C2.07917 19.9564 1.69744 19.4032 1.64291 18.684L5.18751 9.70851L8.73211 18.684C8.60941 20.5926 6.08729 21.0213 5.18751 21.0213ZM24.8191 16.5957C23.9839 16.5896 23.1636 16.3708 22.4333 15.9596C21.7108 15.5309 21.3291 14.9777 21.2745 14.2585L24.8191 5.28298L28.3637 14.2585C28.241 16.167 25.7189 16.5957 24.8191 16.5957Z" fill="#233066"/>
</svg>
