<svg width="122" height="94" viewBox="0 0 122 94" fill="none" xmlns="http://www.w3.org/2000/svg">
<mask id="mask0_1_93" style="mask-type:alpha" maskUnits="userSpaceOnUse" x="0" y="0" width="122" height="94">
<rect width="122" height="94" rx="20" fill="url(#paint0_linear_1_93)"/>
</mask>
<g mask="url(#mask0_1_93)">
<g opacity="0.6">
<path d="M47.6667 87.7778L59.0556 76.3889L6.66666 24H-4.72223V35.3889L47.6667 87.7778Z" fill="url(#paint1_linear_1_93)"/>
<path d="M-4.72223 24V35.3889L47.6667 87.7778L53.3611 82.0833L-4.72223 24Z" fill="url(#paint2_linear_1_93)"/>
<path d="M69.1324 96.4517C69.7793 95.8048 70.1756 95.0258 70.3419 94.2468L58.4018 80.136L56.8051 78.537C55.5204 77.2523 53.2289 77.4596 51.6846 79.004L50.2861 80.398C48.744 81.94 48.5367 84.2315 49.8214 85.5161L51.5092 87.204L65.5176 99.0598C66.3034 98.8958 67.0847 98.4972 67.7361 97.848L69.1324 96.4517Z" fill="url(#paint3_linear_1_93)"/>
<path d="M69.1324 96.452C69.7793 95.8052 70.1756 95.0262 70.3419 94.2472L67.2851 90.6346L65.6064 99.0259C66.3603 98.8505 67.112 98.4724 67.7361 97.846L69.1324 96.452ZM61.593 83.9106L59.5703 94.0262L62.4403 96.4543L64.3081 87.1154L61.593 83.9106ZM58.4018 80.1363L56.8051 78.5373C56.5875 78.3273 56.3365 78.1549 56.0625 78.0271L53.8348 89.17L56.7048 91.5981L58.8847 80.7035L58.4018 80.1363ZM52.9328 78.1137C52.4697 78.3393 52.0478 78.6411 51.6846 79.0065L50.2861 80.3983C49.7369 80.9409 49.3361 81.6154 49.1221 82.3572C48.7987 83.5188 49.0173 84.7147 49.8214 85.5164L51.179 86.874L52.9328 78.1137C52.9328 78.1114 52.9328 78.1114 52.9328 78.1137Z" fill="url(#paint4_linear_1_93)"/>
<path d="M68.7361 103.722C72.1956 103.722 75 100.918 75 97.4583C75 93.9989 72.1956 91.1945 68.7361 91.1945C65.2767 91.1945 62.4722 93.9989 62.4722 97.4583C62.4722 100.918 65.2767 103.722 68.7361 103.722Z" fill="url(#paint5_linear_1_93)"/>
<path d="M60.4813 72.5715C60.7002 72.7901 60.8739 73.0496 60.9923 73.3353C61.1108 73.621 61.1718 73.9273 61.1718 74.2366C61.1718 74.5459 61.1108 74.8522 60.9923 75.1379C60.8739 75.4236 60.7002 75.6831 60.4813 75.9016L46.6051 89.7779C46.3865 89.9965 46.1269 90.17 45.8412 90.2883C45.5555 90.4067 45.2493 90.4676 44.9401 90.4676C44.6308 90.4676 44.3246 90.4067 44.0389 90.2883C43.7533 90.17 43.4937 89.9965 43.275 89.7779C43.0564 89.5592 42.8829 89.2996 42.7646 89.0139C42.6462 88.7282 42.5853 88.422 42.5853 88.1128C42.5853 87.8036 42.6462 87.4974 42.7646 87.2117C42.8829 86.926 43.0564 86.6664 43.275 86.4478L57.1512 72.5715C57.3698 72.3527 57.6293 72.179 57.915 72.0606C58.2007 71.9421 58.507 71.8811 58.8163 71.8811C59.1256 71.8811 59.4319 71.9421 59.7176 72.0606C60.0033 72.179 60.2628 72.3527 60.4813 72.5715Z" fill="url(#paint6_linear_1_93)"/>
<path d="M43.2752 93.7614C45.4766 93.7614 47.2613 91.9768 47.2613 89.7753C47.2613 87.5738 45.4766 85.7892 43.2752 85.7892C41.0737 85.7892 39.2891 87.5738 39.2891 89.7753C39.2891 91.9768 41.0737 93.7614 43.2752 93.7614Z" fill="url(#paint7_linear_1_93)"/>
<path d="M60.4814 76.5557C62.6829 76.5557 64.4675 74.7711 64.4675 72.5696C64.4675 70.3681 62.6829 68.5835 60.4814 68.5835C58.2799 68.5835 56.4953 70.3681 56.4953 72.5696C56.4953 74.7711 58.2799 76.5557 60.4814 76.5557Z" fill="url(#paint8_linear_1_93)"/>
<path d="M43.2752 92.0531C44.5331 92.0531 45.5529 91.0333 45.5529 89.7753C45.5529 88.5174 44.5331 87.4976 43.2752 87.4976C42.0172 87.4976 40.9974 88.5174 40.9974 89.7753C40.9974 91.0333 42.0172 92.0531 43.2752 92.0531Z" fill="url(#paint9_linear_1_93)"/>
<path d="M60.4814 74.8474C61.7394 74.8474 62.7592 73.8276 62.7592 72.5696C62.7592 71.3117 61.7394 70.2919 60.4814 70.2919C59.2234 70.2919 58.2036 71.3117 58.2036 72.5696C58.2036 73.8276 59.2234 74.8474 60.4814 74.8474Z" fill="url(#paint10_linear_1_93)"/>
<path d="M70.2235 88.5569C70.3848 88.7181 70.5127 88.9095 70.6 89.1201C70.6873 89.3308 70.7322 89.5566 70.7322 89.7846C70.7322 90.0126 70.6873 90.2384 70.6 90.4491C70.5127 90.6597 70.3848 90.8511 70.2235 91.0123L62.3059 98.9276C62.1447 99.0888 61.9533 99.2167 61.7426 99.304C61.532 99.3912 61.3062 99.4361 61.0782 99.4361C60.8502 99.4361 60.6244 99.3912 60.4137 99.304C60.2031 99.2167 60.0117 99.0888 59.8505 98.9276C59.6892 98.7664 59.5613 98.575 59.4741 98.3643C59.3868 98.1537 59.3419 97.9279 59.3419 97.6999C59.3419 97.4719 59.3868 97.2461 59.4741 97.0354C59.5613 96.8248 59.6892 96.6334 59.8505 96.4722L67.768 88.5569C67.9292 88.3956 68.1206 88.2676 68.3312 88.1803C68.5419 88.093 68.7677 88.0481 68.9957 88.0481C69.2238 88.0481 69.4496 88.093 69.6602 88.1803C69.8709 88.2676 70.0623 88.3956 70.2235 88.5569Z" fill="url(#paint11_linear_1_93)"/>
<path d="M20.3333 87.7778L8.94446 76.3889L61.3334 24H72.7222V35.3889L20.3333 87.7778Z" fill="url(#paint12_linear_1_93)"/>
<path d="M72.7222 24V35.3889L20.3334 87.7778L14.6389 82.0833L72.7222 24Z" fill="url(#paint13_linear_1_93)"/>
<path d="M-1.13236 96.4517C-1.73994 95.8489 -2.16001 95.0832 -2.34186 94.2468L9.59825 80.136L11.195 78.537C12.4796 77.2523 14.7711 77.4596 16.3154 79.004L17.7117 80.398C19.2538 81.94 19.461 84.2315 18.1764 85.5161L16.4885 87.204L2.4802 99.0598C1.63873 98.8798 0.86786 98.4587 0.261642 97.848L-1.13236 96.4517Z" fill="url(#paint14_linear_1_93)"/>
<path d="M-1.13236 96.452C-1.73994 95.8493 -2.16001 95.0835 -2.34186 94.2472L0.71492 90.6346L2.39364 99.0259C1.5869 98.8408 0.848737 98.4318 0.263919 97.846L-1.13236 96.452ZM6.40709 83.9106L8.42975 94.0262L5.55975 96.4543L3.69197 87.1154L6.40709 83.9106ZM9.59825 80.1363L11.195 78.5373C11.4126 78.3273 11.6635 78.1549 11.9375 78.0271L14.1652 89.17L11.2952 91.5981L9.11536 80.7035L9.59825 80.1363ZM15.0672 78.1137C15.5114 78.33 15.9373 78.6262 16.3154 79.0065L17.7117 80.4005C18.2903 80.9791 18.6798 81.6624 18.8756 82.3594C19.1991 83.5211 18.9804 84.7169 18.1764 85.5187L16.8188 86.8763L15.0672 78.1137C15.0672 78.1114 15.0672 78.1114 15.0672 78.1137Z" fill="url(#paint15_linear_1_93)"/>
<path d="M-0.736112 103.722C2.72334 103.722 5.52778 100.918 5.52778 97.4583C5.52778 93.9989 2.72334 91.1945 -0.736112 91.1945C-4.19556 91.1945 -7 93.9989 -7 97.4583C-7 100.918 -4.19556 103.722 -0.736112 103.722Z" fill="url(#paint16_linear_1_93)"/>
<path d="M7.51862 72.5715C7.29975 72.7901 7.12611 73.0496 7.00764 73.3353C6.88917 73.621 6.82819 73.9273 6.82819 74.2366C6.82819 74.5459 6.88917 74.8522 7.00764 75.1379C7.12611 75.4236 7.29975 75.6831 7.51862 75.9016L21.3948 89.7779C21.6135 89.9965 21.8731 90.17 22.1588 90.2883C22.4445 90.4067 22.7507 90.4676 23.0599 90.4676C23.3691 90.4676 23.6753 90.4067 23.961 90.2883C24.2467 90.17 24.5063 89.9965 24.725 89.7779C24.9436 89.5592 25.1171 89.2996 25.2354 89.0139C25.3537 88.7282 25.4146 88.422 25.4146 88.1128C25.4146 87.8036 25.3537 87.4974 25.2354 87.2117C25.1171 86.926 24.9436 86.6664 24.725 86.4478L10.8487 72.5715C10.6302 72.3527 10.3706 72.179 10.0849 72.0606C9.79923 71.9421 9.49297 71.8811 9.18368 71.8811C8.87438 71.8811 8.56812 71.9421 8.28241 72.0606C7.9967 72.179 7.73716 72.3527 7.51862 72.5715Z" fill="url(#paint17_linear_1_93)"/>
<path d="M24.7248 93.7614C26.9263 93.7614 28.7109 91.9768 28.7109 89.7753C28.7109 87.5738 26.9263 85.7892 24.7248 85.7892C22.5234 85.7892 20.7387 87.5738 20.7387 89.7753C20.7387 91.9768 22.5234 93.7614 24.7248 93.7614Z" fill="url(#paint18_linear_1_93)"/>
<path d="M7.51858 76.5557C9.72005 76.5557 11.5047 74.7711 11.5047 72.5696C11.5047 70.3681 9.72005 68.5835 7.51858 68.5835C5.31711 68.5835 3.53247 70.3681 3.53247 72.5696C3.53247 74.7711 5.31711 76.5557 7.51858 76.5557Z" fill="url(#paint19_linear_1_93)"/>
<path d="M24.7249 92.0531C25.9828 92.0531 27.0026 91.0333 27.0026 89.7753C27.0026 88.5174 25.9828 87.4976 24.7249 87.4976C23.4669 87.4976 22.4471 88.5174 22.4471 89.7753C22.4471 91.0333 23.4669 92.0531 24.7249 92.0531Z" fill="url(#paint20_linear_1_93)"/>
<path d="M7.51862 74.8474C8.7766 74.8474 9.7964 73.8276 9.7964 72.5696C9.7964 71.3117 8.7766 70.2919 7.51862 70.2919C6.26064 70.2919 5.24084 71.3117 5.24084 72.5696C5.24084 73.8276 6.26064 74.8474 7.51862 74.8474Z" fill="url(#paint21_linear_1_93)"/>
<path d="M-2.22345 88.5569C-2.38475 88.7181 -2.51271 88.9095 -2.60001 89.1201C-2.6873 89.3308 -2.73224 89.5566 -2.73224 89.7846C-2.73224 90.0126 -2.6873 90.2384 -2.60001 90.4491C-2.51271 90.6597 -2.38475 90.8511 -2.22345 91.0123L5.6941 98.9276C5.85533 99.0888 6.04673 99.2167 6.25739 99.304C6.46804 99.3912 6.69382 99.4361 6.92182 99.4361C7.14983 99.4361 7.37561 99.3912 7.58626 99.304C7.79692 99.2167 7.98832 99.0888 8.14955 98.9276C8.31077 98.7664 8.43867 98.575 8.52592 98.3643C8.61318 98.1537 8.65809 97.9279 8.65809 97.6999C8.65809 97.4719 8.61318 97.2461 8.52592 97.0354C8.43867 96.8248 8.31077 96.6334 8.14955 96.4722L0.231991 88.5569C0.0708041 88.3956 -0.120587 88.2676 -0.331245 88.1803C-0.541904 88.093 -0.7677 88.0481 -0.995731 88.0481C-1.22376 88.0481 -1.44956 88.093 -1.66022 88.1803C-1.87087 88.2676 -2.06227 88.3956 -2.22345 88.5569Z" fill="url(#paint22_linear_1_93)"/>
</g>
</g>
<defs>
<linearGradient id="paint0_linear_1_93" x1="5.68107e-07" y1="47" x2="122" y2="47" gradientUnits="userSpaceOnUse">
<stop stop-color="#0C65C9"/>
<stop offset="1" stop-color="#58A4EA"/>
</linearGradient>
<linearGradient id="paint1_linear_1_93" x1="55.5933" y1="26.0044" x2="-0.531116" y2="87.7778" gradientUnits="userSpaceOnUse">
<stop stop-color="#9C9FFA"/>
<stop offset="1" stop-color="#5A49C7"/>
</linearGradient>
<linearGradient id="paint2_linear_1_93" x1="50.208" y1="26.0044" x2="-6.17456" y2="82.521" gradientUnits="userSpaceOnUse">
<stop stop-color="#9C9FFA"/>
<stop offset="1" stop-color="#5A49C7"/>
</linearGradient>
<linearGradient id="paint3_linear_1_93" x1="69.1822" y1="78.3661" x2="50.3806" y2="99.058" gradientUnits="userSpaceOnUse">
<stop stop-color="#9C9FFA"/>
<stop offset="1" stop-color="#5A49C7"/>
</linearGradient>
<linearGradient id="paint4_linear_1_93" x1="69.1822" y1="78.6871" x2="50.7363" y2="99.342" gradientUnits="userSpaceOnUse">
<stop stop-color="#9C9FFA"/>
<stop offset="1" stop-color="#5A49C7"/>
</linearGradient>
<linearGradient id="paint5_linear_1_93" x1="74.3199" y1="91.5882" x2="63.2955" y2="103.722" gradientUnits="userSpaceOnUse">
<stop stop-color="#9C9FFA"/>
<stop offset="1" stop-color="#5A49C7"/>
</linearGradient>
<linearGradient id="paint6_linear_1_93" x1="60.1628" y1="72.4653" x2="43.8067" y2="90.4676" gradientUnits="userSpaceOnUse">
<stop stop-color="#9C9FFA"/>
<stop offset="1" stop-color="#5A49C7"/>
</linearGradient>
<linearGradient id="paint7_linear_1_93" x1="46.8285" y1="86.0397" x2="39.813" y2="93.7614" gradientUnits="userSpaceOnUse">
<stop stop-color="#9C9FFA"/>
<stop offset="1" stop-color="#5A49C7"/>
</linearGradient>
<linearGradient id="paint8_linear_1_93" x1="64.0347" y1="68.8341" x2="57.0192" y2="76.5557" gradientUnits="userSpaceOnUse">
<stop stop-color="#9C9FFA"/>
<stop offset="1" stop-color="#5A49C7"/>
</linearGradient>
<linearGradient id="paint9_linear_1_93" x1="45.3056" y1="87.6407" x2="41.2967" y2="92.0531" gradientUnits="userSpaceOnUse">
<stop stop-color="#9C9FFA"/>
<stop offset="1" stop-color="#5A49C7"/>
</linearGradient>
<linearGradient id="paint10_linear_1_93" x1="62.5119" y1="70.435" x2="58.503" y2="74.8474" gradientUnits="userSpaceOnUse">
<stop stop-color="#9C9FFA"/>
<stop offset="1" stop-color="#5A49C7"/>
</linearGradient>
<linearGradient id="paint11_linear_1_93" x1="70.1139" y1="88.406" x2="60.0926" y2="99.4381" gradientUnits="userSpaceOnUse">
<stop stop-color="#9C9FFA"/>
<stop offset="1" stop-color="#5A49C7"/>
</linearGradient>
<linearGradient id="paint12_linear_1_93" x1="69.26" y1="26.0044" x2="13.1356" y2="87.7778" gradientUnits="userSpaceOnUse">
<stop stop-color="#9C9FFA"/>
<stop offset="1" stop-color="#5A49C7"/>
</linearGradient>
<linearGradient id="paint13_linear_1_93" x1="69.5692" y1="26.0044" x2="13.1866" y2="82.521" gradientUnits="userSpaceOnUse">
<stop stop-color="#9C9FFA"/>
<stop offset="1" stop-color="#5A49C7"/>
</linearGradient>
<linearGradient id="paint14_linear_1_93" x1="17.8594" y1="78.3661" x2="-0.942342" y2="99.056" gradientUnits="userSpaceOnUse">
<stop stop-color="#9C9FFA"/>
<stop offset="1" stop-color="#5A49C7"/>
</linearGradient>
<linearGradient id="paint15_linear_1_93" x1="17.8596" y1="78.6871" x2="-0.586462" y2="99.34" gradientUnits="userSpaceOnUse">
<stop stop-color="#9C9FFA"/>
<stop offset="1" stop-color="#5A49C7"/>
</linearGradient>
<linearGradient id="paint16_linear_1_93" x1="4.8477" y1="91.5882" x2="-6.17675" y2="103.722" gradientUnits="userSpaceOnUse">
<stop stop-color="#9C9FFA"/>
<stop offset="1" stop-color="#5A49C7"/>
</linearGradient>
<linearGradient id="paint17_linear_1_93" x1="24.4057" y1="72.4653" x2="8.04958" y2="90.4676" gradientUnits="userSpaceOnUse">
<stop stop-color="#9C9FFA"/>
<stop offset="1" stop-color="#5A49C7"/>
</linearGradient>
<linearGradient id="paint18_linear_1_93" x1="28.2782" y1="86.0397" x2="21.2626" y2="93.7614" gradientUnits="userSpaceOnUse">
<stop stop-color="#9C9FFA"/>
<stop offset="1" stop-color="#5A49C7"/>
</linearGradient>
<linearGradient id="paint19_linear_1_93" x1="11.0719" y1="68.8341" x2="4.05636" y2="76.5557" gradientUnits="userSpaceOnUse">
<stop stop-color="#9C9FFA"/>
<stop offset="1" stop-color="#5A49C7"/>
</linearGradient>
<linearGradient id="paint20_linear_1_93" x1="26.7553" y1="87.6407" x2="22.7464" y2="92.0531" gradientUnits="userSpaceOnUse">
<stop stop-color="#9C9FFA"/>
<stop offset="1" stop-color="#5A49C7"/>
</linearGradient>
<linearGradient id="paint21_linear_1_93" x1="9.5491" y1="70.435" x2="5.54021" y2="74.8474" gradientUnits="userSpaceOnUse">
<stop stop-color="#9C9FFA"/>
<stop offset="1" stop-color="#5A49C7"/>
</linearGradient>
<linearGradient id="paint22_linear_1_93" x1="8.03975" y1="88.406" x2="-1.98153" y2="99.4381" gradientUnits="userSpaceOnUse">
<stop stop-color="#9C9FFA"/>
<stop offset="1" stop-color="#5A49C7"/>
</linearGradient>
</defs>
</svg>
