<svg width="91" height="83" viewBox="0 0 79 68" fill="none" xmlns="http://www.w3.org/2000/svg">
<path d="M36.2237 19.1343L38.2669 25.3615C40.2013 23.7315 42.4463 22.5035 44.8687 21.7506C47.5717 20.8785 49.9586 20.3879 52.1165 20.1063L50.1465 14.0972C47.6898 14.4479 45.2681 15.0071 42.9079 15.7686C40.5161 16.5373 38.2606 17.673 36.2237 19.1343ZM40.4706 32.102L42.5139 38.3292C44.4482 36.6991 46.6933 35.4712 49.1157 34.7182C51.8187 33.8461 54.2056 33.3556 56.3634 33.074L54.3934 27.0648C51.9368 27.4156 49.515 27.9748 47.1548 28.7363C44.7618 29.5021 42.5059 30.638 40.4706 32.102ZM44.7221 45.0651L46.7654 51.2923C48.6997 49.6622 50.9448 48.4343 53.3672 47.6813C56.0702 46.8093 58.4571 46.3187 60.6149 46.0371L58.6449 40.0279C56.1883 40.3787 53.7665 40.9379 51.4064 41.6994C49.0134 42.4652 46.7575 43.6011 44.7221 45.0651ZM12.3684 54.9305L14.3384 60.9397C16.5217 59.7689 18.81 58.8018 21.1738 58.0509C23.5803 57.2505 26.1243 56.9369 28.6552 57.1289L26.6119 50.9017C24.0992 50.9052 21.6026 51.2991 19.213 52.069C16.8526 52.8257 14.5626 53.7831 12.3684 54.9305ZM3.86992 28.9997L5.83991 35.0089C8.02411 33.84 10.3123 32.873 12.6753 32.1202C15.0818 31.3197 17.6258 31.0062 20.1567 31.1981L18.118 24.9664C15.6036 24.9719 13.1056 25.3673 10.7145 26.1382C8.35415 26.895 6.06411 27.8524 3.86992 28.9997ZM8.11686 41.9674L10.0869 47.9766C12.2701 46.8058 14.5585 45.8387 16.9223 45.0878C19.3288 44.2874 21.8728 43.9738 24.4037 44.1658L22.365 37.934C19.8523 37.9376 17.3557 38.3315 14.966 39.1013C12.604 39.8595 10.3125 40.8184 8.11686 41.9674ZM38.3723 1.93799C32.3533 3.84451 27.3303 8.01859 24.3854 13.5612C18.7181 10.7943 12.1812 10.3457 6.18351 12.3121C-5.37532 16.0366 -12 24.2442 -12 24.2442L6.76077 81.4154C7.33802 83.1732 9.72034 83.582 10.7832 82.0649C13.0693 78.7992 17.472 74.5341 25.7048 71.8816C33.5756 69.3471 39.3069 72.1268 42.4498 74.5069C43.6959 75.4517 45.4826 74.7794 45.9408 73.2896C47.0953 69.5333 50.0961 64.0238 57.8982 61.512C66.1401 58.8549 72.2333 59.7451 76.0221 61.0578C77.786 61.6664 79.4582 59.9586 78.8855 58.2008L60.1568 0.997776C60.1568 0.997776 49.9312 -1.78198 38.3723 1.93799ZM37.8546 64.8277C33.1515 63.4243 28.1261 63.4941 23.4645 65.0276C17.7332 66.8717 13.7199 69.338 11.0993 71.4047L-3.76725 26.0655C-2.12712 24.4395 1.67085 21.3327 8.42839 19.157C14.7919 17.1086 20.0101 18.8618 23.4508 20.8739L37.8546 64.8277ZM69.4387 52.614C66.0897 52.4687 61.38 52.8139 55.6487 54.6625C50.9682 56.1369 46.861 59.0081 43.8883 62.8837L29.4844 18.9299C31.0696 15.2963 34.2491 10.8359 40.6172 8.78745C47.3702 6.61179 52.286 6.91157 54.5767 7.2704L69.4387 52.614Z" fill="url(#paint0_linear_1_149)"/>
<defs>
<linearGradient id="paint0_linear_1_149" x1="108.5" y1="108" x2="87.2587" y2="-14.5516" gradientUnits="userSpaceOnUse">
<stop stop-color="#8C8EC3"/>
<stop offset="1" stop-color="#5458C5"/>
</linearGradient>
</defs>
</svg>
