<svg width="169" height="122" viewBox="0 0 169 122" fill="none" xmlns="http://www.w3.org/2000/svg">
<mask id="mask0_1_57" style="mask-type:alpha" maskUnits="userSpaceOnUse" x="0" y="0" width="169" height="122">
<rect width="169" height="122" rx="20" fill="url(#paint0_linear_1_57)"/>
</mask>
<g mask="url(#mask0_1_57)">
<path d="M127.278 93.1835C127.587 93.6889 128.268 93.6328 128.516 93.4643L132.973 91.1618C133.406 90.9372 133.53 90.4317 133.282 90.0386L130.744 85.9952C130.497 85.6021 129.94 85.4898 129.506 85.7144C129.073 85.939 128.949 86.4445 129.197 86.8376L130.682 89.1401L125.049 87.7923C125.111 87.5115 125.173 87.1745 125.173 86.8937C126.535 78.9754 127.773 71.4501 123.502 70.3831C119.231 69.3161 116.197 76.3921 112.978 83.9173C112.855 84.1981 112.731 84.4789 112.607 84.7597L104.065 82.6818C104.127 82.401 104.188 82.0641 104.188 81.7833C105.426 74.4265 106.603 67.4067 103.322 65.6096L105.365 58.7021L106.85 61.0046C107.036 61.2854 107.531 61.5662 108.088 61.2854C108.522 61.0608 108.645 60.5553 108.398 60.1622L105.86 56.1188C105.612 55.7257 105.055 55.6134 104.622 55.838L100.165 58.1405C99.7315 58.3652 99.6077 58.8706 99.8553 59.2637C100.103 59.6568 100.66 59.7691 101.093 59.5445L103.631 58.1967L101.589 65.1042C97.7506 65.2165 94.965 71.7871 91.9318 78.6946C91.808 78.9754 91.6842 79.2562 91.5604 79.537L83.0179 77.4591C83.0798 77.1783 83.1418 76.8414 83.1418 76.5606C84.5036 68.6422 85.7416 61.1169 81.4704 60.0499C77.1992 58.9829 74.166 66.0589 70.9471 73.5842C70.8233 73.8649 70.6995 74.1457 70.5757 74.4265L62.776 72.5171C62.2808 72.4048 61.7856 72.6856 61.6618 73.0787C61.538 73.528 61.8475 73.9772 62.2808 74.0896L69.8328 75.9428C67.5425 81.2217 64.8188 86.6129 62.4665 86.0514C61.1666 85.7144 60.8571 83.5804 60.8571 81.8395C60.8571 81.3902 60.4856 80.9971 59.9285 80.9971C59.4333 80.9971 59 81.3902 59 81.8395C59 83.0749 59 86.9499 61.9713 87.6238C65.8092 88.5785 68.6567 82.9065 71.5661 76.3359L80.9133 78.5823C79.799 85.6021 79.1181 91.7796 83.0179 92.6781C86.8559 93.6328 89.7034 87.9608 92.6127 81.3902L96.3888 82.2887L89.1462 106.886C89.0224 107.335 89.3319 107.785 89.7652 107.897C90.2605 108.009 90.7557 107.729 90.8795 107.335L98.122 82.738L101.898 83.6365C100.784 90.6564 100.103 96.8338 104.003 97.7324C107.841 98.6871 110.688 93.015 113.598 86.4445L122.945 88.6908C121.83 95.7106 121.15 101.888 125.049 102.787C128.021 103.517 130.125 100.203 130.806 99.0802C131.054 98.6871 130.93 98.1816 130.497 97.957C130.063 97.7324 129.506 97.8447 129.259 98.2378C128.33 99.7541 126.906 101.495 125.545 101.158C123.192 100.596 123.873 94.6998 124.74 89.0278L130.187 90.3756L127.649 91.7234C127.154 92.285 127.03 92.7904 127.278 93.1835ZM72.247 74.9319C72.3708 74.7073 72.4327 74.4827 72.5565 74.258C75.0945 68.3614 78.2515 61.0608 80.9752 61.7347C83.6989 62.4086 82.3989 70.1585 81.3466 76.3921C81.2847 76.6167 81.2847 76.8975 81.2228 77.1221L72.247 74.9319ZM83.4513 91.2741C81.099 90.7125 81.7799 84.8159 82.6465 79.1438L90.8176 81.1094C88.5272 86.4445 85.8035 91.8357 83.4513 91.2741ZM96.884 80.9409L93.2937 80.0424C93.4175 79.8178 93.4794 79.5931 93.6032 79.3685C95.8316 74.2019 98.5553 67.8559 101.031 66.9574L96.884 80.9409ZM98.6172 81.334L102.765 67.3505C104.374 69.2599 103.26 75.999 102.331 81.5025C102.269 81.7271 102.269 82.0079 102.208 82.2326L98.6172 81.334ZM104.498 96.3846C102.146 95.823 102.827 89.9263 103.693 84.2543L111.802 86.276C109.512 91.5549 106.85 96.9461 104.498 96.3846ZM114.278 85.1528C114.402 84.9282 114.464 84.7036 114.588 84.4789C117.126 78.5823 120.283 71.2816 123.007 71.9555C125.73 72.6294 124.43 80.3793 123.378 86.6129C123.316 86.8376 123.316 87.1184 123.254 87.343L114.278 85.1528Z" fill="url(#paint1_linear_1_57)"/>
<path d="M127.278 55.8943C127.773 56.2874 128.33 56.0628 128.578 55.8381L130.063 54.3218L130.497 56.2874C130.559 56.6243 130.93 57.0175 131.549 56.9052C132.044 56.849 132.354 56.3997 132.23 55.9505L131.487 52.7494L133.901 50.2784C134.211 49.9415 134.211 49.436 133.839 49.0991C133.468 48.8183 132.911 48.8183 132.54 49.1553L131.054 50.6715L130.621 48.706C130.497 48.2567 130.063 47.9759 129.568 48.0882C129.073 48.2006 128.763 48.5937 128.887 49.0429L129.63 52.244L127.216 54.715C126.845 55.0519 126.906 55.6135 127.278 55.8943Z" fill="url(#paint2_linear_1_57)"/>
<path d="M82.5847 43.4271C82.0895 43.3147 81.5943 43.5955 81.4705 43.9886C81.3467 44.4379 81.6562 44.8872 82.0895 44.9995L85.6179 45.8419C86.1132 45.9542 86.6084 45.6734 86.7322 45.2803L88.5892 38.9344C88.713 38.4851 88.4035 38.0358 87.9702 37.9235C87.475 37.8112 86.9798 38.092 86.856 38.4851L86.1751 40.8437L84.4418 40.3945L85.1227 38.0358C85.2465 37.5865 84.937 37.1373 84.5037 37.025C84.0085 36.9126 83.5133 37.1934 83.3895 37.5865L82.4609 40.7876C82.3371 41.2369 82.6466 41.6861 83.08 41.7984L85.6798 42.4162L85.1846 43.9886L82.5847 43.4271Z" fill="url(#paint3_linear_1_57)"/>
<path d="M108.521 44.6066C109.017 44.719 109.512 44.4382 109.636 44.0451C109.759 43.5958 109.45 43.1465 109.017 43.0342L105.488 42.1918C104.993 42.0795 104.498 42.3603 104.374 42.7534L102.517 49.0993C102.393 49.5486 102.703 49.9979 103.136 50.1102L106.664 50.9526C107.16 51.0649 107.655 50.7841 107.779 50.391C107.902 49.9417 107.593 49.4924 107.16 49.3801L104.56 48.7624L105.983 43.9889L108.521 44.6066Z" fill="url(#paint4_linear_1_57)"/>
<path d="M112.483 43.8759C111.988 43.7636 111.493 44.0444 111.369 44.4375L109.512 50.7834C109.388 51.2327 109.698 51.6819 110.131 51.7943L113.66 52.6366C114.155 52.749 114.65 52.4682 114.774 52.0751L116.631 45.7291C116.755 45.2799 116.445 44.8306 116.012 44.7183L112.483 43.8759ZM113.226 50.8396L111.493 50.3903L112.917 45.6168L114.65 46.0661L113.226 50.8396Z" fill="url(#paint5_linear_1_57)"/>
<path d="M122.511 48.0322C123.007 48.1445 123.502 47.8637 123.626 47.4706C123.749 47.0214 123.44 46.5721 123.007 46.4597L119.478 45.6174C118.983 45.505 118.488 45.7858 118.364 46.179L117.435 49.38C117.312 49.8293 117.621 50.2785 118.054 50.3908L120.654 51.0086L120.159 52.581L117.559 51.9633C117.064 51.851 116.569 52.1318 116.445 52.5249C116.321 52.9742 116.631 53.4234 117.064 53.5358L120.592 54.3781C121.088 54.4905 121.583 54.2097 121.707 53.8165L122.635 50.6155C122.759 50.1662 122.449 49.717 122.016 49.6046L119.416 48.9869L119.911 47.4144L122.511 48.0322Z" fill="url(#paint6_linear_1_57)"/>
<path d="M97.9982 42.0791L94.4698 41.2367C93.9746 41.1244 93.4793 41.4052 93.3555 41.7983C93.2317 42.2476 93.5412 42.6969 93.9746 42.8092L97.503 43.6516C97.9982 43.7639 98.4934 43.4831 98.6172 43.09C98.8029 42.6407 98.4934 42.1914 97.9982 42.0791Z" fill="url(#paint7_linear_1_57)"/>
<path d="M97.0696 45.2239L93.5412 44.3815C93.046 44.2692 92.5508 44.55 92.427 44.9431C92.3031 45.3924 92.6127 45.8416 93.046 45.954L96.5744 46.7963C97.0696 46.9087 97.5648 46.6279 97.6886 46.2348C97.8743 45.7855 97.5648 45.3362 97.0696 45.2239Z" fill="url(#paint8_linear_1_57)"/>
<path d="M35.5934 74L8.63042 76.1752C8.53979 76.1752 8.44916 76.2205 8.40384 76.2658L-15.659 88.6371C-15.8855 88.773 -16.0668 89.0902 -15.9762 89.4074L-15.2511 91.9451C-15.1605 92.3077 -14.798 92.4889 -14.4354 92.3983L-12.5322 91.8545L-3.24237 124.391C-3.15174 124.754 -2.78921 124.935 -2.42668 124.845L19.9141 118.455L20.3219 119.95L5.00514 132.412C4.73324 132.639 4.68793 133.047 4.91451 133.364C5.14109 133.636 5.54893 133.681 5.86615 133.455L18.0561 123.53L21.9986 125.751L22.6331 128.017C22.7237 128.379 23.0862 128.56 23.4488 128.47C23.8113 128.379 23.9925 128.017 23.9019 127.654L23.2675 125.388L25.488 121.446L41.0767 123.44C41.5298 123.485 41.8017 123.123 41.8017 122.851C41.8471 122.488 41.5752 122.171 41.2126 122.126L21.5908 119.633L21.183 118.138L43.5237 111.748C43.8863 111.658 44.0675 111.295 43.9769 110.933L34.6871 78.3957L36.5904 77.8519C36.9529 77.7612 37.1342 77.3987 37.0436 77.0362L36.3185 74.4985C36.2279 74.1813 35.9107 74 35.5934 74ZM21.4548 123.984L19.0984 122.669L20.6845 121.355L21.4548 123.984ZM9.53674 77.444L29.0226 75.8579L10.579 81.1146L9.53674 77.444ZM8.2679 77.8065L9.31016 81.4771L-9.13345 86.7338L8.2679 77.8065ZM24.0379 121.265L22.7237 123.621L21.9986 121.038L24.0379 121.265ZM42.4815 110.661L-2.15478 123.394L-11.2633 91.5373L33.373 78.8035L42.4815 110.661ZM35.5481 76.7643L-14.2088 90.9482L-14.5714 89.6793L35.1856 75.4954L35.5481 76.7643Z" fill="url(#paint9_linear_1_57)"/>
<path d="M18.8718 107.76L21.4095 107.035C22.4518 106.718 23.0862 105.631 22.769 104.588L20.5938 96.9299C20.2766 95.8876 19.189 95.2532 18.1468 95.5704L15.6091 96.2955C14.5668 96.6127 13.9324 97.7003 14.2496 98.7425L14.6121 100.011C14.7028 100.374 15.0653 100.555 15.4278 100.465C15.7903 100.374 15.9716 100.011 15.881 99.6489L15.5184 98.38C15.4278 98.0175 15.6091 97.655 15.9716 97.5643L18.5093 96.8393C18.8718 96.7486 19.2344 96.9299 19.325 97.2924L20.2313 100.465L18.328 101.008C17.9655 101.099 17.7842 101.461 17.8749 101.824C17.9655 102.187 18.328 102.368 18.6906 102.277L20.5938 101.733L21.5002 104.906C21.5908 105.268 21.4095 105.631 21.047 105.721L18.5093 106.446C18.1468 106.537 17.7842 106.356 17.6936 105.993L17.3311 104.724C17.2404 104.362 16.8779 104.18 16.5154 104.271C16.1529 104.362 15.9716 104.724 16.0622 105.087L16.4248 106.356C16.742 107.443 17.8296 108.032 18.8718 107.76Z" fill="url(#paint10_linear_1_57)"/>
<path d="M25.9865 108.485C26.349 108.395 26.5303 108.032 26.4396 107.67L25.7146 105.132C25.624 104.769 25.2614 104.588 24.8989 104.679C24.5364 104.769 24.3551 105.132 24.4457 105.495L25.1708 108.032C25.2614 108.349 25.6239 108.576 25.9865 108.485Z" fill="url(#paint11_linear_1_57)"/>
<path d="M27.7991 105.177C28.1616 105.087 28.3429 104.724 28.2523 104.362L25.352 94.1657C25.2614 93.8032 24.8989 93.6219 24.5363 93.7125C24.1738 93.8032 23.9926 94.1657 24.0832 94.5282L26.9834 104.724C27.1194 105.087 27.4819 105.313 27.7991 105.177Z" fill="url(#paint12_linear_1_57)"/>
<path d="M30.2008 99.0145L33.3729 98.1082L34.6418 102.594C34.7324 102.957 35.0949 103.138 35.4575 103.048C35.82 102.957 36.0013 102.594 35.9106 102.232L33.0104 92.0358C32.9198 91.6733 32.5572 91.492 32.1947 91.5827C31.8322 91.6733 31.6509 92.0358 31.7416 92.3983L33.0104 96.8846L29.8383 97.791C29.4758 97.8816 29.1132 97.7003 29.0226 97.3378L27.935 93.5312C27.8444 93.1687 27.4819 92.9875 27.1193 93.0781C26.7568 93.1687 26.5755 93.5312 26.6662 93.8938L27.7538 97.7003C28.0256 98.6973 29.1132 99.2864 30.2008 99.0145Z" fill="url(#paint13_linear_1_57)"/>
<path d="M7.31625 103.456C7.40688 103.818 7.76941 103.999 8.13194 103.909L13.2526 102.459C13.6152 102.368 13.7964 102.005 13.7058 101.643C13.6152 101.28 13.2526 101.099 12.8901 101.19L7.76941 102.64C7.40688 102.73 7.22562 103.093 7.31625 103.456Z" fill="url(#paint14_linear_1_57)"/>
<path d="M13.6151 103.727L8.49444 105.177C8.13192 105.268 7.95065 105.63 8.04128 105.993C8.13192 106.356 8.49444 106.537 8.85697 106.446L13.9777 104.996C14.3402 104.905 14.5215 104.543 14.4308 104.18C14.3402 103.818 13.9777 103.637 13.6151 103.727Z" fill="url(#paint15_linear_1_57)"/>
<path d="M0.654771 111.567L-0.614079 111.929C-0.976607 112.02 -1.15787 112.383 -1.06724 112.745C-0.976607 113.108 -0.614077 113.289 -0.251549 113.198L1.0173 112.836C2.05957 112.519 2.69399 111.431 2.37678 110.389L0.0203428 102.096L3.82689 101.008L5.82079 108.032C6.31927 109.8 8.17723 110.797 9.89923 110.298C10.2618 110.207 10.443 109.845 10.3524 109.482C10.2618 109.12 9.89923 108.939 9.5367 109.029C8.49444 109.346 7.36154 108.712 7.08964 107.67L5.09574 100.646L6.99901 100.102C7.36154 100.011 7.5428 99.6488 7.45217 99.2863C7.36154 98.9238 6.99901 98.7425 6.63648 98.8332L-2.29077 101.371C-3.33304 101.688 -3.96746 102.776 -3.65025 103.818C-3.55962 104.18 -3.19709 104.362 -2.83456 104.271C-2.47203 104.18 -2.29077 103.818 -2.3814 103.455C-2.47203 103.093 -2.29077 102.73 -1.92824 102.64L-1.29382 102.458L1.06261 110.751C1.24388 111.114 1.0173 111.476 0.654771 111.567Z" fill="url(#paint16_linear_1_57)"/>
</g>
<defs>
<linearGradient id="paint0_linear_1_57" x1="157.411" y1="118.166" x2="58.7568" y2="-28.8008" gradientUnits="userSpaceOnUse">
<stop stop-color="#46AEAC"/>
<stop offset="1" stop-color="#7AD5D4"/>
</linearGradient>
<linearGradient id="paint1_linear_1_57" x1="64.9427" y1="107.611" x2="89.5615" y2="57.533" gradientUnits="userSpaceOnUse">
<stop stop-color="#46AEAC"/>
<stop offset="1" stop-color="#7AD5D4"/>
</linearGradient>
<linearGradient id="paint2_linear_1_57" x1="127.538" y1="56.872" x2="132.763" y2="50.8477" gradientUnits="userSpaceOnUse">
<stop stop-color="#46AEAC"/>
<stop offset="1" stop-color="#7AD5D4"/>
</linearGradient>
<linearGradient id="paint3_linear_1_57" x1="82.0159" y1="45.8141" x2="87.2432" y2="39.7792" gradientUnits="userSpaceOnUse">
<stop stop-color="#46AEAC"/>
<stop offset="1" stop-color="#7AD5D4"/>
</linearGradient>
<linearGradient id="paint4_linear_1_57" x1="103.062" y1="50.9251" x2="108.252" y2="44.8958" gradientUnits="userSpaceOnUse">
<stop stop-color="#46AEAC"/>
<stop offset="1" stop-color="#7AD5D4"/>
</linearGradient>
<linearGradient id="paint5_linear_1_57" x1="110.058" y1="52.6092" x2="115.247" y2="46.5799" gradientUnits="userSpaceOnUse">
<stop stop-color="#46AEAC"/>
<stop offset="1" stop-color="#7AD5D4"/>
</linearGradient>
<linearGradient id="paint6_linear_1_57" x1="116.995" y1="54.3507" x2="122.178" y2="48.2773" gradientUnits="userSpaceOnUse">
<stop stop-color="#46AEAC"/>
<stop offset="1" stop-color="#7AD5D4"/>
</linearGradient>
<linearGradient id="paint7_linear_1_57" x1="93.7548" y1="43.6619" x2="94.6141" y2="41.0035" gradientUnits="userSpaceOnUse">
<stop stop-color="#46AEAC"/>
<stop offset="1" stop-color="#7AD5D4"/>
</linearGradient>
<linearGradient id="paint8_linear_1_57" x1="92.8262" y1="46.8066" x2="93.6855" y2="44.1483" gradientUnits="userSpaceOnUse">
<stop stop-color="#46AEAC"/>
<stop offset="1" stop-color="#7AD5D4"/>
</linearGradient>
<linearGradient id="paint9_linear_1_57" x1="39.8857" y1="131.727" x2="-12.0248" y2="75.5265" gradientUnits="userSpaceOnUse">
<stop stop-color="#46AEAC"/>
<stop offset="1" stop-color="#7AD5D4"/>
</linearGradient>
<linearGradient id="paint10_linear_1_57" x1="22.2556" y1="107.439" x2="11.8807" y2="99.5861" gradientUnits="userSpaceOnUse">
<stop stop-color="#46AEAC"/>
<stop offset="1" stop-color="#7AD5D4"/>
</linearGradient>
<linearGradient id="paint11_linear_1_57" x1="26.3228" y1="108.385" x2="23.4289" y2="106.735" gradientUnits="userSpaceOnUse">
<stop stop-color="#46AEAC"/>
<stop offset="1" stop-color="#7AD5D4"/>
</linearGradient>
<linearGradient id="paint12_linear_1_57" x1="27.9863" y1="104.855" x2="21.1257" y2="102.157" gradientUnits="userSpaceOnUse">
<stop stop-color="#46AEAC"/>
<stop offset="1" stop-color="#7AD5D4"/>
</linearGradient>
<linearGradient id="paint13_linear_1_57" x1="35.2967" y1="102.709" x2="25.339" y2="94.066" gradientUnits="userSpaceOnUse">
<stop stop-color="#46AEAC"/>
<stop offset="1" stop-color="#7AD5D4"/>
</linearGradient>
<linearGradient id="paint14_linear_1_57" x1="13.2876" y1="103.845" x2="11.6228" y2="99.678" gradientUnits="userSpaceOnUse">
<stop stop-color="#46AEAC"/>
<stop offset="1" stop-color="#7AD5D4"/>
</linearGradient>
<linearGradient id="paint15_linear_1_57" x1="14.0126" y1="106.382" x2="12.3478" y2="102.215" gradientUnits="userSpaceOnUse">
<stop stop-color="#46AEAC"/>
<stop offset="1" stop-color="#7AD5D4"/>
</linearGradient>
<linearGradient id="paint16_linear_1_57" x1="9.4081" y1="112.769" x2="-3.16696" y2="99.5301" gradientUnits="userSpaceOnUse">
<stop stop-color="#46AEAC"/>
<stop offset="1" stop-color="#7AD5D4"/>
</linearGradient>
</defs>
</svg>
