<svg width="174" height="130" viewBox="0 0 174 130" fill="none" xmlns="http://www.w3.org/2000/svg">
<mask id="mask0_1_154" style="mask-type:alpha" maskUnits="userSpaceOnUse" x="0" y="0" width="174" height="122">
<rect x="174" width="122" height="174" rx="20" transform="rotate(90 174 0)" fill="url(#paint0_linear_1_154)"/>
</mask>
<g mask="url(#mask0_1_154)">
<path fill-rule="evenodd" clip-rule="evenodd" d="M23 -5.048C23 -6.904 22.6533 -8.36 21.96 -9.416C21.2667 -10.472 20.2853 -11 19.016 -11C17.736 -11 16.744 -10.472 16.04 -9.416C15.3467 -8.36 15 -6.904 15 -5.048C15 -3.192 15.3467 -1.736 16.04 -0.679999C16.744 0.376 17.736 0.904 19.016 0.904C20.2853 0.904 21.2667 0.376 21.96 -0.679999C22.6533 -1.736 23 -3.192 23 -5.048ZM21.032 -5.048C21.032 -4.57867 21.0053 -4.12533 20.952 -3.688C20.8987 -3.25067 20.8027 -2.792 20.664 -2.312C20.536 -1.832 20.328 -1.448 20.04 -1.16C19.7627 -0.872 19.4213 -0.728 19.016 -0.728C18.6107 -0.728 18.264 -0.872 17.976 -1.16C17.688 -1.448 17.4747 -1.82667 17.336 -2.296C17.1973 -2.776 17.1013 -3.24 17.048 -3.688C16.9947 -4.136 16.968 -4.58933 16.968 -5.048C16.968 -5.51733 16.9947 -5.97067 17.048 -6.408C17.1013 -6.856 17.1973 -7.32 17.336 -7.8C17.4747 -8.28 17.688 -8.664 17.976 -8.952C18.264 -9.25067 18.6107 -9.4 19.016 -9.4C19.4213 -9.4 19.7627 -9.25067 20.04 -8.952C20.328 -8.664 20.536 -8.28 20.664 -7.8C20.8027 -7.32 20.8987 -6.856 20.952 -6.408C21.0053 -5.97067 21.032 -5.51733 21.032 -5.048ZM75 -5.048C75 -6.904 74.6533 -8.36 73.96 -9.416C73.2667 -10.472 72.2853 -11 71.016 -11C69.736 -11 68.744 -10.472 68.04 -9.416C67.3467 -8.36 67 -6.904 67 -5.048C67 -3.192 67.3467 -1.736 68.04 -0.679999C68.744 0.376 69.736 0.904 71.016 0.904C72.2853 0.904 73.2667 0.376 73.96 -0.679999C74.6533 -1.736 75 -3.192 75 -5.048ZM73.032 -5.048C73.032 -4.57867 73.0053 -4.12533 72.952 -3.688C72.8987 -3.25067 72.8027 -2.792 72.664 -2.312C72.536 -1.832 72.328 -1.448 72.04 -1.16C71.7627 -0.872 71.4213 -0.728 71.016 -0.728C70.6107 -0.728 70.264 -0.872 69.976 -1.16C69.688 -1.448 69.4747 -1.82667 69.336 -2.296C69.1973 -2.776 69.1013 -3.24 69.048 -3.688C68.9947 -4.136 68.968 -4.58933 68.968 -5.048C68.968 -5.51733 68.9947 -5.97067 69.048 -6.408C69.1013 -6.856 69.1973 -7.32 69.336 -7.8C69.4747 -8.28 69.688 -8.664 69.976 -8.952C70.264 -9.25067 70.6107 -9.4 71.016 -9.4C71.4213 -9.4 71.7627 -9.25067 72.04 -8.952C72.328 -8.664 72.536 -8.28 72.664 -7.8C72.8027 -7.32 72.8987 -6.856 72.952 -6.408C73.0053 -5.97067 73.032 -5.51733 73.032 -5.048ZM48.96 -9.416C49.6533 -8.36 50 -6.904 50 -5.048C50 -3.192 49.6533 -1.736 48.96 -0.679999C48.2667 0.376 47.2853 0.904 46.016 0.904C44.736 0.904 43.744 0.376 43.04 -0.679999C42.3467 -1.736 42 -3.192 42 -5.048C42 -6.904 42.3467 -8.36 43.04 -9.416C43.744 -10.472 44.736 -11 46.016 -11C47.2853 -11 48.2667 -10.472 48.96 -9.416ZM47.952 -3.688C48.0053 -4.12533 48.032 -4.57867 48.032 -5.048C48.032 -5.51733 48.0053 -5.97067 47.952 -6.408C47.8987 -6.856 47.8027 -7.32 47.664 -7.8C47.536 -8.28 47.328 -8.664 47.04 -8.952C46.7627 -9.25067 46.4213 -9.4 46.016 -9.4C45.6107 -9.4 45.264 -9.25067 44.976 -8.952C44.688 -8.664 44.4747 -8.28 44.336 -7.8C44.1973 -7.32 44.1013 -6.856 44.048 -6.408C43.9947 -5.97067 43.968 -5.51733 43.968 -5.048C43.968 -4.58933 43.9947 -4.136 44.048 -3.688C44.1013 -3.24 44.1973 -2.776 44.336 -2.296C44.4747 -1.82667 44.688 -1.448 44.976 -1.16C45.264 -0.872 45.6107 -0.728 46.016 -0.728C46.4213 -0.728 46.7627 -0.872 47.04 -1.16C47.328 -1.448 47.536 -1.832 47.664 -2.312C47.8027 -2.792 47.8987 -3.25067 47.952 -3.688ZM23 99.952C23 98.096 22.6533 96.64 21.96 95.584C21.2667 94.528 20.2853 94 19.016 94C17.736 94 16.744 94.528 16.04 95.584C15.3467 96.64 15 98.096 15 99.952C15 101.808 15.3467 103.264 16.04 104.32C16.744 105.376 17.736 105.904 19.016 105.904C20.2853 105.904 21.2667 105.376 21.96 104.32C22.6533 103.264 23 101.808 23 99.952ZM21.032 99.952C21.032 100.421 21.0053 100.875 20.952 101.312C20.8987 101.749 20.8027 102.208 20.664 102.688C20.536 103.168 20.328 103.552 20.04 103.84C19.7627 104.128 19.4213 104.272 19.016 104.272C18.6107 104.272 18.264 104.128 17.976 103.84C17.688 103.552 17.4747 103.173 17.336 102.704C17.1973 102.224 17.1013 101.76 17.048 101.312C16.9947 100.864 16.968 100.411 16.968 99.952C16.968 99.4827 16.9947 99.0293 17.048 98.592C17.1013 98.144 17.1973 97.68 17.336 97.2C17.4747 96.72 17.688 96.336 17.976 96.048C18.264 95.7493 18.6107 95.6 19.016 95.6C19.4213 95.6 19.7627 95.7493 20.04 96.048C20.328 96.336 20.536 96.72 20.664 97.2C20.8027 97.68 20.8987 98.144 20.952 98.592C21.0053 99.0293 21.032 99.4827 21.032 99.952ZM73.96 95.584C74.6533 96.64 75 98.096 75 99.952C75 101.808 74.6533 103.264 73.96 104.32C73.2667 105.376 72.2853 105.904 71.016 105.904C69.736 105.904 68.744 105.376 68.04 104.32C67.3467 103.264 67 101.808 67 99.952C67 98.096 67.3467 96.64 68.04 95.584C68.744 94.528 69.736 94 71.016 94C72.2853 94 73.2667 94.528 73.96 95.584ZM72.952 101.312C73.0053 100.875 73.032 100.421 73.032 99.952C73.032 99.4827 73.0053 99.0293 72.952 98.592C72.8987 98.144 72.8027 97.68 72.664 97.2C72.536 96.72 72.328 96.336 72.04 96.048C71.7627 95.7493 71.4213 95.6 71.016 95.6C70.6107 95.6 70.264 95.7493 69.976 96.048C69.688 96.336 69.4747 96.72 69.336 97.2C69.1973 97.68 69.1013 98.144 69.048 98.592C68.9947 99.0293 68.968 99.4827 68.968 99.952C68.968 100.411 68.9947 100.864 69.048 101.312C69.1013 101.76 69.1973 102.224 69.336 102.704C69.4747 103.173 69.688 103.552 69.976 103.84C70.264 104.128 70.6107 104.272 71.016 104.272C71.4213 104.272 71.7627 104.128 72.04 103.84C72.328 103.552 72.536 103.168 72.664 102.688C72.8027 102.208 72.8987 101.749 72.952 101.312ZM23 168.952C23 167.096 22.6533 165.64 21.96 164.584C21.2667 163.528 20.2853 163 19.016 163C17.736 163 16.744 163.528 16.04 164.584C15.3467 165.64 15 167.096 15 168.952C15 170.808 15.3467 172.264 16.04 173.32C16.744 174.376 17.736 174.904 19.016 174.904C20.2853 174.904 21.2667 174.376 21.96 173.32C22.6533 172.264 23 170.808 23 168.952ZM21.032 168.952C21.032 169.421 21.0053 169.875 20.952 170.312C20.8987 170.749 20.8027 171.208 20.664 171.688C20.536 172.168 20.328 172.552 20.04 172.84C19.7627 173.128 19.4213 173.272 19.016 173.272C18.6107 173.272 18.264 173.128 17.976 172.84C17.688 172.552 17.4747 172.173 17.336 171.704C17.1973 171.224 17.1013 170.76 17.048 170.312C16.9947 169.864 16.968 169.411 16.968 168.952C16.968 168.483 16.9947 168.029 17.048 167.592C17.1013 167.144 17.1973 166.68 17.336 166.2C17.4747 165.72 17.688 165.336 17.976 165.048C18.264 164.749 18.6107 164.6 19.016 164.6C19.4213 164.6 19.7627 164.749 20.04 165.048C20.328 165.336 20.536 165.72 20.664 166.2C20.8027 166.68 20.8987 167.144 20.952 167.592C21.0053 168.029 21.032 168.483 21.032 168.952ZM73.96 164.584C74.6533 165.64 75 167.096 75 168.952C75 170.808 74.6533 172.264 73.96 173.32C73.2667 174.376 72.2853 174.904 71.016 174.904C69.736 174.904 68.744 174.376 68.04 173.32C67.3467 172.264 67 170.808 67 168.952C67 167.096 67.3467 165.64 68.04 164.584C68.744 163.528 69.736 163 71.016 163C72.2853 163 73.2667 163.528 73.96 164.584ZM72.952 170.312C73.0053 169.875 73.032 169.421 73.032 168.952C73.032 168.483 73.0053 168.029 72.952 167.592C72.8987 167.144 72.8027 166.68 72.664 166.2C72.536 165.72 72.328 165.336 72.04 165.048C71.7627 164.749 71.4213 164.6 71.016 164.6C70.6107 164.6 70.264 164.749 69.976 165.048C69.688 165.336 69.4747 165.72 69.336 166.2C69.1973 166.68 69.1013 167.144 69.048 167.592C68.9947 168.029 68.968 168.483 68.968 168.952C68.968 169.411 68.9947 169.864 69.048 170.312C69.1013 170.76 69.1973 171.224 69.336 171.704C69.4747 172.173 69.688 172.552 69.976 172.84C70.264 173.128 70.6107 173.272 71.016 173.272C71.4213 173.272 71.7627 173.128 72.04 172.84C72.328 172.552 72.536 172.168 72.664 171.688C72.8027 171.208 72.8987 170.749 72.952 170.312ZM50 168.952C50 167.096 49.6533 165.64 48.96 164.584C48.2667 163.528 47.2853 163 46.016 163C44.736 163 43.744 163.528 43.04 164.584C42.3467 165.64 42 167.096 42 168.952C42 170.808 42.3467 172.264 43.04 173.32C43.744 174.376 44.736 174.904 46.016 174.904C47.2853 174.904 48.2667 174.376 48.96 173.32C49.6533 172.264 50 170.808 50 168.952ZM48.032 168.952C48.032 169.421 48.0053 169.875 47.952 170.312C47.8987 170.749 47.8027 171.208 47.664 171.688C47.536 172.168 47.328 172.552 47.04 172.84C46.7627 173.128 46.4213 173.272 46.016 173.272C45.6107 173.272 45.264 173.128 44.976 172.84C44.688 172.552 44.4747 172.173 44.336 171.704C44.1973 171.224 44.1013 170.76 44.048 170.312C43.9947 169.864 43.968 169.411 43.968 168.952C43.968 168.483 43.9947 168.029 44.048 167.592C44.1013 167.144 44.1973 166.68 44.336 166.2C44.4747 165.72 44.688 165.336 44.976 165.048C45.264 164.749 45.6107 164.6 46.016 164.6C46.4213 164.6 46.7627 164.749 47.04 165.048C47.328 165.336 47.536 165.72 47.664 166.2C47.8027 166.68 47.8987 167.144 47.952 167.592C48.0053 168.029 48.032 168.483 48.032 168.952ZM21.96 25.584C22.6533 26.64 23 28.096 23 29.952C23 31.808 22.6533 33.264 21.96 34.32C21.2667 35.376 20.2853 35.904 19.016 35.904C17.736 35.904 16.744 35.376 16.04 34.32C15.3467 33.264 15 31.808 15 29.952C15 28.096 15.3467 26.64 16.04 25.584C16.744 24.528 17.736 24 19.016 24C20.2853 24 21.2667 24.528 21.96 25.584ZM20.952 31.312C21.0053 30.8747 21.032 30.4213 21.032 29.952C21.032 29.4827 21.0053 29.0293 20.952 28.592C20.8987 28.144 20.8027 27.68 20.664 27.2C20.536 26.72 20.328 26.336 20.04 26.048C19.7627 25.7493 19.4213 25.6 19.016 25.6C18.6107 25.6 18.264 25.7493 17.976 26.048C17.688 26.336 17.4747 26.72 17.336 27.2C17.1973 27.68 17.1013 28.144 17.048 28.592C16.9947 29.0293 16.968 29.4827 16.968 29.952C16.968 30.4107 16.9947 30.864 17.048 31.312C17.1013 31.76 17.1973 32.224 17.336 32.704C17.4747 33.1733 17.688 33.552 17.976 33.84C18.264 34.128 18.6107 34.272 19.016 34.272C19.4213 34.272 19.7627 34.128 20.04 33.84C20.328 33.552 20.536 33.168 20.664 32.688C20.8027 32.208 20.8987 31.7493 20.952 31.312ZM75 29.952C75 28.096 74.6533 26.64 73.96 25.584C73.2667 24.528 72.2853 24 71.016 24C69.736 24 68.744 24.528 68.04 25.584C67.3467 26.64 67 28.096 67 29.952C67 31.808 67.3467 33.264 68.04 34.32C68.744 35.376 69.736 35.904 71.016 35.904C72.2853 35.904 73.2667 35.376 73.96 34.32C74.6533 33.264 75 31.808 75 29.952ZM73.032 29.952C73.032 30.4213 73.0053 30.8747 72.952 31.312C72.8987 31.7493 72.8027 32.208 72.664 32.688C72.536 33.168 72.328 33.552 72.04 33.84C71.7627 34.128 71.4213 34.272 71.016 34.272C70.6107 34.272 70.264 34.128 69.976 33.84C69.688 33.552 69.4747 33.1733 69.336 32.704C69.1973 32.224 69.1013 31.76 69.048 31.312C68.9947 30.864 68.968 30.4107 68.968 29.952C68.968 29.4827 68.9947 29.0293 69.048 28.592C69.1013 28.144 69.1973 27.68 69.336 27.2C69.4747 26.72 69.688 26.336 69.976 26.048C70.264 25.7493 70.6107 25.6 71.016 25.6C71.4213 25.6 71.7627 25.7493 72.04 26.048C72.328 26.336 72.536 26.72 72.664 27.2C72.8027 27.68 72.8987 28.144 72.952 28.592C73.0053 29.0293 73.032 29.4827 73.032 29.952ZM48.96 25.584C49.6533 26.64 50 28.096 50 29.952C50 31.808 49.6533 33.264 48.96 34.32C48.2667 35.376 47.2853 35.904 46.016 35.904C44.736 35.904 43.744 35.376 43.04 34.32C42.3467 33.264 42 31.808 42 29.952C42 28.096 42.3467 26.64 43.04 25.584C43.744 24.528 44.736 24 46.016 24C47.2853 24 48.2667 24.528 48.96 25.584ZM47.952 31.312C48.0053 30.8747 48.032 30.4213 48.032 29.952C48.032 29.4827 48.0053 29.0293 47.952 28.592C47.8987 28.144 47.8027 27.68 47.664 27.2C47.536 26.72 47.328 26.336 47.04 26.048C46.7627 25.7493 46.4213 25.6 46.016 25.6C45.6107 25.6 45.264 25.7493 44.976 26.048C44.688 26.336 44.4747 26.72 44.336 27.2C44.1973 27.68 44.1013 28.144 44.048 28.592C43.9947 29.0293 43.968 29.4827 43.968 29.952C43.968 30.4107 43.9947 30.864 44.048 31.312C44.1013 31.76 44.1973 32.224 44.336 32.704C44.4747 33.1733 44.688 33.552 44.976 33.84C45.264 34.128 45.6107 34.272 46.016 34.272C46.4213 34.272 46.7627 34.128 47.04 33.84C47.328 33.552 47.536 33.168 47.664 32.688C47.8027 32.208 47.8987 31.7493 47.952 31.312ZM36 11.952C36 10.096 35.6533 8.64 34.96 7.584C34.2667 6.528 33.2853 6 32.016 6C30.736 6 29.744 6.528 29.04 7.584C28.3467 8.64 28 10.096 28 11.952C28 13.808 28.3467 15.264 29.04 16.32C29.744 17.376 30.736 17.904 32.016 17.904C33.2853 17.904 34.2667 17.376 34.96 16.32C35.6533 15.264 36 13.808 36 11.952ZM34.032 11.952C34.032 12.4213 34.0053 12.8747 33.952 13.312C33.8987 13.7493 33.8027 14.208 33.664 14.688C33.536 15.168 33.328 15.552 33.04 15.84C32.7627 16.128 32.4213 16.272 32.016 16.272C31.6107 16.272 31.264 16.128 30.976 15.84C30.688 15.552 30.4747 15.1733 30.336 14.704C30.1973 14.224 30.1013 13.76 30.048 13.312C29.9947 12.864 29.968 12.4107 29.968 11.952C29.968 11.4827 29.9947 11.0293 30.048 10.592C30.1013 10.144 30.1973 9.68 30.336 9.2C30.4747 8.72 30.688 8.336 30.976 8.048C31.264 7.74933 31.6107 7.6 32.016 7.6C32.4213 7.6 32.7627 7.74933 33.04 8.048C33.328 8.336 33.536 8.72 33.664 9.2C33.8027 9.68 33.8987 10.144 33.952 10.592C34.0053 11.0293 34.032 11.4827 34.032 11.952ZM86.96 7.584C87.6533 8.64 88 10.096 88 11.952C88 13.808 87.6533 15.264 86.96 16.32C86.2667 17.376 85.2853 17.904 84.016 17.904C82.736 17.904 81.744 17.376 81.04 16.32C80.3467 15.264 80 13.808 80 11.952C80 10.096 80.3467 8.64 81.04 7.584C81.744 6.528 82.736 6 84.016 6C85.2853 6 86.2667 6.528 86.96 7.584ZM85.952 13.312C86.0053 12.8747 86.032 12.4213 86.032 11.952C86.032 11.4827 86.0053 11.0293 85.952 10.592C85.8987 10.144 85.8027 9.68 85.664 9.2C85.536 8.72 85.328 8.336 85.04 8.048C84.7627 7.74933 84.4213 7.6 84.016 7.6C83.6107 7.6 83.264 7.74933 82.976 8.048C82.688 8.336 82.4747 8.72 82.336 9.2C82.1973 9.68 82.1013 10.144 82.048 10.592C81.9947 11.0293 81.968 11.4827 81.968 11.952C81.968 12.4107 81.9947 12.864 82.048 13.312C82.1013 13.76 82.1973 14.224 82.336 14.704C82.4747 15.1733 82.688 15.552 82.976 15.84C83.264 16.128 83.6107 16.272 84.016 16.272C84.4213 16.272 84.7627 16.128 85.04 15.84C85.328 15.552 85.536 15.168 85.664 14.688C85.8027 14.208 85.8987 13.7493 85.952 13.312ZM63 11.952C63 10.096 62.6533 8.64 61.96 7.584C61.2667 6.528 60.2853 6 59.016 6C57.736 6 56.744 6.528 56.04 7.584C55.3467 8.64 55 10.096 55 11.952C55 13.808 55.3467 15.264 56.04 16.32C56.744 17.376 57.736 17.904 59.016 17.904C60.2853 17.904 61.2667 17.376 61.96 16.32C62.6533 15.264 63 13.808 63 11.952ZM61.032 11.952C61.032 12.4213 61.0053 12.8747 60.952 13.312C60.8987 13.7493 60.8027 14.208 60.664 14.688C60.536 15.168 60.328 15.552 60.04 15.84C59.7627 16.128 59.4213 16.272 59.016 16.272C58.6107 16.272 58.264 16.128 57.976 15.84C57.688 15.552 57.4747 15.1733 57.336 14.704C57.1973 14.224 57.1013 13.76 57.048 13.312C56.9947 12.864 56.968 12.4107 56.968 11.952C56.968 11.4827 56.9947 11.0293 57.048 10.592C57.1013 10.144 57.1973 9.68 57.336 9.2C57.4747 8.72 57.688 8.336 57.976 8.048C58.264 7.74933 58.6107 7.6 59.016 7.6C59.4213 7.6 59.7627 7.74933 60.04 8.048C60.328 8.336 60.536 8.72 60.664 9.2C60.8027 9.68 60.8987 10.144 60.952 10.592C61.0053 11.0293 61.032 11.4827 61.032 11.952ZM34.96 77.584C35.6533 78.64 36 80.096 36 81.952C36 83.808 35.6533 85.264 34.96 86.32C34.2667 87.376 33.2853 87.904 32.016 87.904C30.736 87.904 29.744 87.376 29.04 86.32C28.3467 85.264 28 83.808 28 81.952C28 80.096 28.3467 78.64 29.04 77.584C29.744 76.528 30.736 76 32.016 76C33.2853 76 34.2667 76.528 34.96 77.584ZM33.952 83.312C34.0053 82.8747 34.032 82.4213 34.032 81.952C34.032 81.4827 34.0053 81.0293 33.952 80.592C33.8987 80.144 33.8027 79.68 33.664 79.2C33.536 78.72 33.328 78.336 33.04 78.048C32.7627 77.7493 32.4213 77.6 32.016 77.6C31.6107 77.6 31.264 77.7493 30.976 78.048C30.688 78.336 30.4747 78.72 30.336 79.2C30.1973 79.68 30.1013 80.144 30.048 80.592C29.9947 81.0293 29.968 81.4827 29.968 81.952C29.968 82.4107 29.9947 82.864 30.048 83.312C30.1013 83.76 30.1973 84.224 30.336 84.704C30.4747 85.1733 30.688 85.552 30.976 85.84C31.264 86.128 31.6107 86.272 32.016 86.272C32.4213 86.272 32.7627 86.128 33.04 85.84C33.328 85.552 33.536 85.168 33.664 84.688C33.8027 84.208 33.8987 83.7493 33.952 83.312ZM88 81.952C88 80.096 87.6533 78.64 86.96 77.584C86.2667 76.528 85.2853 76 84.016 76C82.736 76 81.744 76.528 81.04 77.584C80.3467 78.64 80 80.096 80 81.952C80 83.808 80.3467 85.264 81.04 86.32C81.744 87.376 82.736 87.904 84.016 87.904C85.2853 87.904 86.2667 87.376 86.96 86.32C87.6533 85.264 88 83.808 88 81.952ZM86.032 81.952C86.032 82.4213 86.0053 82.8747 85.952 83.312C85.8987 83.7493 85.8027 84.208 85.664 84.688C85.536 85.168 85.328 85.552 85.04 85.84C84.7627 86.128 84.4213 86.272 84.016 86.272C83.6107 86.272 83.264 86.128 82.976 85.84C82.688 85.552 82.4747 85.1733 82.336 84.704C82.1973 84.224 82.1013 83.76 82.048 83.312C81.9947 82.864 81.968 82.4107 81.968 81.952C81.968 81.4827 81.9947 81.0293 82.048 80.592C82.1013 80.144 82.1973 79.68 82.336 79.2C82.4747 78.72 82.688 78.336 82.976 78.048C83.264 77.7493 83.6107 77.6 84.016 77.6C84.4213 77.6 84.7627 77.7493 85.04 78.048C85.328 78.336 85.536 78.72 85.664 79.2C85.8027 79.68 85.8987 80.144 85.952 80.592C86.0053 81.0293 86.032 81.4827 86.032 81.952ZM61.96 77.584C62.6533 78.64 63 80.096 63 81.952C63 83.808 62.6533 85.264 61.96 86.32C61.2667 87.376 60.2853 87.904 59.016 87.904C57.736 87.904 56.744 87.376 56.04 86.32C55.3467 85.264 55 83.808 55 81.952C55 80.096 55.3467 78.64 56.04 77.584C56.744 76.528 57.736 76 59.016 76C60.2853 76 61.2667 76.528 61.96 77.584ZM60.952 83.312C61.0053 82.8747 61.032 82.4213 61.032 81.952C61.032 81.4827 61.0053 81.0293 60.952 80.592C60.8987 80.144 60.8027 79.68 60.664 79.2C60.536 78.72 60.328 78.336 60.04 78.048C59.7627 77.7493 59.4213 77.6 59.016 77.6C58.6107 77.6 58.264 77.7493 57.976 78.048C57.688 78.336 57.4747 78.72 57.336 79.2C57.1973 79.68 57.1013 80.144 57.048 80.592C56.9947 81.0293 56.968 81.4827 56.968 81.952C56.968 82.4107 56.9947 82.864 57.048 83.312C57.1013 83.76 57.1973 84.224 57.336 84.704C57.4747 85.1733 57.688 85.552 57.976 85.84C58.264 86.128 58.6107 86.272 59.016 86.272C59.4213 86.272 59.7627 86.128 60.04 85.84C60.328 85.552 60.536 85.168 60.664 84.688C60.8027 84.208 60.8987 83.7493 60.952 83.312ZM36 134.952C36 133.096 35.6533 131.64 34.96 130.584C34.2667 129.528 33.2853 129 32.016 129C30.736 129 29.744 129.528 29.04 130.584C28.3467 131.64 28 133.096 28 134.952C28 136.808 28.3467 138.264 29.04 139.32C29.744 140.376 30.736 140.904 32.016 140.904C33.2853 140.904 34.2667 140.376 34.96 139.32C35.6533 138.264 36 136.808 36 134.952ZM34.032 134.952C34.032 135.421 34.0053 135.875 33.952 136.312C33.8987 136.749 33.8027 137.208 33.664 137.688C33.536 138.168 33.328 138.552 33.04 138.84C32.7627 139.128 32.4213 139.272 32.016 139.272C31.6107 139.272 31.264 139.128 30.976 138.84C30.688 138.552 30.4747 138.173 30.336 137.704C30.1973 137.224 30.1013 136.76 30.048 136.312C29.9947 135.864 29.968 135.411 29.968 134.952C29.968 134.483 29.9947 134.029 30.048 133.592C30.1013 133.144 30.1973 132.68 30.336 132.2C30.4747 131.72 30.688 131.336 30.976 131.048C31.264 130.749 31.6107 130.6 32.016 130.6C32.4213 130.6 32.7627 130.749 33.04 131.048C33.328 131.336 33.536 131.72 33.664 132.2C33.8027 132.68 33.8987 133.144 33.952 133.592C34.0053 134.029 34.032 134.483 34.032 134.952ZM86.96 130.584C87.6533 131.64 88 133.096 88 134.952C88 136.808 87.6533 138.264 86.96 139.32C86.2667 140.376 85.2853 140.904 84.016 140.904C82.736 140.904 81.744 140.376 81.04 139.32C80.3467 138.264 80 136.808 80 134.952C80 133.096 80.3467 131.64 81.04 130.584C81.744 129.528 82.736 129 84.016 129C85.2853 129 86.2667 129.528 86.96 130.584ZM85.952 136.312C86.0053 135.875 86.032 135.421 86.032 134.952C86.032 134.483 86.0053 134.029 85.952 133.592C85.8987 133.144 85.8027 132.68 85.664 132.2C85.536 131.72 85.328 131.336 85.04 131.048C84.7627 130.749 84.4213 130.6 84.016 130.6C83.6107 130.6 83.264 130.749 82.976 131.048C82.688 131.336 82.4747 131.72 82.336 132.2C82.1973 132.68 82.1013 133.144 82.048 133.592C81.9947 134.029 81.968 134.483 81.968 134.952C81.968 135.411 81.9947 135.864 82.048 136.312C82.1013 136.76 82.1973 137.224 82.336 137.704C82.4747 138.173 82.688 138.552 82.976 138.84C83.264 139.128 83.6107 139.272 84.016 139.272C84.4213 139.272 84.7627 139.128 85.04 138.84C85.328 138.552 85.536 138.168 85.664 137.688C85.8027 137.208 85.8987 136.749 85.952 136.312ZM63 134.952C63 133.096 62.6533 131.64 61.96 130.584C61.2667 129.528 60.2853 129 59.016 129C57.736 129 56.744 129.528 56.04 130.584C55.3467 131.64 55 133.096 55 134.952C55 136.808 55.3467 138.264 56.04 139.32C56.744 140.376 57.736 140.904 59.016 140.904C60.2853 140.904 61.2667 140.376 61.96 139.32C62.6533 138.264 63 136.808 63 134.952ZM61.032 134.952C61.032 135.421 61.0053 135.875 60.952 136.312C60.8987 136.749 60.8027 137.208 60.664 137.688C60.536 138.168 60.328 138.552 60.04 138.84C59.7627 139.128 59.4213 139.272 59.016 139.272C58.6107 139.272 58.264 139.128 57.976 138.84C57.688 138.552 57.4747 138.173 57.336 137.704C57.1973 137.224 57.1013 136.76 57.048 136.312C56.9947 135.864 56.968 135.411 56.968 134.952C56.968 134.483 56.9947 134.029 57.048 133.592C57.1013 133.144 57.1973 132.68 57.336 132.2C57.4747 131.72 57.688 131.336 57.976 131.048C58.264 130.749 58.6107 130.6 59.016 130.6C59.4213 130.6 59.7627 130.749 60.04 131.048C60.328 131.336 60.536 131.72 60.664 132.2C60.8027 132.68 60.8987 133.144 60.952 133.592C61.0053 134.029 61.032 134.483 61.032 134.952ZM34.96 25.584C35.6533 26.64 36 28.096 36 29.952C36 31.808 35.6533 33.264 34.96 34.32C34.2667 35.376 33.2853 35.904 32.016 35.904C30.736 35.904 29.744 35.376 29.04 34.32C28.3467 33.264 28 31.808 28 29.952C28 28.096 28.3467 26.64 29.04 25.584C29.744 24.528 30.736 24 32.016 24C33.2853 24 34.2667 24.528 34.96 25.584ZM33.952 31.312C34.0053 30.8747 34.032 30.4213 34.032 29.952C34.032 29.4827 34.0053 29.0293 33.952 28.592C33.8987 28.144 33.8027 27.68 33.664 27.2C33.536 26.72 33.328 26.336 33.04 26.048C32.7627 25.7493 32.4213 25.6 32.016 25.6C31.6107 25.6 31.264 25.7493 30.976 26.048C30.688 26.336 30.4747 26.72 30.336 27.2C30.1973 27.68 30.1013 28.144 30.048 28.592C29.9947 29.0293 29.968 29.4827 29.968 29.952C29.968 30.4107 29.9947 30.864 30.048 31.312C30.1013 31.76 30.1973 32.224 30.336 32.704C30.4747 33.1733 30.688 33.552 30.976 33.84C31.264 34.128 31.6107 34.272 32.016 34.272C32.4213 34.272 32.7627 34.128 33.04 33.84C33.328 33.552 33.536 33.168 33.664 32.688C33.8027 32.208 33.8987 31.7493 33.952 31.312ZM88 29.952C88 28.096 87.6533 26.64 86.96 25.584C86.2667 24.528 85.2853 24 84.016 24C82.736 24 81.744 24.528 81.04 25.584C80.3467 26.64 80 28.096 80 29.952C80 31.808 80.3467 33.264 81.04 34.32C81.744 35.376 82.736 35.904 84.016 35.904C85.2853 35.904 86.2667 35.376 86.96 34.32C87.6533 33.264 88 31.808 88 29.952ZM86.032 29.952C86.032 30.4213 86.0053 30.8747 85.952 31.312C85.8987 31.7493 85.8027 32.208 85.664 32.688C85.536 33.168 85.328 33.552 85.04 33.84C84.7627 34.128 84.4213 34.272 84.016 34.272C83.6107 34.272 83.264 34.128 82.976 33.84C82.688 33.552 82.4747 33.1733 82.336 32.704C82.1973 32.224 82.1013 31.76 82.048 31.312C81.9947 30.864 81.968 30.4107 81.968 29.952C81.968 29.4827 81.9947 29.0293 82.048 28.592C82.1013 28.144 82.1973 27.68 82.336 27.2C82.4747 26.72 82.688 26.336 82.976 26.048C83.264 25.7493 83.6107 25.6 84.016 25.6C84.4213 25.6 84.7627 25.7493 85.04 26.048C85.328 26.336 85.536 26.72 85.664 27.2C85.8027 27.68 85.8987 28.144 85.952 28.592C86.0053 29.0293 86.032 29.4827 86.032 29.952ZM61.96 25.584C62.6533 26.64 63 28.096 63 29.952C63 31.808 62.6533 33.264 61.96 34.32C61.2667 35.376 60.2853 35.904 59.016 35.904C57.736 35.904 56.744 35.376 56.04 34.32C55.3467 33.264 55 31.808 55 29.952C55 28.096 55.3467 26.64 56.04 25.584C56.744 24.528 57.736 24 59.016 24C60.2853 24 61.2667 24.528 61.96 25.584ZM60.952 31.312C61.0053 30.8747 61.032 30.4213 61.032 29.952C61.032 29.4827 61.0053 29.0293 60.952 28.592C60.8987 28.144 60.8027 27.68 60.664 27.2C60.536 26.72 60.328 26.336 60.04 26.048C59.7627 25.7493 59.4213 25.6 59.016 25.6C58.6107 25.6 58.264 25.7493 57.976 26.048C57.688 26.336 57.4747 26.72 57.336 27.2C57.1973 27.68 57.1013 28.144 57.048 28.592C56.9947 29.0293 56.968 29.4827 56.968 29.952C56.968 30.4107 56.9947 30.864 57.048 31.312C57.1013 31.76 57.1973 32.224 57.336 32.704C57.4747 33.1733 57.688 33.552 57.976 33.84C58.264 34.128 58.6107 34.272 59.016 34.272C59.4213 34.272 59.7627 34.128 60.04 33.84C60.328 33.552 60.536 33.168 60.664 32.688C60.8027 32.208 60.8987 31.7493 60.952 31.312ZM23 47.952C23 46.096 22.6533 44.64 21.96 43.584C21.2667 42.528 20.2853 42 19.016 42C17.736 42 16.744 42.528 16.04 43.584C15.3467 44.64 15 46.096 15 47.952C15 49.808 15.3467 51.264 16.04 52.32C16.744 53.376 17.736 53.904 19.016 53.904C20.2853 53.904 21.2667 53.376 21.96 52.32C22.6533 51.264 23 49.808 23 47.952ZM21.032 47.952C21.032 48.4213 21.0053 48.8747 20.952 49.312C20.8987 49.7493 20.8027 50.208 20.664 50.688C20.536 51.168 20.328 51.552 20.04 51.84C19.7627 52.128 19.4213 52.272 19.016 52.272C18.6107 52.272 18.264 52.128 17.976 51.84C17.688 51.552 17.4747 51.1733 17.336 50.704C17.1973 50.224 17.1013 49.76 17.048 49.312C16.9947 48.864 16.968 48.4107 16.968 47.952C16.968 47.4827 16.9947 47.0293 17.048 46.592C17.1013 46.144 17.1973 45.68 17.336 45.2C17.4747 44.72 17.688 44.336 17.976 44.048C18.264 43.7493 18.6107 43.6 19.016 43.6C19.4213 43.6 19.7627 43.7493 20.04 44.048C20.328 44.336 20.536 44.72 20.664 45.2C20.8027 45.68 20.8987 46.144 20.952 46.592C21.0053 47.0293 21.032 47.4827 21.032 47.952ZM73.96 43.584C74.6533 44.64 75 46.096 75 47.952C75 49.808 74.6533 51.264 73.96 52.32C73.2667 53.376 72.2853 53.904 71.016 53.904C69.736 53.904 68.744 53.376 68.04 52.32C67.3467 51.264 67 49.808 67 47.952C67 46.096 67.3467 44.64 68.04 43.584C68.744 42.528 69.736 42 71.016 42C72.2853 42 73.2667 42.528 73.96 43.584ZM72.952 49.312C73.0053 48.8747 73.032 48.4213 73.032 47.952C73.032 47.4827 73.0053 47.0293 72.952 46.592C72.8987 46.144 72.8027 45.68 72.664 45.2C72.536 44.72 72.328 44.336 72.04 44.048C71.7627 43.7493 71.4213 43.6 71.016 43.6C70.6107 43.6 70.264 43.7493 69.976 44.048C69.688 44.336 69.4747 44.72 69.336 45.2C69.1973 45.68 69.1013 46.144 69.048 46.592C68.9947 47.0293 68.968 47.4827 68.968 47.952C68.968 48.4107 68.9947 48.864 69.048 49.312C69.1013 49.76 69.1973 50.224 69.336 50.704C69.4747 51.1733 69.688 51.552 69.976 51.84C70.264 52.128 70.6107 52.272 71.016 52.272C71.4213 52.272 71.7627 52.128 72.04 51.84C72.328 51.552 72.536 51.168 72.664 50.688C72.8027 50.208 72.8987 49.7493 72.952 49.312ZM50 47.952C50 46.096 49.6533 44.64 48.96 43.584C48.2667 42.528 47.2853 42 46.016 42C44.736 42 43.744 42.528 43.04 43.584C42.3467 44.64 42 46.096 42 47.952C42 49.808 42.3467 51.264 43.04 52.32C43.744 53.376 44.736 53.904 46.016 53.904C47.2853 53.904 48.2667 53.376 48.96 52.32C49.6533 51.264 50 49.808 50 47.952ZM48.032 47.952C48.032 48.4213 48.0053 48.8747 47.952 49.312C47.8987 49.7493 47.8027 50.208 47.664 50.688C47.536 51.168 47.328 51.552 47.04 51.84C46.7627 52.128 46.4213 52.272 46.016 52.272C45.6107 52.272 45.264 52.128 44.976 51.84C44.688 51.552 44.4747 51.1733 44.336 50.704C44.1973 50.224 44.1013 49.76 44.048 49.312C43.9947 48.864 43.968 48.4107 43.968 47.952C43.968 47.4827 43.9947 47.0293 44.048 46.592C44.1013 46.144 44.1973 45.68 44.336 45.2C44.4747 44.72 44.688 44.336 44.976 44.048C45.264 43.7493 45.6107 43.6 46.016 43.6C46.4213 43.6 46.7627 43.7493 47.04 44.048C47.328 44.336 47.536 44.72 47.664 45.2C47.8027 45.68 47.8987 46.144 47.952 46.592C48.0053 47.0293 48.032 47.4827 48.032 47.952ZM61.96 95.584C62.6533 96.64 63 98.096 63 99.952C63 101.808 62.6533 103.264 61.96 104.32C61.2667 105.376 60.2853 105.904 59.016 105.904C57.736 105.904 56.744 105.376 56.04 104.32C55.3467 103.264 55 101.808 55 99.952C55 98.096 55.3467 96.64 56.04 95.584C56.744 94.528 57.736 94 59.016 94C60.2853 94 61.2667 94.528 61.96 95.584ZM60.952 101.312C61.0053 100.875 61.032 100.421 61.032 99.952C61.032 99.4827 61.0053 99.0293 60.952 98.592C60.8987 98.144 60.8027 97.68 60.664 97.2C60.536 96.72 60.328 96.336 60.04 96.048C59.7627 95.7493 59.4213 95.6 59.016 95.6C58.6107 95.6 58.264 95.7493 57.976 96.048C57.688 96.336 57.4747 96.72 57.336 97.2C57.1973 97.68 57.1013 98.144 57.048 98.592C56.9947 99.0293 56.968 99.4827 56.968 99.952C56.968 100.411 56.9947 100.864 57.048 101.312C57.1013 101.76 57.1973 102.224 57.336 102.704C57.4747 103.173 57.688 103.552 57.976 103.84C58.264 104.128 58.6107 104.272 59.016 104.272C59.4213 104.272 59.7627 104.128 60.04 103.84C60.328 103.552 60.536 103.168 60.664 102.688C60.8027 102.208 60.8987 101.749 60.952 101.312ZM32.36 -8.664V0.328H34.28V-11H32.536L29 -8.152L30.12 -6.824L32.36 -8.664ZM84.36 0.328V-8.664L82.12 -6.824L81 -8.152L84.536 -11H86.28V0.328H84.36ZM59.36 -8.664V0.328H61.28V-11H59.536L56 -8.152L57.12 -6.824L59.36 -8.664ZM34.96 147.584C35.6533 148.64 36 150.096 36 151.952C36 153.808 35.6533 155.264 34.96 156.32C34.2667 157.376 33.2853 157.904 32.016 157.904C30.736 157.904 29.744 157.376 29.04 156.32C28.3467 155.264 28 153.808 28 151.952C28 150.096 28.3467 148.64 29.04 147.584C29.744 146.528 30.736 146 32.016 146C33.2853 146 34.2667 146.528 34.96 147.584ZM33.952 153.312C34.0053 152.875 34.032 152.421 34.032 151.952C34.032 151.483 34.0053 151.029 33.952 150.592C33.8987 150.144 33.8027 149.68 33.664 149.2C33.536 148.72 33.328 148.336 33.04 148.048C32.7627 147.749 32.4213 147.6 32.016 147.6C31.6107 147.6 31.264 147.749 30.976 148.048C30.688 148.336 30.4747 148.72 30.336 149.2C30.1973 149.68 30.1013 150.144 30.048 150.592C29.9947 151.029 29.968 151.483 29.968 151.952C29.968 152.411 29.9947 152.864 30.048 153.312C30.1013 153.76 30.1973 154.224 30.336 154.704C30.4747 155.173 30.688 155.552 30.976 155.84C31.264 156.128 31.6107 156.272 32.016 156.272C32.4213 156.272 32.7627 156.128 33.04 155.84C33.328 155.552 33.536 155.168 33.664 154.688C33.8027 154.208 33.8987 153.749 33.952 153.312ZM88 151.952C88 150.096 87.6533 148.64 86.96 147.584C86.2667 146.528 85.2853 146 84.016 146C82.736 146 81.744 146.528 81.04 147.584C80.3467 148.64 80 150.096 80 151.952C80 153.808 80.3467 155.264 81.04 156.32C81.744 157.376 82.736 157.904 84.016 157.904C85.2853 157.904 86.2667 157.376 86.96 156.32C87.6533 155.264 88 153.808 88 151.952ZM86.032 151.952C86.032 152.421 86.0053 152.875 85.952 153.312C85.8987 153.749 85.8027 154.208 85.664 154.688C85.536 155.168 85.328 155.552 85.04 155.84C84.7627 156.128 84.4213 156.272 84.016 156.272C83.6107 156.272 83.264 156.128 82.976 155.84C82.688 155.552 82.4747 155.173 82.336 154.704C82.1973 154.224 82.1013 153.76 82.048 153.312C81.9947 152.864 81.968 152.411 81.968 151.952C81.968 151.483 81.9947 151.029 82.048 150.592C82.1013 150.144 82.1973 149.68 82.336 149.2C82.4747 148.72 82.688 148.336 82.976 148.048C83.264 147.749 83.6107 147.6 84.016 147.6C84.4213 147.6 84.7627 147.749 85.04 148.048C85.328 148.336 85.536 148.72 85.664 149.2C85.8027 149.68 85.8987 150.144 85.952 150.592C86.0053 151.029 86.032 151.483 86.032 151.952ZM61.96 147.584C62.6533 148.64 63 150.096 63 151.952C63 153.808 62.6533 155.264 61.96 156.32C61.2667 157.376 60.2853 157.904 59.016 157.904C57.736 157.904 56.744 157.376 56.04 156.32C55.3467 155.264 55 153.808 55 151.952C55 150.096 55.3467 148.64 56.04 147.584C56.744 146.528 57.736 146 59.016 146C60.2853 146 61.2667 146.528 61.96 147.584ZM60.952 153.312C61.0053 152.875 61.032 152.421 61.032 151.952C61.032 151.483 61.0053 151.029 60.952 150.592C60.8987 150.144 60.8027 149.68 60.664 149.2C60.536 148.72 60.328 148.336 60.04 148.048C59.7627 147.749 59.4213 147.6 59.016 147.6C58.6107 147.6 58.264 147.749 57.976 148.048C57.688 148.336 57.4747 148.72 57.336 149.2C57.1973 149.68 57.1013 150.144 57.048 150.592C56.9947 151.029 56.968 151.483 56.968 151.952C56.968 152.411 56.9947 152.864 57.048 153.312C57.1013 153.76 57.1973 154.224 57.336 154.704C57.4747 155.173 57.688 155.552 57.976 155.84C58.264 156.128 58.6107 156.272 59.016 156.272C59.4213 156.272 59.7627 156.128 60.04 155.84C60.328 155.552 60.536 155.168 60.664 154.688C60.8027 154.208 60.8987 153.749 60.952 153.312ZM19.36 9.336V18.328H21.28V7H19.536L16 9.848L17.12 11.176L19.36 9.336ZM71.36 18.328V9.336L69.12 11.176L68 9.848L71.536 7H73.28V18.328H71.36ZM46.36 9.336V18.328H48.28V7H46.536L43 9.848L44.12 11.176L46.36 9.336ZM32.36 53.328V44.336L30.12 46.176L29 44.848L32.536 42H34.28V53.328H32.36ZM84.36 44.336V53.328H86.28V42H84.536L81 44.848L82.12 46.176L84.36 44.336ZM59.36 53.328V44.336L57.12 46.176L56 44.848L59.536 42H61.28V53.328H59.36ZM32.36 62.336V71.328H34.28V60H32.536L29 62.848L30.12 64.176L32.36 62.336ZM84.36 71.328V62.336L82.12 64.176L81 62.848L84.536 60H86.28V71.328H84.36ZM32.36 96.336V105.328H34.28V94H32.536L29 96.848L30.12 98.176L32.36 96.336ZM84.36 105.328V96.336L82.12 98.176L81 96.848L84.536 94H86.28V105.328H84.36ZM59.36 62.336V71.328H61.28V60H59.536L56 62.848L57.12 64.176L59.36 62.336ZM32.36 123.328V114.336L30.12 116.176L29 114.848L32.536 112H34.28V123.328H32.36ZM84.36 114.336V123.328H86.28V112H84.536L81 114.848L82.12 116.176L84.36 114.336ZM59.36 123.328V114.336L57.12 116.176L56 114.848L59.536 112H61.28V123.328H59.36ZM19.36 114.336V123.328H21.28V112H19.536L16 114.848L17.12 116.176L19.36 114.336ZM71.36 123.328V114.336L69.12 116.176L68 114.848L71.536 112H73.28V123.328H71.36ZM46.36 114.336V123.328H48.28V112H46.536L43 114.848L44.12 116.176L46.36 114.336ZM19.36 71.328V62.336L17.12 64.176L16 62.848L19.536 60H21.28V71.328H19.36ZM71.36 62.336V71.328H73.28V60H71.536L68 62.848L69.12 64.176L71.36 62.336ZM46.36 71.328V62.336L44.12 64.176L43 62.848L46.536 60H48.28V71.328H46.36ZM32.36 166.336V175.328H34.28V164H32.536L29 166.848L30.12 168.176L32.36 166.336ZM84.36 175.328V166.336L82.12 168.176L81 166.848L84.536 164H86.28V175.328H84.36ZM59.36 166.336V175.328H61.28V164H59.536L56 166.848L57.12 168.176L59.36 166.336ZM19.36 140.328V131.336L17.12 133.176L16 131.848L19.536 129H21.28V140.328H19.36ZM71.36 131.336V140.328H73.28V129H71.536L68 131.848L69.12 133.176L71.36 131.336ZM46.36 140.328V131.336L44.12 133.176L43 131.848L46.536 129H48.28V140.328H46.36ZM19.36 79.336V88.328H21.28V77H19.536L16 79.848L17.12 81.176L19.36 79.336ZM71.36 88.328V79.336L69.12 81.176L68 79.848L71.536 77H73.28V88.328H71.36ZM46.36 79.336V88.328H48.28V77H46.536L43 79.848L44.12 81.176L46.36 79.336ZM46.36 105.328V96.336L44.12 98.176L43 96.848L46.536 94H48.28V105.328H46.36ZM19.36 148.336V157.328H21.28V146H19.536L16 148.848L17.12 150.176L19.36 148.336ZM71.36 157.328V148.336L69.12 150.176L68 148.848L71.536 146H73.28V157.328H71.36ZM46.36 148.336V157.328H48.28V146H46.536L43 148.848L44.12 150.176L46.36 148.336Z" fill="url(#paint1_linear_1_154)"/>
<path fill-rule="evenodd" clip-rule="evenodd" d="M101 -57.048C101 -58.904 100.653 -60.36 99.96 -61.416C99.2667 -62.472 98.2853 -63 97.016 -63C95.736 -63 94.744 -62.472 94.04 -61.416C93.3467 -60.36 93 -58.904 93 -57.048C93 -55.192 93.3467 -53.736 94.04 -52.68C94.744 -51.624 95.736 -51.096 97.016 -51.096C98.2853 -51.096 99.2667 -51.624 99.96 -52.68C100.653 -53.736 101 -55.192 101 -57.048ZM99.032 -57.048C99.032 -56.5787 99.0053 -56.1253 98.952 -55.688C98.8987 -55.2507 98.8027 -54.792 98.664 -54.312C98.536 -53.832 98.328 -53.448 98.04 -53.16C97.7627 -52.872 97.4213 -52.728 97.016 -52.728C96.6107 -52.728 96.264 -52.872 95.976 -53.16C95.688 -53.448 95.4747 -53.8267 95.336 -54.296C95.1973 -54.776 95.1013 -55.24 95.048 -55.688C94.9947 -56.136 94.968 -56.5893 94.968 -57.048C94.968 -57.5173 94.9947 -57.9707 95.048 -58.408C95.1013 -58.856 95.1973 -59.32 95.336 -59.8C95.4747 -60.28 95.688 -60.664 95.976 -60.952C96.264 -61.2507 96.6107 -61.4 97.016 -61.4C97.4213 -61.4 97.7627 -61.2507 98.04 -60.952C98.328 -60.664 98.536 -60.28 98.664 -59.8C98.8027 -59.32 98.8987 -58.856 98.952 -58.408C99.0053 -57.9707 99.032 -57.5173 99.032 -57.048ZM153 -57.048C153 -58.904 152.653 -60.36 151.96 -61.416C151.267 -62.472 150.285 -63 149.016 -63C147.736 -63 146.744 -62.472 146.04 -61.416C145.347 -60.36 145 -58.904 145 -57.048C145 -55.192 145.347 -53.736 146.04 -52.68C146.744 -51.624 147.736 -51.096 149.016 -51.096C150.285 -51.096 151.267 -51.624 151.96 -52.68C152.653 -53.736 153 -55.192 153 -57.048ZM151.032 -57.048C151.032 -56.5787 151.005 -56.1253 150.952 -55.688C150.899 -55.2507 150.803 -54.792 150.664 -54.312C150.536 -53.832 150.328 -53.448 150.04 -53.16C149.763 -52.872 149.421 -52.728 149.016 -52.728C148.611 -52.728 148.264 -52.872 147.976 -53.16C147.688 -53.448 147.475 -53.8267 147.336 -54.296C147.197 -54.776 147.101 -55.24 147.048 -55.688C146.995 -56.136 146.968 -56.5893 146.968 -57.048C146.968 -57.5173 146.995 -57.9707 147.048 -58.408C147.101 -58.856 147.197 -59.32 147.336 -59.8C147.475 -60.28 147.688 -60.664 147.976 -60.952C148.264 -61.2507 148.611 -61.4 149.016 -61.4C149.421 -61.4 149.763 -61.2507 150.04 -60.952C150.328 -60.664 150.536 -60.28 150.664 -59.8C150.803 -59.32 150.899 -58.856 150.952 -58.408C151.005 -57.9707 151.032 -57.5173 151.032 -57.048ZM126.96 -61.416C127.653 -60.36 128 -58.904 128 -57.048C128 -55.192 127.653 -53.736 126.96 -52.68C126.267 -51.624 125.285 -51.096 124.016 -51.096C122.736 -51.096 121.744 -51.624 121.04 -52.68C120.347 -53.736 120 -55.192 120 -57.048C120 -58.904 120.347 -60.36 121.04 -61.416C121.744 -62.472 122.736 -63 124.016 -63C125.285 -63 126.267 -62.472 126.96 -61.416ZM125.952 -55.688C126.005 -56.1253 126.032 -56.5787 126.032 -57.048C126.032 -57.5173 126.005 -57.9707 125.952 -58.408C125.899 -58.856 125.803 -59.32 125.664 -59.8C125.536 -60.28 125.328 -60.664 125.04 -60.952C124.763 -61.2507 124.421 -61.4 124.016 -61.4C123.611 -61.4 123.264 -61.2507 122.976 -60.952C122.688 -60.664 122.475 -60.28 122.336 -59.8C122.197 -59.32 122.101 -58.856 122.048 -58.408C121.995 -57.9707 121.968 -57.5173 121.968 -57.048C121.968 -56.5893 121.995 -56.136 122.048 -55.688C122.101 -55.24 122.197 -54.776 122.336 -54.296C122.475 -53.8267 122.688 -53.448 122.976 -53.16C123.264 -52.872 123.611 -52.728 124.016 -52.728C124.421 -52.728 124.763 -52.872 125.04 -53.16C125.328 -53.448 125.536 -53.832 125.664 -54.312C125.803 -54.792 125.899 -55.2507 125.952 -55.688ZM101 47.952C101 46.096 100.653 44.64 99.96 43.584C99.2667 42.528 98.2853 42 97.016 42C95.736 42 94.744 42.528 94.04 43.584C93.3467 44.64 93 46.096 93 47.952C93 49.808 93.3467 51.264 94.04 52.32C94.744 53.376 95.736 53.904 97.016 53.904C98.2853 53.904 99.2667 53.376 99.96 52.32C100.653 51.264 101 49.808 101 47.952ZM99.032 47.952C99.032 48.4213 99.0053 48.8747 98.952 49.312C98.8987 49.7493 98.8027 50.208 98.664 50.688C98.536 51.168 98.328 51.552 98.04 51.84C97.7627 52.128 97.4213 52.272 97.016 52.272C96.6107 52.272 96.264 52.128 95.976 51.84C95.688 51.552 95.4747 51.1733 95.336 50.704C95.1973 50.224 95.1013 49.76 95.048 49.312C94.9947 48.864 94.968 48.4107 94.968 47.952C94.968 47.4827 94.9947 47.0293 95.048 46.592C95.1013 46.144 95.1973 45.68 95.336 45.2C95.4747 44.72 95.688 44.336 95.976 44.048C96.264 43.7493 96.6107 43.6 97.016 43.6C97.4213 43.6 97.7627 43.7493 98.04 44.048C98.328 44.336 98.536 44.72 98.664 45.2C98.8027 45.68 98.8987 46.144 98.952 46.592C99.0053 47.0293 99.032 47.4827 99.032 47.952ZM151.96 43.584C152.653 44.64 153 46.096 153 47.952C153 49.808 152.653 51.264 151.96 52.32C151.267 53.376 150.285 53.904 149.016 53.904C147.736 53.904 146.744 53.376 146.04 52.32C145.347 51.264 145 49.808 145 47.952C145 46.096 145.347 44.64 146.04 43.584C146.744 42.528 147.736 42 149.016 42C150.285 42 151.267 42.528 151.96 43.584ZM150.952 49.312C151.005 48.8747 151.032 48.4213 151.032 47.952C151.032 47.4827 151.005 47.0293 150.952 46.592C150.899 46.144 150.803 45.68 150.664 45.2C150.536 44.72 150.328 44.336 150.04 44.048C149.763 43.7493 149.421 43.6 149.016 43.6C148.611 43.6 148.264 43.7493 147.976 44.048C147.688 44.336 147.475 44.72 147.336 45.2C147.197 45.68 147.101 46.144 147.048 46.592C146.995 47.0293 146.968 47.4827 146.968 47.952C146.968 48.4107 146.995 48.864 147.048 49.312C147.101 49.76 147.197 50.224 147.336 50.704C147.475 51.1733 147.688 51.552 147.976 51.84C148.264 52.128 148.611 52.272 149.016 52.272C149.421 52.272 149.763 52.128 150.04 51.84C150.328 51.552 150.536 51.168 150.664 50.688C150.803 50.208 150.899 49.7493 150.952 49.312ZM101 116.952C101 115.096 100.653 113.64 99.96 112.584C99.2667 111.528 98.2853 111 97.016 111C95.736 111 94.744 111.528 94.04 112.584C93.3467 113.64 93 115.096 93 116.952C93 118.808 93.3467 120.264 94.04 121.32C94.744 122.376 95.736 122.904 97.016 122.904C98.2853 122.904 99.2667 122.376 99.96 121.32C100.653 120.264 101 118.808 101 116.952ZM99.032 116.952C99.032 117.421 99.0053 117.875 98.952 118.312C98.8987 118.749 98.8027 119.208 98.664 119.688C98.536 120.168 98.328 120.552 98.04 120.84C97.7627 121.128 97.4213 121.272 97.016 121.272C96.6107 121.272 96.264 121.128 95.976 120.84C95.688 120.552 95.4747 120.173 95.336 119.704C95.1973 119.224 95.1013 118.76 95.048 118.312C94.9947 117.864 94.968 117.411 94.968 116.952C94.968 116.483 94.9947 116.029 95.048 115.592C95.1013 115.144 95.1973 114.68 95.336 114.2C95.4747 113.72 95.688 113.336 95.976 113.048C96.264 112.749 96.6107 112.6 97.016 112.6C97.4213 112.6 97.7627 112.749 98.04 113.048C98.328 113.336 98.536 113.72 98.664 114.2C98.8027 114.68 98.8987 115.144 98.952 115.592C99.0053 116.029 99.032 116.483 99.032 116.952ZM151.96 112.584C152.653 113.64 153 115.096 153 116.952C153 118.808 152.653 120.264 151.96 121.32C151.267 122.376 150.285 122.904 149.016 122.904C147.736 122.904 146.744 122.376 146.04 121.32C145.347 120.264 145 118.808 145 116.952C145 115.096 145.347 113.64 146.04 112.584C146.744 111.528 147.736 111 149.016 111C150.285 111 151.267 111.528 151.96 112.584ZM150.952 118.312C151.005 117.875 151.032 117.421 151.032 116.952C151.032 116.483 151.005 116.029 150.952 115.592C150.899 115.144 150.803 114.68 150.664 114.2C150.536 113.72 150.328 113.336 150.04 113.048C149.763 112.749 149.421 112.6 149.016 112.6C148.611 112.6 148.264 112.749 147.976 113.048C147.688 113.336 147.475 113.72 147.336 114.2C147.197 114.68 147.101 115.144 147.048 115.592C146.995 116.029 146.968 116.483 146.968 116.952C146.968 117.411 146.995 117.864 147.048 118.312C147.101 118.76 147.197 119.224 147.336 119.704C147.475 120.173 147.688 120.552 147.976 120.84C148.264 121.128 148.611 121.272 149.016 121.272C149.421 121.272 149.763 121.128 150.04 120.84C150.328 120.552 150.536 120.168 150.664 119.688C150.803 119.208 150.899 118.749 150.952 118.312ZM128 116.952C128 115.096 127.653 113.64 126.96 112.584C126.267 111.528 125.285 111 124.016 111C122.736 111 121.744 111.528 121.04 112.584C120.347 113.64 120 115.096 120 116.952C120 118.808 120.347 120.264 121.04 121.32C121.744 122.376 122.736 122.904 124.016 122.904C125.285 122.904 126.267 122.376 126.96 121.32C127.653 120.264 128 118.808 128 116.952ZM126.032 116.952C126.032 117.421 126.005 117.875 125.952 118.312C125.899 118.749 125.803 119.208 125.664 119.688C125.536 120.168 125.328 120.552 125.04 120.84C124.763 121.128 124.421 121.272 124.016 121.272C123.611 121.272 123.264 121.128 122.976 120.84C122.688 120.552 122.475 120.173 122.336 119.704C122.197 119.224 122.101 118.76 122.048 118.312C121.995 117.864 121.968 117.411 121.968 116.952C121.968 116.483 121.995 116.029 122.048 115.592C122.101 115.144 122.197 114.68 122.336 114.2C122.475 113.72 122.688 113.336 122.976 113.048C123.264 112.749 123.611 112.6 124.016 112.6C124.421 112.6 124.763 112.749 125.04 113.048C125.328 113.336 125.536 113.72 125.664 114.2C125.803 114.68 125.899 115.144 125.952 115.592C126.005 116.029 126.032 116.483 126.032 116.952ZM99.96 -26.416C100.653 -25.36 101 -23.904 101 -22.048C101 -20.192 100.653 -18.736 99.96 -17.68C99.2667 -16.624 98.2853 -16.096 97.016 -16.096C95.736 -16.096 94.744 -16.624 94.04 -17.68C93.3467 -18.736 93 -20.192 93 -22.048C93 -23.904 93.3467 -25.36 94.04 -26.416C94.744 -27.472 95.736 -28 97.016 -28C98.2853 -28 99.2667 -27.472 99.96 -26.416ZM98.952 -20.688C99.0053 -21.1253 99.032 -21.5787 99.032 -22.048C99.032 -22.5173 99.0053 -22.9707 98.952 -23.408C98.8987 -23.856 98.8027 -24.32 98.664 -24.8C98.536 -25.28 98.328 -25.664 98.04 -25.952C97.7627 -26.2507 97.4213 -26.4 97.016 -26.4C96.6107 -26.4 96.264 -26.2507 95.976 -25.952C95.688 -25.664 95.4747 -25.28 95.336 -24.8C95.1973 -24.32 95.1013 -23.856 95.048 -23.408C94.9947 -22.9707 94.968 -22.5173 94.968 -22.048C94.968 -21.5893 94.9947 -21.136 95.048 -20.688C95.1013 -20.24 95.1973 -19.776 95.336 -19.296C95.4747 -18.8267 95.688 -18.448 95.976 -18.16C96.264 -17.872 96.6107 -17.728 97.016 -17.728C97.4213 -17.728 97.7627 -17.872 98.04 -18.16C98.328 -18.448 98.536 -18.832 98.664 -19.312C98.8027 -19.792 98.8987 -20.2507 98.952 -20.688ZM153 -22.048C153 -23.904 152.653 -25.36 151.96 -26.416C151.267 -27.472 150.285 -28 149.016 -28C147.736 -28 146.744 -27.472 146.04 -26.416C145.347 -25.36 145 -23.904 145 -22.048C145 -20.192 145.347 -18.736 146.04 -17.68C146.744 -16.624 147.736 -16.096 149.016 -16.096C150.285 -16.096 151.267 -16.624 151.96 -17.68C152.653 -18.736 153 -20.192 153 -22.048ZM151.032 -22.048C151.032 -21.5787 151.005 -21.1253 150.952 -20.688C150.899 -20.2507 150.803 -19.792 150.664 -19.312C150.536 -18.832 150.328 -18.448 150.04 -18.16C149.763 -17.872 149.421 -17.728 149.016 -17.728C148.611 -17.728 148.264 -17.872 147.976 -18.16C147.688 -18.448 147.475 -18.8267 147.336 -19.296C147.197 -19.776 147.101 -20.24 147.048 -20.688C146.995 -21.136 146.968 -21.5893 146.968 -22.048C146.968 -22.5173 146.995 -22.9707 147.048 -23.408C147.101 -23.856 147.197 -24.32 147.336 -24.8C147.475 -25.28 147.688 -25.664 147.976 -25.952C148.264 -26.2507 148.611 -26.4 149.016 -26.4C149.421 -26.4 149.763 -26.2507 150.04 -25.952C150.328 -25.664 150.536 -25.28 150.664 -24.8C150.803 -24.32 150.899 -23.856 150.952 -23.408C151.005 -22.9707 151.032 -22.5173 151.032 -22.048ZM126.96 -26.416C127.653 -25.36 128 -23.904 128 -22.048C128 -20.192 127.653 -18.736 126.96 -17.68C126.267 -16.624 125.285 -16.096 124.016 -16.096C122.736 -16.096 121.744 -16.624 121.04 -17.68C120.347 -18.736 120 -20.192 120 -22.048C120 -23.904 120.347 -25.36 121.04 -26.416C121.744 -27.472 122.736 -28 124.016 -28C125.285 -28 126.267 -27.472 126.96 -26.416ZM125.952 -20.688C126.005 -21.1253 126.032 -21.5787 126.032 -22.048C126.032 -22.5173 126.005 -22.9707 125.952 -23.408C125.899 -23.856 125.803 -24.32 125.664 -24.8C125.536 -25.28 125.328 -25.664 125.04 -25.952C124.763 -26.2507 124.421 -26.4 124.016 -26.4C123.611 -26.4 123.264 -26.2507 122.976 -25.952C122.688 -25.664 122.475 -25.28 122.336 -24.8C122.197 -24.32 122.101 -23.856 122.048 -23.408C121.995 -22.9707 121.968 -22.5173 121.968 -22.048C121.968 -21.5893 121.995 -21.136 122.048 -20.688C122.101 -20.24 122.197 -19.776 122.336 -19.296C122.475 -18.8267 122.688 -18.448 122.976 -18.16C123.264 -17.872 123.611 -17.728 124.016 -17.728C124.421 -17.728 124.763 -17.872 125.04 -18.16C125.328 -18.448 125.536 -18.832 125.664 -19.312C125.803 -19.792 125.899 -20.2507 125.952 -20.688ZM114 -40.048C114 -41.904 113.653 -43.36 112.96 -44.416C112.267 -45.472 111.285 -46 110.016 -46C108.736 -46 107.744 -45.472 107.04 -44.416C106.347 -43.36 106 -41.904 106 -40.048C106 -38.192 106.347 -36.736 107.04 -35.68C107.744 -34.624 108.736 -34.096 110.016 -34.096C111.285 -34.096 112.267 -34.624 112.96 -35.68C113.653 -36.736 114 -38.192 114 -40.048ZM112.032 -40.048C112.032 -39.5787 112.005 -39.1253 111.952 -38.688C111.899 -38.2507 111.803 -37.792 111.664 -37.312C111.536 -36.832 111.328 -36.448 111.04 -36.16C110.763 -35.872 110.421 -35.728 110.016 -35.728C109.611 -35.728 109.264 -35.872 108.976 -36.16C108.688 -36.448 108.475 -36.8267 108.336 -37.296C108.197 -37.776 108.101 -38.24 108.048 -38.688C107.995 -39.136 107.968 -39.5893 107.968 -40.048C107.968 -40.5173 107.995 -40.9707 108.048 -41.408C108.101 -41.856 108.197 -42.32 108.336 -42.8C108.475 -43.28 108.688 -43.664 108.976 -43.952C109.264 -44.2507 109.611 -44.4 110.016 -44.4C110.421 -44.4 110.763 -44.2507 111.04 -43.952C111.328 -43.664 111.536 -43.28 111.664 -42.8C111.803 -42.32 111.899 -41.856 111.952 -41.408C112.005 -40.9707 112.032 -40.5173 112.032 -40.048ZM164.96 -44.416C165.653 -43.36 166 -41.904 166 -40.048C166 -38.192 165.653 -36.736 164.96 -35.68C164.267 -34.624 163.285 -34.096 162.016 -34.096C160.736 -34.096 159.744 -34.624 159.04 -35.68C158.347 -36.736 158 -38.192 158 -40.048C158 -41.904 158.347 -43.36 159.04 -44.416C159.744 -45.472 160.736 -46 162.016 -46C163.285 -46 164.267 -45.472 164.96 -44.416ZM163.952 -38.688C164.005 -39.1253 164.032 -39.5787 164.032 -40.048C164.032 -40.5173 164.005 -40.9707 163.952 -41.408C163.899 -41.856 163.803 -42.32 163.664 -42.8C163.536 -43.28 163.328 -43.664 163.04 -43.952C162.763 -44.2507 162.421 -44.4 162.016 -44.4C161.611 -44.4 161.264 -44.2507 160.976 -43.952C160.688 -43.664 160.475 -43.28 160.336 -42.8C160.197 -42.32 160.101 -41.856 160.048 -41.408C159.995 -40.9707 159.968 -40.5173 159.968 -40.048C159.968 -39.5893 159.995 -39.136 160.048 -38.688C160.101 -38.24 160.197 -37.776 160.336 -37.296C160.475 -36.8267 160.688 -36.448 160.976 -36.16C161.264 -35.872 161.611 -35.728 162.016 -35.728C162.421 -35.728 162.763 -35.872 163.04 -36.16C163.328 -36.448 163.536 -36.832 163.664 -37.312C163.803 -37.792 163.899 -38.2507 163.952 -38.688ZM141 -40.048C141 -41.904 140.653 -43.36 139.96 -44.416C139.267 -45.472 138.285 -46 137.016 -46C135.736 -46 134.744 -45.472 134.04 -44.416C133.347 -43.36 133 -41.904 133 -40.048C133 -38.192 133.347 -36.736 134.04 -35.68C134.744 -34.624 135.736 -34.096 137.016 -34.096C138.285 -34.096 139.267 -34.624 139.96 -35.68C140.653 -36.736 141 -38.192 141 -40.048ZM139.032 -40.048C139.032 -39.5787 139.005 -39.1253 138.952 -38.688C138.899 -38.2507 138.803 -37.792 138.664 -37.312C138.536 -36.832 138.328 -36.448 138.04 -36.16C137.763 -35.872 137.421 -35.728 137.016 -35.728C136.611 -35.728 136.264 -35.872 135.976 -36.16C135.688 -36.448 135.475 -36.8267 135.336 -37.296C135.197 -37.776 135.101 -38.24 135.048 -38.688C134.995 -39.136 134.968 -39.5893 134.968 -40.048C134.968 -40.5173 134.995 -40.9707 135.048 -41.408C135.101 -41.856 135.197 -42.32 135.336 -42.8C135.475 -43.28 135.688 -43.664 135.976 -43.952C136.264 -44.2507 136.611 -44.4 137.016 -44.4C137.421 -44.4 137.763 -44.2507 138.04 -43.952C138.328 -43.664 138.536 -43.28 138.664 -42.8C138.803 -42.32 138.899 -41.856 138.952 -41.408C139.005 -40.9707 139.032 -40.5173 139.032 -40.048ZM112.96 25.584C113.653 26.64 114 28.096 114 29.952C114 31.808 113.653 33.264 112.96 34.32C112.267 35.376 111.285 35.904 110.016 35.904C108.736 35.904 107.744 35.376 107.04 34.32C106.347 33.264 106 31.808 106 29.952C106 28.096 106.347 26.64 107.04 25.584C107.744 24.528 108.736 24 110.016 24C111.285 24 112.267 24.528 112.96 25.584ZM111.952 31.312C112.005 30.8747 112.032 30.4213 112.032 29.952C112.032 29.4827 112.005 29.0293 111.952 28.592C111.899 28.144 111.803 27.68 111.664 27.2C111.536 26.72 111.328 26.336 111.04 26.048C110.763 25.7493 110.421 25.6 110.016 25.6C109.611 25.6 109.264 25.7493 108.976 26.048C108.688 26.336 108.475 26.72 108.336 27.2C108.197 27.68 108.101 28.144 108.048 28.592C107.995 29.0293 107.968 29.4827 107.968 29.952C107.968 30.4107 107.995 30.864 108.048 31.312C108.101 31.76 108.197 32.224 108.336 32.704C108.475 33.1733 108.688 33.552 108.976 33.84C109.264 34.128 109.611 34.272 110.016 34.272C110.421 34.272 110.763 34.128 111.04 33.84C111.328 33.552 111.536 33.168 111.664 32.688C111.803 32.208 111.899 31.7493 111.952 31.312ZM166 29.952C166 28.096 165.653 26.64 164.96 25.584C164.267 24.528 163.285 24 162.016 24C160.736 24 159.744 24.528 159.04 25.584C158.347 26.64 158 28.096 158 29.952C158 31.808 158.347 33.264 159.04 34.32C159.744 35.376 160.736 35.904 162.016 35.904C163.285 35.904 164.267 35.376 164.96 34.32C165.653 33.264 166 31.808 166 29.952ZM164.032 29.952C164.032 30.4213 164.005 30.8747 163.952 31.312C163.899 31.7493 163.803 32.208 163.664 32.688C163.536 33.168 163.328 33.552 163.04 33.84C162.763 34.128 162.421 34.272 162.016 34.272C161.611 34.272 161.264 34.128 160.976 33.84C160.688 33.552 160.475 33.1733 160.336 32.704C160.197 32.224 160.101 31.76 160.048 31.312C159.995 30.864 159.968 30.4107 159.968 29.952C159.968 29.4827 159.995 29.0293 160.048 28.592C160.101 28.144 160.197 27.68 160.336 27.2C160.475 26.72 160.688 26.336 160.976 26.048C161.264 25.7493 161.611 25.6 162.016 25.6C162.421 25.6 162.763 25.7493 163.04 26.048C163.328 26.336 163.536 26.72 163.664 27.2C163.803 27.68 163.899 28.144 163.952 28.592C164.005 29.0293 164.032 29.4827 164.032 29.952ZM139.96 25.584C140.653 26.64 141 28.096 141 29.952C141 31.808 140.653 33.264 139.96 34.32C139.267 35.376 138.285 35.904 137.016 35.904C135.736 35.904 134.744 35.376 134.04 34.32C133.347 33.264 133 31.808 133 29.952C133 28.096 133.347 26.64 134.04 25.584C134.744 24.528 135.736 24 137.016 24C138.285 24 139.267 24.528 139.96 25.584ZM138.952 31.312C139.005 30.8747 139.032 30.4213 139.032 29.952C139.032 29.4827 139.005 29.0293 138.952 28.592C138.899 28.144 138.803 27.68 138.664 27.2C138.536 26.72 138.328 26.336 138.04 26.048C137.763 25.7493 137.421 25.6 137.016 25.6C136.611 25.6 136.264 25.7493 135.976 26.048C135.688 26.336 135.475 26.72 135.336 27.2C135.197 27.68 135.101 28.144 135.048 28.592C134.995 29.0293 134.968 29.4827 134.968 29.952C134.968 30.4107 134.995 30.864 135.048 31.312C135.101 31.76 135.197 32.224 135.336 32.704C135.475 33.1733 135.688 33.552 135.976 33.84C136.264 34.128 136.611 34.272 137.016 34.272C137.421 34.272 137.763 34.128 138.04 33.84C138.328 33.552 138.536 33.168 138.664 32.688C138.803 32.208 138.899 31.7493 138.952 31.312ZM114 82.952C114 81.096 113.653 79.64 112.96 78.584C112.267 77.528 111.285 77 110.016 77C108.736 77 107.744 77.528 107.04 78.584C106.347 79.64 106 81.096 106 82.952C106 84.808 106.347 86.264 107.04 87.32C107.744 88.376 108.736 88.904 110.016 88.904C111.285 88.904 112.267 88.376 112.96 87.32C113.653 86.264 114 84.808 114 82.952ZM112.032 82.952C112.032 83.4213 112.005 83.8747 111.952 84.312C111.899 84.7493 111.803 85.208 111.664 85.688C111.536 86.168 111.328 86.552 111.04 86.84C110.763 87.128 110.421 87.272 110.016 87.272C109.611 87.272 109.264 87.128 108.976 86.84C108.688 86.552 108.475 86.1733 108.336 85.704C108.197 85.224 108.101 84.76 108.048 84.312C107.995 83.864 107.968 83.4107 107.968 82.952C107.968 82.4827 107.995 82.0293 108.048 81.592C108.101 81.144 108.197 80.68 108.336 80.2C108.475 79.72 108.688 79.336 108.976 79.048C109.264 78.7493 109.611 78.6 110.016 78.6C110.421 78.6 110.763 78.7493 111.04 79.048C111.328 79.336 111.536 79.72 111.664 80.2C111.803 80.68 111.899 81.144 111.952 81.592C112.005 82.0293 112.032 82.4827 112.032 82.952ZM164.96 78.584C165.653 79.64 166 81.096 166 82.952C166 84.808 165.653 86.264 164.96 87.32C164.267 88.376 163.285 88.904 162.016 88.904C160.736 88.904 159.744 88.376 159.04 87.32C158.347 86.264 158 84.808 158 82.952C158 81.096 158.347 79.64 159.04 78.584C159.744 77.528 160.736 77 162.016 77C163.285 77 164.267 77.528 164.96 78.584ZM163.952 84.312C164.005 83.8747 164.032 83.4213 164.032 82.952C164.032 82.4827 164.005 82.0293 163.952 81.592C163.899 81.144 163.803 80.68 163.664 80.2C163.536 79.72 163.328 79.336 163.04 79.048C162.763 78.7493 162.421 78.6 162.016 78.6C161.611 78.6 161.264 78.7493 160.976 79.048C160.688 79.336 160.475 79.72 160.336 80.2C160.197 80.68 160.101 81.144 160.048 81.592C159.995 82.0293 159.968 82.4827 159.968 82.952C159.968 83.4107 159.995 83.864 160.048 84.312C160.101 84.76 160.197 85.224 160.336 85.704C160.475 86.1733 160.688 86.552 160.976 86.84C161.264 87.128 161.611 87.272 162.016 87.272C162.421 87.272 162.763 87.128 163.04 86.84C163.328 86.552 163.536 86.168 163.664 85.688C163.803 85.208 163.899 84.7493 163.952 84.312ZM141 82.952C141 81.096 140.653 79.64 139.96 78.584C139.267 77.528 138.285 77 137.016 77C135.736 77 134.744 77.528 134.04 78.584C133.347 79.64 133 81.096 133 82.952C133 84.808 133.347 86.264 134.04 87.32C134.744 88.376 135.736 88.904 137.016 88.904C138.285 88.904 139.267 88.376 139.96 87.32C140.653 86.264 141 84.808 141 82.952ZM139.032 82.952C139.032 83.4213 139.005 83.8747 138.952 84.312C138.899 84.7493 138.803 85.208 138.664 85.688C138.536 86.168 138.328 86.552 138.04 86.84C137.763 87.128 137.421 87.272 137.016 87.272C136.611 87.272 136.264 87.128 135.976 86.84C135.688 86.552 135.475 86.1733 135.336 85.704C135.197 85.224 135.101 84.76 135.048 84.312C134.995 83.864 134.968 83.4107 134.968 82.952C134.968 82.4827 134.995 82.0293 135.048 81.592C135.101 81.144 135.197 80.68 135.336 80.2C135.475 79.72 135.688 79.336 135.976 79.048C136.264 78.7493 136.611 78.6 137.016 78.6C137.421 78.6 137.763 78.7493 138.04 79.048C138.328 79.336 138.536 79.72 138.664 80.2C138.803 80.68 138.899 81.144 138.952 81.592C139.005 82.0293 139.032 82.4827 139.032 82.952ZM112.96 -26.416C113.653 -25.36 114 -23.904 114 -22.048C114 -20.192 113.653 -18.736 112.96 -17.68C112.267 -16.624 111.285 -16.096 110.016 -16.096C108.736 -16.096 107.744 -16.624 107.04 -17.68C106.347 -18.736 106 -20.192 106 -22.048C106 -23.904 106.347 -25.36 107.04 -26.416C107.744 -27.472 108.736 -28 110.016 -28C111.285 -28 112.267 -27.472 112.96 -26.416ZM111.952 -20.688C112.005 -21.1253 112.032 -21.5787 112.032 -22.048C112.032 -22.5173 112.005 -22.9707 111.952 -23.408C111.899 -23.856 111.803 -24.32 111.664 -24.8C111.536 -25.28 111.328 -25.664 111.04 -25.952C110.763 -26.2507 110.421 -26.4 110.016 -26.4C109.611 -26.4 109.264 -26.2507 108.976 -25.952C108.688 -25.664 108.475 -25.28 108.336 -24.8C108.197 -24.32 108.101 -23.856 108.048 -23.408C107.995 -22.9707 107.968 -22.5173 107.968 -22.048C107.968 -21.5893 107.995 -21.136 108.048 -20.688C108.101 -20.24 108.197 -19.776 108.336 -19.296C108.475 -18.8267 108.688 -18.448 108.976 -18.16C109.264 -17.872 109.611 -17.728 110.016 -17.728C110.421 -17.728 110.763 -17.872 111.04 -18.16C111.328 -18.448 111.536 -18.832 111.664 -19.312C111.803 -19.792 111.899 -20.2507 111.952 -20.688ZM166 -22.048C166 -23.904 165.653 -25.36 164.96 -26.416C164.267 -27.472 163.285 -28 162.016 -28C160.736 -28 159.744 -27.472 159.04 -26.416C158.347 -25.36 158 -23.904 158 -22.048C158 -20.192 158.347 -18.736 159.04 -17.68C159.744 -16.624 160.736 -16.096 162.016 -16.096C163.285 -16.096 164.267 -16.624 164.96 -17.68C165.653 -18.736 166 -20.192 166 -22.048ZM164.032 -22.048C164.032 -21.5787 164.005 -21.1253 163.952 -20.688C163.899 -20.2507 163.803 -19.792 163.664 -19.312C163.536 -18.832 163.328 -18.448 163.04 -18.16C162.763 -17.872 162.421 -17.728 162.016 -17.728C161.611 -17.728 161.264 -17.872 160.976 -18.16C160.688 -18.448 160.475 -18.8267 160.336 -19.296C160.197 -19.776 160.101 -20.24 160.048 -20.688C159.995 -21.136 159.968 -21.5893 159.968 -22.048C159.968 -22.5173 159.995 -22.9707 160.048 -23.408C160.101 -23.856 160.197 -24.32 160.336 -24.8C160.475 -25.28 160.688 -25.664 160.976 -25.952C161.264 -26.2507 161.611 -26.4 162.016 -26.4C162.421 -26.4 162.763 -26.2507 163.04 -25.952C163.328 -25.664 163.536 -25.28 163.664 -24.8C163.803 -24.32 163.899 -23.856 163.952 -23.408C164.005 -22.9707 164.032 -22.5173 164.032 -22.048ZM139.96 -26.416C140.653 -25.36 141 -23.904 141 -22.048C141 -20.192 140.653 -18.736 139.96 -17.68C139.267 -16.624 138.285 -16.096 137.016 -16.096C135.736 -16.096 134.744 -16.624 134.04 -17.68C133.347 -18.736 133 -20.192 133 -22.048C133 -23.904 133.347 -25.36 134.04 -26.416C134.744 -27.472 135.736 -28 137.016 -28C138.285 -28 139.267 -27.472 139.96 -26.416ZM138.952 -20.688C139.005 -21.1253 139.032 -21.5787 139.032 -22.048C139.032 -22.5173 139.005 -22.9707 138.952 -23.408C138.899 -23.856 138.803 -24.32 138.664 -24.8C138.536 -25.28 138.328 -25.664 138.04 -25.952C137.763 -26.2507 137.421 -26.4 137.016 -26.4C136.611 -26.4 136.264 -26.2507 135.976 -25.952C135.688 -25.664 135.475 -25.28 135.336 -24.8C135.197 -24.32 135.101 -23.856 135.048 -23.408C134.995 -22.9707 134.968 -22.5173 134.968 -22.048C134.968 -21.5893 134.995 -21.136 135.048 -20.688C135.101 -20.24 135.197 -19.776 135.336 -19.296C135.475 -18.8267 135.688 -18.448 135.976 -18.16C136.264 -17.872 136.611 -17.728 137.016 -17.728C137.421 -17.728 137.763 -17.872 138.04 -18.16C138.328 -18.448 138.536 -18.832 138.664 -19.312C138.803 -19.792 138.899 -20.2507 138.952 -20.688ZM101 -4.048C101 -5.904 100.653 -7.36 99.96 -8.416C99.2667 -9.472 98.2853 -10 97.016 -10C95.736 -10 94.744 -9.472 94.04 -8.416C93.3467 -7.36 93 -5.904 93 -4.048C93 -2.192 93.3467 -0.736 94.04 0.32C94.744 1.376 95.736 1.904 97.016 1.904C98.2853 1.904 99.2667 1.376 99.96 0.32C100.653 -0.736 101 -2.192 101 -4.048ZM99.032 -4.048C99.032 -3.57867 99.0053 -3.12534 98.952 -2.688C98.8987 -2.25067 98.8027 -1.792 98.664 -1.312C98.536 -0.832001 98.328 -0.447998 98.04 -0.16C97.7627 0.127998 97.4213 0.271999 97.016 0.271999C96.6107 0.271999 96.264 0.127998 95.976 -0.16C95.688 -0.447998 95.4747 -0.826668 95.336 -1.296C95.1973 -1.776 95.1013 -2.24 95.048 -2.688C94.9947 -3.136 94.968 -3.58933 94.968 -4.048C94.968 -4.51733 94.9947 -4.97066 95.048 -5.408C95.1013 -5.856 95.1973 -6.32 95.336 -6.8C95.4747 -7.28 95.688 -7.664 95.976 -7.952C96.264 -8.25067 96.6107 -8.4 97.016 -8.4C97.4213 -8.4 97.7627 -8.25067 98.04 -7.952C98.328 -7.664 98.536 -7.28 98.664 -6.8C98.8027 -6.32 98.8987 -5.856 98.952 -5.408C99.0053 -4.97066 99.032 -4.51733 99.032 -4.048ZM151.96 -8.416C152.653 -7.36 153 -5.904 153 -4.048C153 -2.192 152.653 -0.736 151.96 0.32C151.267 1.376 150.285 1.904 149.016 1.904C147.736 1.904 146.744 1.376 146.04 0.32C145.347 -0.736 145 -2.192 145 -4.048C145 -5.904 145.347 -7.36 146.04 -8.416C146.744 -9.472 147.736 -10 149.016 -10C150.285 -10 151.267 -9.472 151.96 -8.416ZM150.952 -2.688C151.005 -3.12534 151.032 -3.57867 151.032 -4.048C151.032 -4.51733 151.005 -4.97066 150.952 -5.408C150.899 -5.856 150.803 -6.32 150.664 -6.8C150.536 -7.28 150.328 -7.664 150.04 -7.952C149.763 -8.25067 149.421 -8.4 149.016 -8.4C148.611 -8.4 148.264 -8.25067 147.976 -7.952C147.688 -7.664 147.475 -7.28 147.336 -6.8C147.197 -6.32 147.101 -5.856 147.048 -5.408C146.995 -4.97066 146.968 -4.51733 146.968 -4.048C146.968 -3.58933 146.995 -3.136 147.048 -2.688C147.101 -2.24 147.197 -1.776 147.336 -1.296C147.475 -0.826668 147.688 -0.447998 147.976 -0.16C148.264 0.127998 148.611 0.271999 149.016 0.271999C149.421 0.271999 149.763 0.127998 150.04 -0.16C150.328 -0.447998 150.536 -0.832001 150.664 -1.312C150.803 -1.792 150.899 -2.25067 150.952 -2.688ZM128 -4.048C128 -5.904 127.653 -7.36 126.96 -8.416C126.267 -9.472 125.285 -10 124.016 -10C122.736 -10 121.744 -9.472 121.04 -8.416C120.347 -7.36 120 -5.904 120 -4.048C120 -2.192 120.347 -0.736 121.04 0.32C121.744 1.376 122.736 1.904 124.016 1.904C125.285 1.904 126.267 1.376 126.96 0.32C127.653 -0.736 128 -2.192 128 -4.048ZM126.032 -4.048C126.032 -3.57867 126.005 -3.12534 125.952 -2.688C125.899 -2.25067 125.803 -1.792 125.664 -1.312C125.536 -0.832001 125.328 -0.447998 125.04 -0.16C124.763 0.127998 124.421 0.271999 124.016 0.271999C123.611 0.271999 123.264 0.127998 122.976 -0.16C122.688 -0.447998 122.475 -0.826668 122.336 -1.296C122.197 -1.776 122.101 -2.24 122.048 -2.688C121.995 -3.136 121.968 -3.58933 121.968 -4.048C121.968 -4.51733 121.995 -4.97066 122.048 -5.408C122.101 -5.856 122.197 -6.32 122.336 -6.8C122.475 -7.28 122.688 -7.664 122.976 -7.952C123.264 -8.25067 123.611 -8.4 124.016 -8.4C124.421 -8.4 124.763 -8.25067 125.04 -7.952C125.328 -7.664 125.536 -7.28 125.664 -6.8C125.803 -6.32 125.899 -5.856 125.952 -5.408C126.005 -4.97066 126.032 -4.51733 126.032 -4.048ZM139.96 43.584C140.653 44.64 141 46.096 141 47.952C141 49.808 140.653 51.264 139.96 52.32C139.267 53.376 138.285 53.904 137.016 53.904C135.736 53.904 134.744 53.376 134.04 52.32C133.347 51.264 133 49.808 133 47.952C133 46.096 133.347 44.64 134.04 43.584C134.744 42.528 135.736 42 137.016 42C138.285 42 139.267 42.528 139.96 43.584ZM138.952 49.312C139.005 48.8747 139.032 48.4213 139.032 47.952C139.032 47.4827 139.005 47.0293 138.952 46.592C138.899 46.144 138.803 45.68 138.664 45.2C138.536 44.72 138.328 44.336 138.04 44.048C137.763 43.7493 137.421 43.6 137.016 43.6C136.611 43.6 136.264 43.7493 135.976 44.048C135.688 44.336 135.475 44.72 135.336 45.2C135.197 45.68 135.101 46.144 135.048 46.592C134.995 47.0293 134.968 47.4827 134.968 47.952C134.968 48.4107 134.995 48.864 135.048 49.312C135.101 49.76 135.197 50.224 135.336 50.704C135.475 51.1733 135.688 51.552 135.976 51.84C136.264 52.128 136.611 52.272 137.016 52.272C137.421 52.272 137.763 52.128 138.04 51.84C138.328 51.552 138.536 51.168 138.664 50.688C138.803 50.208 138.899 49.7493 138.952 49.312ZM110.36 -60.664V-51.672H112.28V-63H110.536L107 -60.152L108.12 -58.824L110.36 -60.664ZM162.36 -51.672V-60.664L160.12 -58.824L159 -60.152L162.536 -63H164.28V-51.672H162.36ZM137.36 -60.664V-51.672H139.28V-63H137.536L134 -60.152L135.12 -58.824L137.36 -60.664ZM112.96 95.584C113.653 96.64 114 98.096 114 99.952C114 101.808 113.653 103.264 112.96 104.32C112.267 105.376 111.285 105.904 110.016 105.904C108.736 105.904 107.744 105.376 107.04 104.32C106.347 103.264 106 101.808 106 99.952C106 98.096 106.347 96.64 107.04 95.584C107.744 94.528 108.736 94 110.016 94C111.285 94 112.267 94.528 112.96 95.584ZM111.952 101.312C112.005 100.875 112.032 100.421 112.032 99.952C112.032 99.4827 112.005 99.0293 111.952 98.592C111.899 98.144 111.803 97.68 111.664 97.2C111.536 96.72 111.328 96.336 111.04 96.048C110.763 95.7493 110.421 95.6 110.016 95.6C109.611 95.6 109.264 95.7493 108.976 96.048C108.688 96.336 108.475 96.72 108.336 97.2C108.197 97.68 108.101 98.144 108.048 98.592C107.995 99.0293 107.968 99.4827 107.968 99.952C107.968 100.411 107.995 100.864 108.048 101.312C108.101 101.76 108.197 102.224 108.336 102.704C108.475 103.173 108.688 103.552 108.976 103.84C109.264 104.128 109.611 104.272 110.016 104.272C110.421 104.272 110.763 104.128 111.04 103.84C111.328 103.552 111.536 103.168 111.664 102.688C111.803 102.208 111.899 101.749 111.952 101.312ZM166 99.952C166 98.096 165.653 96.64 164.96 95.584C164.267 94.528 163.285 94 162.016 94C160.736 94 159.744 94.528 159.04 95.584C158.347 96.64 158 98.096 158 99.952C158 101.808 158.347 103.264 159.04 104.32C159.744 105.376 160.736 105.904 162.016 105.904C163.285 105.904 164.267 105.376 164.96 104.32C165.653 103.264 166 101.808 166 99.952ZM164.032 99.952C164.032 100.421 164.005 100.875 163.952 101.312C163.899 101.749 163.803 102.208 163.664 102.688C163.536 103.168 163.328 103.552 163.04 103.84C162.763 104.128 162.421 104.272 162.016 104.272C161.611 104.272 161.264 104.128 160.976 103.84C160.688 103.552 160.475 103.173 160.336 102.704C160.197 102.224 160.101 101.76 160.048 101.312C159.995 100.864 159.968 100.411 159.968 99.952C159.968 99.4827 159.995 99.0293 160.048 98.592C160.101 98.144 160.197 97.68 160.336 97.2C160.475 96.72 160.688 96.336 160.976 96.048C161.264 95.7493 161.611 95.6 162.016 95.6C162.421 95.6 162.763 95.7493 163.04 96.048C163.328 96.336 163.536 96.72 163.664 97.2C163.803 97.68 163.899 98.144 163.952 98.592C164.005 99.0293 164.032 99.4827 164.032 99.952ZM139.96 95.584C140.653 96.64 141 98.096 141 99.952C141 101.808 140.653 103.264 139.96 104.32C139.267 105.376 138.285 105.904 137.016 105.904C135.736 105.904 134.744 105.376 134.04 104.32C133.347 103.264 133 101.808 133 99.952C133 98.096 133.347 96.64 134.04 95.584C134.744 94.528 135.736 94 137.016 94C138.285 94 139.267 94.528 139.96 95.584ZM138.952 101.312C139.005 100.875 139.032 100.421 139.032 99.952C139.032 99.4827 139.005 99.0293 138.952 98.592C138.899 98.144 138.803 97.68 138.664 97.2C138.536 96.72 138.328 96.336 138.04 96.048C137.763 95.7493 137.421 95.6 137.016 95.6C136.611 95.6 136.264 95.7493 135.976 96.048C135.688 96.336 135.475 96.72 135.336 97.2C135.197 97.68 135.101 98.144 135.048 98.592C134.995 99.0293 134.968 99.4827 134.968 99.952C134.968 100.411 134.995 100.864 135.048 101.312C135.101 101.76 135.197 102.224 135.336 102.704C135.475 103.173 135.688 103.552 135.976 103.84C136.264 104.128 136.611 104.272 137.016 104.272C137.421 104.272 137.763 104.128 138.04 103.84C138.328 103.552 138.536 103.168 138.664 102.688C138.803 102.208 138.899 101.749 138.952 101.312ZM97.36 -42.664V-33.672H99.28V-45H97.536L94 -42.152L95.12 -40.824L97.36 -42.664ZM149.36 -33.672V-42.664L147.12 -40.824L146 -42.152L149.536 -45H151.28V-33.672H149.36ZM124.36 -42.664V-33.672H126.28V-45H124.536L121 -42.152L122.12 -40.824L124.36 -42.664ZM110.36 1.328V-7.664L108.12 -5.824L107 -7.152L110.536 -10H112.28V1.328H110.36ZM162.36 -7.664V1.328H164.28V-10H162.536L159 -7.152L160.12 -5.824L162.36 -7.664ZM137.36 1.328V-7.664L135.12 -5.824L134 -7.152L137.536 -10H139.28V1.328H137.36ZM110.36 10.336V19.328H112.28V8H110.536L107 10.848L108.12 12.176L110.36 10.336ZM162.36 19.328V10.336L160.12 12.176L159 10.848L162.536 8H164.28V19.328H162.36ZM110.36 44.336V53.328H112.28V42H110.536L107 44.848L108.12 46.176L110.36 44.336ZM162.36 53.328V44.336L160.12 46.176L159 44.848L162.536 42H164.28V53.328H162.36ZM137.36 10.336V19.328H139.28V8H137.536L134 10.848L135.12 12.176L137.36 10.336ZM110.36 71.328V62.336L108.12 64.176L107 62.848L110.536 60H112.28V71.328H110.36ZM162.36 62.336V71.328H164.28V60H162.536L159 62.848L160.12 64.176L162.36 62.336ZM137.36 71.328V62.336L135.12 64.176L134 62.848L137.536 60H139.28V71.328H137.36ZM97.36 62.336V71.328H99.28V60H97.536L94 62.848L95.12 64.176L97.36 62.336ZM149.36 71.328V62.336L147.12 64.176L146 62.848L149.536 60H151.28V71.328H149.36ZM124.36 62.336V71.328H126.28V60H124.536L121 62.848L122.12 64.176L124.36 62.336ZM97.36 19.328V10.336L95.12 12.176L94 10.848L97.536 8H99.28V19.328H97.36ZM149.36 10.336V19.328H151.28V8H149.536L146 10.848L147.12 12.176L149.36 10.336ZM124.36 19.328V10.336L122.12 12.176L121 10.848L124.536 8H126.28V19.328H124.36ZM110.36 114.336V123.328H112.28V112H110.536L107 114.848L108.12 116.176L110.36 114.336ZM162.36 123.328V114.336L160.12 116.176L159 114.848L162.536 112H164.28V123.328H162.36ZM137.36 114.336V123.328H139.28V112H137.536L134 114.848L135.12 116.176L137.36 114.336ZM97.36 88.328V79.336L95.12 81.176L94 79.848L97.536 77H99.28V88.328H97.36ZM149.36 79.336V88.328H151.28V77H149.536L146 79.848L147.12 81.176L149.36 79.336ZM124.36 88.328V79.336L122.12 81.176L121 79.848L124.536 77H126.28V88.328H124.36ZM97.36 27.336V36.328H99.28V25H97.536L94 27.848L95.12 29.176L97.36 27.336ZM149.36 36.328V27.336L147.12 29.176L146 27.848L149.536 25H151.28V36.328H149.36ZM124.36 27.336V36.328H126.28V25H124.536L121 27.848L122.12 29.176L124.36 27.336ZM124.36 53.328V44.336L122.12 46.176L121 44.848L124.536 42H126.28V53.328H124.36ZM97.36 96.336V105.328H99.28V94H97.536L94 96.848L95.12 98.176L97.36 96.336ZM149.36 105.328V96.336L147.12 98.176L146 96.848L149.536 94H151.28V105.328H149.36ZM124.36 96.336V105.328H126.28V94H124.536L121 96.848L122.12 98.176L124.36 96.336Z" fill="url(#paint2_linear_1_154)"/>
</g>
<defs>
<linearGradient id="paint0_linear_1_154" x1="174" y1="87" x2="296" y2="87" gradientUnits="userSpaceOnUse">
<stop stop-color="#0C65C9"/>
<stop offset="1" stop-color="#58A4EA"/>
</linearGradient>
<linearGradient id="paint1_linear_1_154" x1="82.4998" y1="3.49991" x2="31.9999" y2="98.4999" gradientUnits="userSpaceOnUse">
<stop stop-color="#0C65C9"/>
<stop offset="1" stop-color="#58A4EA"/>
</linearGradient>
<linearGradient id="paint2_linear_1_154" x1="160.5" y1="-48.5001" x2="110" y2="46.4999" gradientUnits="userSpaceOnUse">
<stop stop-color="#0C65C9"/>
<stop offset="1" stop-color="#58A4EA"/>
</linearGradient>
</defs>
</svg>
