<svg width="78" height="60" viewBox="0 0 78 57" fill="none" xmlns="http://www.w3.org/2000/svg">
<path d="M0.4602 33.2267C0.777238 35.6182 1.96546 37.8144 3.80322 39.4054C5.64099 40.9965 8.0028 41.8739 10.4481 41.8739C12.8934 41.8739 15.2552 40.9965 17.093 39.4054C18.9307 37.8144 20.119 35.6182 20.436 33.2267H0.4602ZM54.8839 53.2282C54.8845 53.4304 54.8447 53.6307 54.7668 53.8177C54.6889 54.0047 54.5744 54.1748 54.4298 54.3181C54.2852 54.4614 54.1134 54.5753 53.9242 54.6531C53.7349 54.7309 53.532 54.7711 53.327 54.7715H24.2237C23.3688 54.7715 22.6637 54.0791 22.6637 53.2282C22.6657 52.8217 22.8311 52.4326 23.1235 52.1462C23.416 51.8598 23.8116 51.6994 24.2237 51.7003H53.3255C54.1866 51.7003 54.8839 52.3834 54.8839 53.2282ZM22.8337 55.5578H54.7154V60H22.8337V55.5578ZM57.564 33.2267C57.8789 35.6198 59.0661 37.8181 60.9039 39.4111C62.7417 41.0041 65.1045 41.8829 67.5511 41.8834C69.9974 41.8834 72.36 41.0047 74.1972 39.4115C76.0343 37.8183 77.2204 35.6197 77.5336 33.2267H57.564ZM76.9844 30.1354L68.8054 19.0229H73.178C74.242 19.0229 75.0984 18.1628 75.0984 17.0996C75.0984 16.0455 74.2404 15.1946 73.178 15.1946H50.0152C49.3276 13.3265 48.1532 11.67 46.6103 10.3918C45.0674 9.11363 43.2104 8.25886 41.2261 7.91353V1.91722C41.2261 0.850905 40.3588 5.63872e-06 39.2839 5.63872e-06L39.103 0.0200087L38.922 5.63872e-06C38.6668 -0.000606331 38.414 0.0486003 38.1781 0.14479C37.9423 0.240979 37.7281 0.382251 37.5478 0.560464C37.3676 0.738676 37.2249 0.950308 37.1279 1.18316C37.031 1.41602 36.9817 1.6655 36.9829 1.91722V7.91045C34.9989 8.25554 33.1422 9.11026 31.5997 10.3885C30.0573 11.6668 28.8836 13.3234 28.197 15.1916H5.02944C3.97332 15.1916 3.1122 16.0425 3.1122 17.0965C3.1122 18.1613 3.97332 19.0199 5.02944 19.0199H9.20244L1.0218 30.1323H0V32.185H20.9009V30.1323H19.8744L11.6969 19.0229H30.6805C30.6805 18.589 30.7289 18.1628 30.7944 17.755C30.8615 17.5627 30.9067 17.3673 30.9067 17.1657C31.2584 15.7039 32.0114 14.3658 33.0833 13.2983C34.1551 12.2308 35.5043 11.475 36.9829 11.114V32.1896H36.9018C36.7349 40.1169 32.9113 47.0303 27.2392 50.9155H50.973C45.2993 47.0303 41.4788 40.1169 41.3026 32.1896H41.2277V11.114C42.7061 11.4751 44.055 12.2309 45.1266 13.2984C46.1982 14.366 46.951 15.704 47.3023 17.1657C47.3086 17.3673 47.3507 17.5627 47.4193 17.755C47.4817 18.1643 47.5207 18.589 47.5207 19.0229H66.3062L58.1256 30.1354H57.1054V32.188H78V30.1354H76.9844ZM9.6174 30.1354H3.0888L9.6174 21.2648V30.1354ZM11.2882 30.1354V21.2648L17.8168 30.1354H11.2882ZM66.7181 30.1354H60.1864L66.7181 21.2648V30.1354ZM68.381 30.1354V21.2648L74.9174 30.1354H68.381ZM12.388 12.5204C12.3736 13.0181 12.1632 13.4906 11.8012 13.8376C11.4393 14.1846 10.9544 14.3787 10.4497 14.3787C9.94491 14.3787 9.46005 14.1846 9.09811 13.8376C8.73617 13.4906 8.52568 13.0181 8.51136 12.5204C8.51136 11.4648 9.38184 10.6032 10.4536 10.6032C11.5206 10.6016 12.388 11.4648 12.388 12.5204ZM69.4902 12.4188C69.4902 13.4821 68.6228 14.3253 67.5527 14.3253C67.2982 14.3269 67.0459 14.2787 66.8104 14.1836C66.5748 14.0884 66.3608 13.9481 66.1806 13.7708C66.0004 13.5935 65.8577 13.3827 65.7606 13.1507C65.6636 12.9186 65.6141 12.6699 65.6152 12.4188C65.6047 12.1614 65.647 11.9046 65.7397 11.6637C65.8323 11.4228 65.9734 11.2029 66.1543 11.0171C66.3353 10.8313 66.5524 10.6835 66.7927 10.5826C67.033 10.4816 67.2915 10.4295 67.5527 10.4295C67.8139 10.4295 68.0724 10.4816 68.3127 10.5826C68.553 10.6835 68.7701 10.8313 68.951 11.0171C69.132 11.2029 69.273 11.4228 69.3657 11.6637C69.4583 11.9046 69.5007 12.1614 69.4902 12.4188Z" fill="url(#paint0_linear_1_122)"/>
<defs>
<linearGradient id="paint0_linear_1_122" x1="47" y1="-13.5" x2="90.8124" y2="58.4374" gradientUnits="userSpaceOnUse">
<stop stop-color="#E42689"/>
<stop offset="1" stop-color="#FCB62A"/>
</linearGradient>
</defs>
</svg>
