<svg width="90" height="92" viewBox="0 0 90 93" fill="none" xmlns="http://www.w3.org/2000/svg">
<path d="M16.0805 56.4534C22.7256 60.6575 29.642 64.5903 36.8296 67.7095C43.6104 70.5574 50.7979 72.5916 58.2568 73.2697C62.1896 73.6765 66.1224 73.5409 69.9197 73.2697C73.8525 72.8629 77.9209 72.0492 81.4469 70.0149C84.5661 68.2519 87.1428 65.404 88.2277 61.878C89.4482 58.0808 88.3633 54.2836 86.3291 50.8932C84.4305 47.6385 81.9894 44.7906 79.4127 42.0783C76.836 39.5016 74.1237 37.0605 71.2758 34.8907C65.4444 30.551 58.9348 27.025 52.2897 24.4483C45.6446 21.8716 38.5926 20.1086 31.5406 19.1593C28.0146 18.6169 24.4886 18.3456 20.9627 18.3456C17.7079 18.3456 14.3175 18.6169 11.1984 19.7018C8.07924 20.9223 5.09571 22.9565 2.92587 25.5332C0.891642 28.1099 -0.328893 31.3647 0.0779522 34.6194C0.484797 37.8742 2.11218 40.8577 4.01079 43.57C6.31624 46.6892 8.75731 49.4015 11.1984 51.9782C12.2833 53.1987 13.5038 54.2836 14.5888 55.5041C15.2668 56.1822 16.2161 55.0973 15.6737 54.4192C13.3682 51.9782 10.9271 49.5371 8.75731 46.9604C6.58747 44.5193 4.41763 41.807 3.06148 38.6879C2.51902 37.3317 1.97656 35.9756 1.84095 34.4838C1.56972 33.1277 1.84095 31.7715 2.38341 30.2798C3.46833 27.2962 5.63817 24.8552 8.21485 23.0922C10.9271 21.3292 13.7751 20.3799 17.0298 20.1086C20.4202 19.8374 23.9462 19.973 27.3366 20.2443C34.1173 20.9223 40.7624 22.2785 47.272 24.3127C54.0527 26.4825 60.4266 29.4661 66.3937 33.2633C72.2251 37.0605 77.6497 41.6714 81.9894 47.2316C84.2948 50.0795 86.7359 53.3343 87.414 57.1315C87.9564 60.5219 86.6003 63.9123 84.2948 66.3533C81.7182 69.0656 78.1922 70.5574 74.5306 71.3711C70.7333 72.1848 66.9361 72.3204 63.1389 72.3204C55.9513 72.1848 48.7637 70.8286 41.983 68.3876C34.931 65.8109 28.2859 62.2849 21.912 58.4877C20.2846 57.5384 18.5216 56.4534 16.8942 55.3685C16.0805 54.6905 15.2668 55.911 16.0805 56.4534Z" fill="url(#paint0_linear_1_297)"/>
<path d="M65.8537 26.3468C66.2605 33.8056 66.3961 41.2644 65.718 48.7232C65.04 55.6396 63.6838 62.556 60.9715 69.0655C59.6154 72.4558 57.988 75.7106 55.9538 78.6941C54.0552 81.8133 51.7497 84.9324 48.9018 87.2379C46.1895 89.5433 42.7991 91.0351 39.1375 90.8995C37.3745 90.8995 35.6115 90.357 34.1198 89.5433C32.628 88.594 31.4075 87.3735 30.3225 85.8817C28.1527 82.7626 26.7965 79.2366 25.576 75.7106C24.3555 72.049 23.5418 68.2518 22.8637 64.4546C21.7788 56.8601 21.9144 48.9945 23.1349 41.4C24.2199 34.0768 26.3897 27.0248 29.102 20.2441C30.4582 17.125 31.9499 13.8702 33.7129 11.0223C35.4759 8.17437 37.5101 5.86892 40.2224 4.10592C43.206 2.20731 46.7319 1.12239 50.2579 1.52924C52.9702 1.80047 55.2757 3.15662 57.0387 5.32646C59.3441 7.36068 60.5647 9.93736 61.6496 12.514C62.8701 15.362 63.6838 18.2099 64.6331 21.0578C65.04 22.4139 65.4468 23.6345 65.8537 24.9906C66.1249 25.9399 67.6166 25.5331 67.2098 24.5838C65.3112 18.8879 63.8194 12.7853 60.7003 7.49629C59.3441 5.19084 57.4455 2.88539 55.1401 1.52924C52.1565 -0.0981418 48.4949 -0.369372 45.3758 0.444318C41.8498 1.25801 38.595 3.29223 36.0184 6.00453C33.7129 8.4456 31.9499 11.5647 30.4582 14.5483C27.2034 21.0578 24.7623 28.1098 23.1349 35.2974C21.3719 43.163 20.5583 51.1643 21.1007 59.1656C21.6432 67.0312 23.4062 74.8969 26.7965 82.0845C28.2883 85.4749 30.3225 89.0009 33.5773 90.8995C36.8321 92.7981 40.9005 92.9337 44.4265 91.7132C48.0881 90.4926 51.0716 87.9159 53.3771 84.9324C55.8181 81.9489 57.8524 78.6941 59.6154 75.3038C63.0057 68.7942 65.1756 61.8779 66.3961 54.6903C67.6166 47.2315 67.7523 39.637 67.481 32.1782C67.481 30.2796 67.3454 28.2454 67.2098 26.3468C67.2098 25.3975 65.8537 25.3975 65.8537 26.3468Z" fill="url(#paint1_linear_1_297)"/>
<path d="M73.3093 50.2148C67.8847 55.0969 62.3244 59.8434 56.2218 63.9119C50.5259 67.7091 44.4233 70.9639 37.9138 72.9981C34.5234 74.083 31.133 74.7611 27.607 75.3035C23.6742 75.846 19.6057 76.1172 15.6729 75.4392C12.1469 74.7611 8.75655 73.1337 6.4511 70.2858C5.50179 68.9296 4.6881 67.4379 4.41687 65.8105C4.01003 63.9119 4.28126 61.8777 4.82372 59.979C5.50179 57.9448 6.31548 56.1818 7.26478 54.4188C8.07847 52.9271 9.02778 51.2997 9.84147 49.8079C11.7401 46.8244 13.9099 44.1121 16.2154 41.5354C20.9619 36.3821 26.3865 31.9068 32.3536 28.1095C38.3206 24.4479 44.6945 21.4644 51.3396 19.159C54.5944 18.074 57.8492 17.1247 61.1039 16.4467C64.3587 15.7686 67.749 15.2261 71.0038 15.4973C74.2586 15.9042 77.5133 17.1247 79.9544 19.159C82.3955 21.0576 84.2941 23.9055 84.5653 27.0246C84.8365 30.1438 83.7516 33.3985 82.3955 36.1108C80.9037 39.3656 78.8695 42.3491 76.9709 45.197C76.0216 46.5532 75.2079 47.7737 74.3942 49.1299C73.8517 49.9435 75.2079 50.6216 75.6147 49.8079C77.5133 46.8244 79.5475 43.8409 81.4462 40.8573C83.2092 37.8738 84.9721 34.6191 85.7858 31.2287C86.1927 29.7369 86.3283 28.1095 86.0571 26.4822C85.9214 24.8548 85.2434 23.2274 84.4297 21.8713C82.6667 18.8877 79.8188 16.7179 76.6996 15.3617C73.5805 14.0056 70.1901 13.5987 66.6641 13.87C63.0025 14.1412 59.3409 14.9549 55.8149 16.0398C49.0342 17.9384 42.3891 20.5151 36.1508 23.9055C29.7769 27.4315 23.8098 31.6355 18.5208 36.6533C13.3675 41.671 8.89216 47.3669 5.50179 53.8764C3.60318 57.538 1.9758 61.742 2.78949 65.9461C3.46757 69.3365 5.90864 72.32 8.89216 74.083C12.4182 76.2528 16.6222 76.9309 20.6907 76.7953C24.6235 76.7953 28.5563 76.2528 32.3536 75.4392C39.2699 73.9474 45.915 71.2351 52.1533 67.7091C58.5272 64.0475 64.3587 59.4366 69.9189 54.6901C71.4107 53.4695 72.7668 52.249 74.2586 50.8928C75.0723 50.6216 73.9873 49.5367 73.3093 50.2148Z" fill="url(#paint2_linear_1_297)"/>
<path d="M44.1515 46.9594C43.2022 48.4512 44.4227 50.3498 46.0501 50.7567C47.8131 51.2991 49.1693 49.8074 49.5761 48.18C50.3898 45.0608 47.9487 41.128 44.4227 41.9417C41.4392 42.6198 40.2187 46.8238 41.8461 49.1293C42.931 50.621 44.9652 51.0279 46.5926 50.3498C48.3556 49.6717 49.7117 47.9087 49.983 46.0101C50.2542 44.1115 49.4405 41.6705 47.4063 41.128C45.9145 40.7212 44.1515 41.3992 43.0666 42.6198C41.9817 43.9759 41.8461 45.7389 43.0666 47.0951C44.1515 48.18 45.7789 48.5868 47.2707 48.3156C49.0336 47.9087 50.1186 46.6882 50.2542 44.9252C50.3898 42.7554 48.7624 40.8568 46.5926 40.5855C44.694 40.4499 42.7954 41.6705 42.5241 43.5691C42.2529 45.3321 43.3378 47.5019 45.2364 47.7731C47.135 48.18 49.1693 46.6882 49.4405 44.654C49.5761 42.891 48.22 41.6705 46.7282 41.3992C45.2364 41.128 43.4734 41.6705 42.6597 43.1622C41.8461 44.9252 42.6597 47.0951 44.1515 48.3156C44.9652 48.8581 45.7789 49.2649 46.7282 49.2649C46.9994 49.2649 47.2707 49.1293 47.4063 48.858C48.4912 46.9594 48.0843 44.2471 46.1857 42.891C45.9145 42.6198 45.5077 42.4841 45.1008 42.7554C43.4734 43.8403 42.931 46.1458 44.0159 47.9087C44.1515 48.18 44.5584 48.4512 44.9652 48.3156C45.7789 48.0444 46.5926 47.5019 46.9994 46.8238C47.4063 46.1457 47.5419 45.1964 47.135 44.5184C46.3213 43.2978 44.2871 43.1622 43.7447 44.654C43.4734 45.4677 44.694 46.1457 45.1008 45.4677C45.7789 44.5184 46.0501 43.5691 45.7789 42.3485C45.6433 41.6705 44.8296 41.6705 44.4227 41.9417C43.0666 43.0266 43.7447 45.1964 44.9652 45.8745C46.5926 46.8238 48.4912 45.4677 48.7624 43.8403C49.1693 41.9417 47.6775 40.4499 45.9145 40.0431C44.2871 39.7718 42.7954 40.4499 41.8461 41.8061C41.0324 43.0266 40.8967 44.654 41.3036 46.0101C41.7104 47.5019 42.931 48.5868 44.4227 48.858C47.6775 49.5361 51.0679 47.0951 50.9323 43.7047C50.7966 42.0773 49.983 40.3143 48.7624 39.365C48.4912 39.0938 48.0843 38.8225 47.8131 38.6869C47.4063 38.4157 46.8638 38.1445 46.457 38.1445C45.6433 38.1445 44.694 38.6869 44.0159 39.0938C41.168 40.8568 39.2694 44.9252 41.7104 47.7731C43.609 50.0786 47.6775 50.4854 49.8473 48.3156C52.1528 46.1458 51.7459 42.0773 49.4405 40.0431C46.8638 37.7376 42.7954 38.6869 40.7611 41.2636C39.6762 42.6198 39.405 44.5184 40.0831 46.1457C40.7611 47.9087 42.5241 48.858 44.2871 48.4512C45.1008 48.3156 45.7789 47.7731 46.1857 46.9594C46.7282 46.0101 45.2364 45.1964 44.694 46.1457C44.1515 47.0951 42.7954 47.0951 41.9817 46.2814C41.168 45.3321 41.3036 43.7047 41.8461 42.6198C43.0666 40.5855 46.1857 39.6362 48.0843 41.128C49.8473 42.6198 50.1186 45.6033 48.3556 47.2307C46.7282 48.7224 43.7447 48.18 42.6597 46.2814C41.9817 45.0608 42.1173 43.5691 42.931 42.3485C43.7447 40.9924 45.2364 40.0431 46.7282 39.7718C46.5926 39.7718 46.457 39.7718 46.3213 39.7718C48.22 40.3143 49.8473 42.6198 49.3049 44.654C49.1693 45.6033 48.4912 46.2814 47.6775 46.8238C47.2707 47.0951 46.8638 47.2307 46.3213 47.3663C45.9145 47.3663 45.372 47.5019 45.1008 47.3663C44.1515 47.2307 43.4734 46.6882 43.2022 45.8745C43.0666 45.6033 42.931 45.0608 42.931 44.7896C42.931 44.2471 42.931 43.9759 43.0666 43.5691C43.2022 43.2978 43.2022 43.2978 43.3378 43.0266C43.4734 42.7554 43.609 42.6198 43.609 42.4841C43.8803 42.2129 44.1515 41.9417 44.4227 41.8061C45.2364 41.5348 46.3214 41.6705 46.8638 42.4841C47.4063 43.1622 46.8638 44.654 45.9145 44.5184C45.7789 44.5184 45.6433 44.3828 45.6433 44.3828C45.5077 44.2471 45.5077 44.2471 45.5077 44.2471C45.5077 44.1115 45.372 43.9759 45.372 43.9759V43.8403C45.372 43.8403 45.372 43.5691 45.372 43.7047C45.372 43.8403 45.372 43.2978 45.372 43.5691C45.372 43.5691 45.5077 43.2978 45.372 43.4335C45.372 43.2978 45.372 43.4335 45.372 43.4335L45.5077 43.2978C45.1008 43.1622 44.5584 43.0266 44.1515 42.891C44.2871 43.4335 44.1515 43.9759 43.8803 44.3828C44.2871 44.654 44.8296 44.9252 45.2364 45.1964C45.2364 45.1964 45.1008 45.3321 45.2364 45.1964C45.2364 45.1964 45.1008 45.3321 45.1008 45.1964C45.1008 45.1964 44.9652 45.1964 45.1008 45.1964C45.372 45.1964 44.9652 45.1964 45.2364 45.1964C45.372 45.1964 45.372 45.1964 45.5077 45.3321L45.6433 45.4677C45.6433 45.6033 45.6433 45.4677 45.6433 45.6033V45.7389C45.6433 45.8745 45.5077 46.0101 45.372 46.1457C45.1008 46.417 44.8296 46.6882 44.4227 46.8238C44.694 46.9594 45.1008 47.0951 45.372 47.2307C44.8296 46.417 44.8296 45.0608 45.7789 44.5184C45.372 44.5184 45.1008 44.3828 44.694 44.3828C45.9145 45.3321 46.3213 46.9594 45.6433 48.3156C45.9145 48.18 46.1857 48.0444 46.3213 47.9087C45.1008 47.9087 44.0159 46.9594 43.7447 45.7389C43.609 45.1964 43.6091 44.654 43.8803 44.1115C44.0159 43.8403 44.4227 43.5691 44.694 43.4335C44.8296 43.4335 44.9652 43.2978 45.1008 43.2978H45.2364C45.5077 43.2978 45.1008 43.2978 45.372 43.2978C45.5077 43.2978 45.6433 43.2978 45.7789 43.2978C45.7789 43.2978 46.1857 43.2978 46.0501 43.2978C46.1857 43.2978 46.3213 43.2978 46.457 43.4335C46.457 43.4335 46.7282 43.5691 46.5926 43.4335C46.7282 43.4335 46.8638 43.5691 46.9994 43.5691C46.9994 43.5691 47.135 43.7047 46.9994 43.5691L47.135 43.7047L47.2707 43.8403C47.135 43.7047 47.2707 43.8403 47.2707 43.8403C47.2707 43.8403 47.4063 44.1115 47.4063 43.9759C47.5419 44.2471 47.5419 44.5184 47.4063 44.654C47.2707 45.1964 46.8638 45.6033 46.3213 45.8745C45.372 46.417 44.2871 45.8745 44.0159 44.9252C43.7447 43.9759 44.0159 42.7554 45.1008 42.3485C46.1857 41.9417 47.5419 42.4841 48.0843 43.5691C48.3556 44.1115 48.3556 45.0608 48.0843 45.4677C47.9487 45.7389 47.9487 45.7389 47.6775 46.0101C47.5419 46.1458 47.4063 46.2814 47.135 46.417C47.135 46.417 46.8638 46.5526 46.9994 46.417C47.135 46.417 46.8638 46.417 46.8638 46.417C47.135 46.6882 46.9994 46.6882 46.9994 46.6882C46.7282 46.6882 46.5926 46.8238 46.3213 46.6882C46.1857 46.6882 46.0501 46.6882 45.9145 46.6882C45.7789 46.6882 46.0501 46.6882 45.7789 46.6882H45.6433C45.372 46.6882 45.1008 46.5526 44.9652 46.417C44.5584 46.1458 44.2871 46.0101 44.1515 45.6033C44.1515 45.6033 44.0159 45.4677 44.1515 45.6033V45.4677C44.1515 45.3321 44.1515 45.1964 44.1515 45.1964C44.1515 45.0608 44.1515 44.9252 44.1515 44.7896C44.1515 44.9252 44.1515 44.7896 44.1515 44.7896C44.1515 44.654 44.1515 44.654 44.1515 44.5184C44.1515 44.3828 44.2871 44.1115 44.4227 43.9759L44.5584 43.8403C44.694 43.7047 44.8296 43.5691 44.8296 43.5691C44.694 43.7047 44.8296 43.5691 44.9652 43.5691L45.1008 43.4335C45.2364 43.4335 45.372 43.2978 45.372 43.2978C45.5077 43.2978 45.9145 43.1622 46.0501 43.0266C46.457 43.0266 46.8638 43.0266 47.2707 43.1622C47.5419 43.2978 47.5419 43.2978 47.8131 43.5691C48.0843 43.8403 48.22 44.2471 48.22 44.654C48.4912 46.0101 47.9487 47.2307 46.9994 48.18C46.1857 48.9937 44.8296 49.5361 43.7447 48.9937C43.609 48.9937 43.6091 48.858 43.4734 48.858C43.2022 48.7224 43.4734 48.858 43.4734 48.858L43.3378 48.7224C43.3378 48.7224 43.0666 48.4512 43.2022 48.5868C43.0666 48.4512 43.0666 48.3156 42.931 48.18C42.931 48.18 42.931 48.0444 42.7954 48.0444C42.7954 48.0444 42.7954 48.18 42.7954 48.0444C42.7954 47.9087 42.6597 47.7731 42.6597 47.6375C42.6597 47.5019 42.6597 47.3663 42.5241 47.2307C42.5241 47.3663 42.5241 47.2307 42.5241 47.2307C42.5241 47.0951 42.5241 47.0951 42.5241 46.9594C42.5241 46.8238 42.5241 46.6882 42.5241 46.5526V46.417C42.5241 46.5526 42.5241 46.417 42.5241 46.417C42.5241 46.1458 42.6597 45.8745 42.7954 45.6033C42.931 45.3321 43.2022 44.7896 43.4734 44.5184C43.6091 44.3828 43.609 44.3828 43.7447 44.2471C43.8803 44.1115 43.609 44.3828 43.7447 44.2471C43.7447 44.2471 43.8803 44.2471 43.8803 44.1115C44.1515 43.9759 44.1515 43.9759 44.5584 43.8403H44.694C44.5584 43.8403 44.694 43.8403 44.694 43.8403C44.8296 43.8403 44.9652 43.8403 45.1008 43.8403C45.2364 43.8403 45.5077 43.9759 45.7789 43.9759C46.5926 44.3828 47.2707 45.1964 47.5419 46.1457C47.6775 46.417 47.6775 46.6882 47.6775 46.8238C47.6775 46.9594 47.6775 47.0951 47.6775 47.2307V47.3663C47.6775 47.3663 47.6775 47.6375 47.6775 47.5019C47.5419 48.0444 47.4063 48.4512 47.135 48.858C46.9994 48.9937 46.9994 48.9937 46.8638 49.1293L46.7282 49.2649C46.5926 49.4005 46.8638 49.1293 46.7282 49.2649C46.7282 49.2649 46.5926 49.2649 46.7282 49.2649H46.5926C46.457 49.2649 46.7282 49.2649 46.5926 49.2649C46.5926 49.2649 46.3213 49.2649 46.457 49.2649C46.0501 49.1293 45.6433 48.9937 45.5077 48.5868C45.372 48.4512 45.372 48.3156 45.372 48.18V48.0444V47.9087C45.372 48.0444 45.5077 47.7731 45.5077 47.7731C46.1857 46.8238 44.694 46.0101 44.1515 46.9594Z" fill="url(#paint3_linear_1_297)"/>
<path d="M30.728 16.3101C31.9485 16.3101 32.7622 15.0896 32.7622 13.869C32.7622 13.3266 32.491 12.6485 32.0842 12.3773C31.5417 11.9704 30.8636 11.8348 30.1856 11.9704C28.8294 12.3773 28.0157 13.869 28.5582 15.2252C29.1006 16.3101 30.5924 16.717 31.6773 16.4457C32.8978 16.0389 33.5759 14.6827 33.1691 13.3266C32.7622 12.106 31.5417 11.1567 30.3212 11.5636C28.2869 12.106 27.4733 15.3608 29.2362 16.5813C31.4061 18.2087 34.254 15.3608 33.5759 13.0554C33.1691 11.8348 32.0842 11.1567 30.8636 11.1567C29.7787 11.1567 28.5582 11.6992 28.0157 12.6485C27.3376 13.5978 27.3376 14.954 28.1513 15.9033C28.8294 16.8526 30.0499 17.5306 31.2705 17.5306C32.491 17.5306 33.5759 16.717 33.9828 15.632C34.3896 14.6827 34.1184 13.5978 33.7115 12.6485C33.3047 11.6992 32.491 10.8855 31.5417 10.6143C30.5924 10.3431 29.3719 10.6143 28.6938 11.428C27.4733 12.7841 27.3376 15.4964 28.8294 16.717C29.2362 17.1238 29.6431 17.2594 30.1856 17.395C30.5924 17.5306 30.9992 17.2594 31.1349 16.8526C31.2705 16.4457 30.9992 16.0389 30.5924 15.9033C30.4568 15.9033 30.4568 15.9033 30.3212 15.7677C30.1856 15.7677 30.4568 15.7677 30.3212 15.7677H30.1856L30.0499 15.632C30.0499 15.632 29.9143 15.4964 30.0499 15.632C30.0499 15.632 29.9143 15.632 29.9143 15.4964L29.7787 15.3608C29.6431 15.2252 29.7787 15.3608 29.7787 15.3608C29.7787 15.3608 29.7787 15.2252 29.6431 15.2252L29.5075 15.0896C29.5075 15.0896 29.3719 14.8183 29.5075 14.954C29.5075 14.8183 29.3719 14.6827 29.3719 14.5471C29.3719 14.4115 29.3719 14.4115 29.3719 14.2759C29.3719 14.1403 29.3719 14.4115 29.3719 14.2759V14.1403C29.3719 14.0047 29.3719 13.869 29.3719 13.5978V13.4622C29.3719 13.4622 29.3719 13.5978 29.3719 13.4622C29.3719 13.3266 29.3719 13.191 29.3719 13.191C29.3719 13.0554 29.5075 12.9197 29.5075 12.7841C29.3719 12.9197 29.5075 12.7841 29.5075 12.6485C29.5075 12.5129 29.6431 12.5129 29.6431 12.3773C29.6431 12.3773 29.6431 12.3773 29.7787 12.2417C29.6431 12.3773 29.7787 12.2417 29.7787 12.2417L29.9143 12.106C29.9143 12.106 30.1855 11.9704 30.0499 11.9704C30.1855 11.9704 30.1856 11.8348 30.3212 11.8348C30.3212 11.8348 30.5924 11.6992 30.4568 11.8348C30.5924 11.8348 30.5924 11.8348 30.728 11.6992H30.8636C30.9992 11.6992 30.728 11.6992 30.8636 11.6992C30.9992 11.6992 30.9992 11.6992 31.1349 11.6992H31.2705C31.2705 11.6992 31.1349 11.6992 31.2705 11.6992C31.4061 11.6992 31.4061 11.6992 31.5417 11.6992C31.5417 11.6992 31.5417 11.6992 31.6773 11.6992C31.5417 11.6992 31.6773 11.6992 31.6773 11.6992C31.8129 11.6992 31.8129 11.8348 31.9485 11.8348C31.9485 11.8348 32.0842 11.8348 32.0842 11.9704C32.2198 11.9704 31.9485 11.8348 32.0842 11.9704L32.2198 12.106L32.3554 12.2417C32.3554 12.2417 32.491 12.3773 32.3554 12.2417C32.3554 12.2417 32.3554 12.3773 32.491 12.3773C32.6266 12.5129 32.6266 12.6485 32.7622 12.7841V12.9197C32.7622 12.7841 32.7622 12.9197 32.7622 12.9197C32.7622 13.0554 32.8978 13.191 32.8978 13.191C32.8978 13.3266 32.8978 13.3266 32.8978 13.4622C32.8978 13.4622 32.8978 13.7334 32.8978 13.5978C32.8978 13.7334 32.8978 14.0047 32.8978 14.1403V14.2759C32.8978 14.4115 32.8978 14.1403 32.8978 14.2759C32.8978 14.4115 32.8978 14.4115 32.8978 14.5471C32.8978 14.6827 32.8978 14.6827 32.7622 14.8183C32.7622 14.6827 32.7622 14.6827 32.7622 14.8183C32.7622 14.8183 32.7622 14.954 32.6266 14.954C32.6266 15.0896 32.491 15.0896 32.491 15.0896C32.6266 14.954 32.491 15.0896 32.3554 15.2252C32.3554 15.2252 32.0842 15.3608 32.2198 15.3608C32.0842 15.3608 32.0842 15.4964 31.9485 15.4964C31.9485 15.4964 31.6773 15.632 31.9485 15.4964H31.8129C31.6773 15.4964 31.5417 15.4964 31.5417 15.632C31.4061 15.632 31.5417 15.632 31.5417 15.632H31.4061C31.2705 15.632 31.1349 15.632 31.1349 15.632C30.8636 15.632 31.2705 15.632 31.1349 15.632H30.9992C30.8636 15.632 30.728 15.632 30.728 15.4964H30.5924C30.728 15.4964 30.5924 15.4964 30.5924 15.4964C30.4568 15.4964 30.3212 15.3608 30.3212 15.3608C30.3212 15.3608 30.1856 15.3608 30.1856 15.2252C30.1856 15.2252 30.0499 15.0896 30.1856 15.2252C30.0499 15.0896 30.0499 15.0896 29.9143 14.954L29.7787 14.8183C29.9143 14.954 29.7787 14.8183 29.7787 14.8183L29.6431 14.6827C29.6431 14.6827 29.5075 14.4115 29.5075 14.5471C29.5075 14.4115 29.5075 14.4115 29.3719 14.2759V14.1403C29.3719 14.2759 29.3719 14.1403 29.3719 14.1403V14.0047C29.3719 14.0047 29.3719 13.7334 29.3719 14.0047C29.3719 13.869 29.3719 13.869 29.3719 13.7334V13.5978C29.3719 13.7334 29.3719 13.5978 29.3719 13.5978C29.3719 13.4622 29.5075 13.4622 29.5075 13.3266C29.5075 13.3266 29.6431 13.191 29.5075 13.3266C29.5075 13.4622 29.6431 13.191 29.6431 13.191L29.7787 13.0554C29.7787 13.0554 29.9143 12.9197 29.7787 13.0554C29.7787 13.0554 29.7787 13.0554 29.9143 13.0554C30.0499 13.0554 30.0499 12.9197 30.1856 12.9197H30.3212H30.4568C30.3212 12.9197 30.3212 12.9197 30.4568 12.9197C30.5924 12.9197 30.8636 12.7841 30.9992 12.7841C31.1349 12.7841 30.8636 12.7841 30.9992 12.7841H31.1349C31.2705 12.7841 31.2705 12.7841 31.4061 12.7841H31.5417C31.5417 12.7841 31.4061 12.7841 31.5417 12.7841C31.6773 12.7841 31.6773 12.7841 31.8129 12.7841H31.9485C31.8129 12.7841 31.9485 12.7841 31.9485 12.7841C32.0842 12.7841 32.0842 12.9197 32.2198 12.9197C32.0842 12.7841 32.3554 12.9197 32.3554 13.0554C32.3554 13.0554 32.3554 13.0554 32.491 13.191C32.6266 13.3266 32.491 13.0554 32.491 13.191V13.3266C32.491 13.3266 32.6266 13.4622 32.491 13.4622C32.491 13.3266 32.491 13.5978 32.491 13.5978V13.7334C32.491 13.869 32.491 13.5978 32.491 13.7334V13.869C32.491 13.869 32.491 14.2759 32.491 14.0047C32.491 14.1403 32.491 14.1403 32.491 14.2759V14.4115C32.491 14.5471 32.491 14.2759 32.491 14.4115C32.491 14.5471 32.3554 14.5471 32.3554 14.6827C32.3554 14.6827 32.3554 14.8183 32.2198 14.8183C32.2198 14.8183 32.0842 14.954 32.2198 14.954C32.2198 14.8183 32.2198 15.0896 32.2198 15.0896C32.2198 15.0896 32.2198 15.0896 32.0842 15.2252L31.9485 15.3608C31.9485 15.3608 31.8129 15.4964 31.9485 15.3608C31.8129 15.3608 31.8129 15.4964 31.6773 15.4964C31.6773 15.4964 31.4061 15.632 31.5417 15.632C31.4061 15.632 31.4061 15.632 31.2705 15.7677H31.1349C31.2705 15.7677 30.9992 15.7677 30.9992 15.7677H30.8636C30.728 15.7677 30.9992 15.7677 30.8636 15.7677C30.728 15.7677 30.728 15.7677 30.5924 15.632C30.728 15.632 30.4568 15.632 30.4568 15.4964C30.4568 15.4964 30.4568 15.4964 30.3212 15.4964C30.4568 15.632 30.3212 15.4964 30.3212 15.4964C30.3212 15.4964 30.3212 15.4964 30.1856 15.3608C30.3212 15.4964 30.1856 15.4964 30.1856 15.3608C30.1856 15.2252 30.0499 15.2252 30.0499 15.0896C29.9143 14.954 30.0499 15.2252 30.0499 15.0896V14.954C30.0499 14.8183 30.0499 14.8183 30.0499 14.6827C30.0499 14.954 30.0499 14.6827 30.0499 14.5471C30.0499 14.4115 30.0499 14.4115 30.0499 14.2759C30.0499 14.1403 30.0499 14.2759 30.0499 14.2759V14.1403C30.0499 14.0047 30.0499 14.0047 30.0499 13.869C30.0499 13.869 30.1855 13.5978 30.0499 13.7334C30.0499 13.5978 30.1856 13.5978 30.1856 13.4622C30.1856 13.3266 30.3212 13.3266 30.3212 13.3266C30.3212 13.3266 30.4568 13.191 30.3212 13.3266C30.3212 13.3266 30.3212 13.191 30.4568 13.191L30.5924 13.0554C30.4568 13.191 30.5924 13.0554 30.728 13.0554H30.8636C30.9992 13.0554 30.8636 13.0554 30.8636 13.0554H30.9992C30.9992 13.0554 31.1349 13.0554 30.9992 13.0554C31.1349 13.0554 31.1349 13.0554 31.2705 13.0554C31.2705 13.0554 31.4061 13.0554 31.2705 13.0554H31.4061H31.5417C31.4061 13.0554 31.5417 13.0554 31.5417 13.0554C31.5417 13.0554 31.6773 13.0554 31.6773 13.191C31.6773 13.191 31.6773 13.191 31.8129 13.191C31.9485 13.191 31.9485 13.3266 31.9485 13.4622C32.0842 13.5978 31.8129 13.3266 31.9485 13.4622C31.9485 13.4622 31.9485 13.5978 32.0842 13.5978C32.0842 13.5978 32.0842 13.7334 32.2198 13.7334C32.2198 13.7334 32.2198 13.869 32.2198 13.7334C32.2198 13.869 32.3554 14.0047 32.3554 14.1403C32.3554 14.1403 32.3554 14.2759 32.3554 14.1403V14.2759C32.3554 14.2759 32.3554 14.6827 32.3554 14.4115C32.3554 14.5471 32.3554 14.5471 32.2198 14.6827C32.2198 14.5471 32.2198 14.6827 32.2198 14.6827L32.0842 14.8183C32.0842 14.6827 32.0842 14.8183 32.0842 14.8183C32.0842 14.8183 32.0842 14.8183 31.9485 14.954C32.0842 14.8183 31.8129 14.954 31.8129 15.0896C31.6773 15.0896 31.8129 15.0896 31.8129 15.0896H31.6773H31.5417C31.4061 15.0896 31.6773 15.0896 31.5417 15.0896C31.4061 15.0896 31.4061 15.0896 31.2705 15.0896C31.1349 15.0896 31.4061 15.0896 31.2705 15.0896H31.1349C31.1349 15.0896 30.8636 14.954 30.9992 15.0896C30.8636 15.0896 30.8636 14.954 30.728 14.954C30.5924 14.8183 30.728 14.954 30.728 14.954C30.728 14.954 30.5924 14.954 30.5924 14.8183C30.5924 14.8183 30.5924 14.8183 30.4568 14.6827C30.5924 14.8183 30.4568 14.6827 30.4568 14.6827V14.5471C30.5924 14.6827 30.4568 14.5471 30.4568 14.5471V14.4115C30.4568 14.5471 30.4568 14.4115 30.4568 14.2759C30.4568 14.1403 30.4568 14.4115 30.4568 14.2759V14.1403C30.4568 14.1403 30.4568 14.0047 30.4568 14.1403C30.4568 14.1403 30.4568 14.0047 30.5924 14.0047C30.5924 14.0047 30.5924 13.869 30.728 13.869C30.5924 14.0047 30.728 13.869 30.728 13.869L30.8636 13.7334C30.9992 13.5978 30.728 13.7334 30.8636 13.7334C30.9992 13.7334 30.9992 13.5978 31.1349 13.5978C30.9992 13.5978 31.2705 13.5978 31.2705 13.5978C31.4061 13.5978 31.1349 13.5978 31.2705 13.5978H31.4061C31.5417 13.5978 31.2705 13.5978 31.4061 13.5978C31.4061 13.5978 31.6773 13.7334 31.5417 13.5978H31.6773C31.8129 13.7334 31.6773 13.5978 31.6773 13.5978C31.6773 13.5978 31.8129 13.869 31.8129 13.7334C31.8129 13.7334 31.9485 14.0047 31.9485 13.869V14.0047C31.9485 14.0047 31.9485 14.2759 31.9485 14.1403C31.9485 14.0047 31.9485 14.2759 31.9485 14.2759C31.9485 14.2759 31.9485 14.5471 31.9485 14.2759V14.4115C31.9485 14.5471 31.9485 14.5471 31.8129 14.6827C31.8129 14.8183 31.8129 14.6827 31.8129 14.6827C31.8129 14.6827 31.8129 14.8183 31.6773 14.8183C31.6773 14.8183 31.5417 14.954 31.6773 14.8183C31.6773 14.8183 31.6773 14.8183 31.5417 14.954C31.5417 14.954 31.5417 14.954 31.4061 15.0896C31.2705 15.2252 31.5417 14.954 31.4061 15.0896C31.4061 15.0896 31.4061 15.0896 31.2705 15.0896C31.1349 15.2252 31.4061 15.0896 31.2705 15.0896H31.1349C30.9992 15.0896 31.2705 15.0896 31.1349 15.0896C30.728 15.0896 30.4568 15.3608 30.4568 15.7677C30.0499 15.9033 30.3212 16.3101 30.728 16.3101Z" fill="url(#paint4_linear_1_297)"/>
<path d="M35.3408 67.7091C36.5613 67.7091 37.375 66.4886 37.375 65.268C37.375 64.7256 37.1038 64.0475 36.697 63.7763C36.1545 63.3694 35.4764 63.2338 34.7983 63.3694C33.4422 63.7763 32.6285 65.268 33.171 66.6242C33.7134 67.7091 35.2052 68.1159 36.2901 67.8447C37.5106 67.4379 38.1887 66.0817 37.7819 64.7256C37.375 63.505 36.1545 62.5557 34.934 62.9626C32.8997 63.505 32.086 66.7598 33.849 67.9803C36.0189 69.6077 38.8668 66.7598 38.1887 64.4543C37.7819 63.2338 36.697 62.5557 35.4764 62.5557C34.3915 62.5557 33.171 63.0982 32.6285 64.0475C31.9504 64.9968 31.9504 66.353 32.7641 67.3023C33.4422 68.2516 34.6627 68.9296 35.8833 68.9296C37.1038 68.9296 38.1887 68.1159 38.5956 67.031C39.0024 66.0817 38.7312 64.9968 38.3243 64.0475C37.9175 63.0982 37.1038 62.2845 36.1545 62.0133C35.2052 61.742 33.9847 62.0133 33.3066 62.827C32.086 64.1831 31.9504 66.8954 33.4422 68.1159C33.849 68.5228 34.2559 68.6584 34.7983 68.794C35.2052 68.9296 35.612 68.6584 35.7476 68.2516C35.8833 67.8447 35.612 67.4379 35.2052 67.3023C35.0696 67.3023 35.0696 67.3023 34.934 67.1666C34.7983 67.1666 35.0696 67.1666 34.934 67.1666H34.7983L34.6627 67.031C34.6627 67.031 34.5271 66.8954 34.6627 67.031C34.6627 67.031 34.5271 67.031 34.5271 66.8954L34.3915 66.7598C34.2559 66.6242 34.3915 66.7598 34.3915 66.7598C34.3915 66.7598 34.3915 66.6242 34.2559 66.6242L34.1203 66.4886C34.1203 66.4886 33.9847 66.2173 34.1203 66.353C34.1203 66.2173 33.9847 66.0817 33.9847 65.9461C33.9847 65.8105 33.9847 65.8105 33.9847 65.6749C33.9847 65.5393 33.9847 65.8105 33.9847 65.6749V65.5393C33.9847 65.4036 33.9847 65.268 33.9847 64.9968V64.8612C33.9847 64.8612 33.9847 64.9968 33.9847 64.8612C33.9847 64.7256 33.9847 64.59 33.9847 64.59C33.9847 64.4543 34.1203 64.3187 34.1203 64.1831C33.9847 64.3187 34.1203 64.1831 34.1203 64.0475C34.1203 63.9119 34.2559 63.9119 34.2559 63.7763C34.2559 63.7763 34.2559 63.7763 34.3915 63.6407C34.2559 63.7763 34.3915 63.6407 34.3915 63.6407L34.5271 63.505C34.5271 63.505 34.7983 63.3694 34.6627 63.3694C34.7983 63.3694 34.7983 63.2338 34.934 63.2338C34.934 63.2338 35.2052 63.0982 35.0696 63.2338C35.2052 63.2338 35.2052 63.2338 35.3408 63.0982H35.4764C35.612 63.0982 35.3408 63.0982 35.4764 63.0982C35.612 63.0982 35.612 63.0982 35.7476 63.0982H35.8833C35.8833 63.0982 35.7476 63.0982 35.8833 63.0982C36.0189 63.0982 36.0189 63.0982 36.1545 63.0982C36.1545 63.0982 36.1545 63.0982 36.2901 63.0982C36.1545 63.0982 36.2901 63.0982 36.2901 63.0982C36.4257 63.0982 36.4257 63.2338 36.5613 63.2338C36.5613 63.2338 36.697 63.2338 36.697 63.3694C36.8326 63.3694 36.5613 63.2338 36.697 63.3694L36.8326 63.505L36.9682 63.6407C36.9682 63.6407 37.1038 63.7763 36.9682 63.6407C36.9682 63.6407 36.9682 63.7763 37.1038 63.7763C37.2394 63.9119 37.2394 64.0475 37.375 64.1831V64.3187C37.375 64.1831 37.375 64.3187 37.375 64.3187C37.375 64.4543 37.5106 64.59 37.5106 64.59C37.5106 64.7256 37.5106 64.7256 37.5106 64.8612C37.5106 64.8612 37.5106 65.1324 37.5106 64.9968C37.5106 65.1324 37.5106 65.4036 37.5106 65.5393V65.6749C37.5106 65.8105 37.5106 65.5393 37.5106 65.6749C37.5106 65.8105 37.5106 65.8105 37.5106 65.9461C37.5106 66.0817 37.5106 66.0817 37.375 66.2173C37.375 66.0817 37.375 66.0817 37.375 66.2173C37.375 66.2173 37.375 66.353 37.2394 66.353C37.2394 66.4886 37.1038 66.4886 37.1038 66.4886C37.2394 66.3529 37.1038 66.4886 36.9682 66.6242C36.9682 66.6242 36.697 66.7598 36.8326 66.7598C36.697 66.7598 36.697 66.8954 36.5613 66.8954C36.5613 66.8954 36.2901 67.031 36.5613 66.8954H36.4257C36.2901 66.8954 36.1545 66.8954 36.1545 67.031C36.0189 67.031 36.1545 67.031 36.1545 67.031H36.0189C35.8833 67.031 35.7476 67.031 35.7476 67.031C35.4764 67.031 35.8833 67.031 35.7476 67.031H35.612C35.4764 67.031 35.3408 67.031 35.3408 66.8954H35.2052C35.3408 66.8954 35.2052 66.8954 35.2052 66.8954C35.0696 66.8954 34.934 66.7598 34.934 66.7598C34.934 66.7598 34.7983 66.7598 34.7983 66.6242C34.7983 66.6242 34.6627 66.4886 34.7983 66.6242C34.6627 66.4886 34.6627 66.4886 34.5271 66.353L34.3915 66.2173C34.5271 66.353 34.3915 66.2173 34.3915 66.2173L34.2559 66.0817C34.2559 66.0817 34.1203 65.8105 34.1203 65.9461C34.1203 65.8105 34.1203 65.8105 33.9847 65.6749V65.5393C33.9847 65.6749 33.9847 65.5393 33.9847 65.5393V65.4036C33.9847 65.4036 33.9847 65.1324 33.9847 65.4036C33.9847 65.268 33.9847 65.268 33.9847 65.1324V64.9968C33.9847 65.1324 33.9847 64.9968 33.9847 64.9968C33.9847 64.8612 34.1203 64.8612 34.1203 64.7256C34.1203 64.7256 34.2559 64.59 34.1203 64.7256C34.1203 64.8612 34.2559 64.59 34.2559 64.59L34.3915 64.4543C34.3915 64.4543 34.5271 64.3187 34.3915 64.4543C34.3915 64.4543 34.3915 64.4543 34.5271 64.4543C34.6627 64.4543 34.6627 64.3187 34.7983 64.3187H34.934H35.0696C34.934 64.3187 34.934 64.3187 35.0696 64.3187C35.2052 64.3187 35.4764 64.1831 35.612 64.1831C35.7476 64.1831 35.4764 64.1831 35.612 64.1831H35.7476C35.8833 64.1831 35.8833 64.1831 36.0189 64.1831H36.1545C36.1545 64.1831 36.0189 64.1831 36.1545 64.1831C36.2901 64.1831 36.2901 64.1831 36.4257 64.1831H36.5613C36.4257 64.1831 36.5613 64.1831 36.5613 64.1831C36.697 64.1831 36.697 64.3187 36.8326 64.3187C36.697 64.1831 36.9682 64.3187 36.9682 64.4543C36.9682 64.4543 36.9682 64.4543 37.1038 64.59C37.2394 64.7256 37.1038 64.4543 37.1038 64.59V64.7256C37.1038 64.7256 37.2394 64.8612 37.1038 64.8612C37.1038 64.7256 37.1038 64.9968 37.1038 64.9968V65.1324C37.1038 65.268 37.1038 64.9968 37.1038 65.1324V65.268C37.1038 65.268 37.1038 65.6749 37.1038 65.4036C37.1038 65.5393 37.1038 65.5393 37.1038 65.6749V65.8105C37.1038 65.9461 37.1038 65.6749 37.1038 65.8105C37.1038 65.9461 36.9682 65.9461 36.9682 66.0817C36.9682 66.0817 36.9682 66.2173 36.8326 66.2173C36.8326 66.2173 36.697 66.353 36.8326 66.353C36.8326 66.2173 36.8326 66.4886 36.8326 66.4886C36.8326 66.4886 36.8326 66.4886 36.697 66.6242L36.5613 66.7598C36.5613 66.7598 36.4257 66.8954 36.5613 66.7598C36.4257 66.7598 36.4257 66.8954 36.2901 66.8954C36.2901 66.8954 36.0189 67.031 36.1545 67.031C36.0189 67.031 36.0189 67.031 35.8833 67.1666H35.7476C35.8833 67.1666 35.612 67.1666 35.612 67.1666H35.4764C35.3408 67.1666 35.612 67.1666 35.4764 67.1666C35.3408 67.1666 35.3408 67.1666 35.2052 67.031C35.3408 67.031 35.0696 67.031 35.0696 66.8954C35.0696 66.8954 35.0696 66.8954 34.934 66.8954C35.0696 67.031 34.934 66.8954 34.934 66.8954C34.934 66.8954 34.934 66.8954 34.7983 66.7598C34.934 66.8954 34.7983 66.8954 34.7983 66.7598C34.7983 66.6242 34.6627 66.6242 34.6627 66.4886C34.5271 66.3529 34.6627 66.6242 34.6627 66.4886V66.353C34.6627 66.2173 34.6627 66.2173 34.6627 66.0817C34.6627 66.3529 34.6627 66.0817 34.6627 65.9461C34.6627 65.8105 34.6627 65.8105 34.6627 65.6749C34.6627 65.5393 34.6627 65.6749 34.6627 65.6749V65.5393C34.6627 65.4036 34.6627 65.4036 34.6627 65.268C34.6627 65.268 34.7983 64.9968 34.6627 65.1324C34.6627 64.9968 34.7983 64.9968 34.7983 64.8612C34.7983 64.7256 34.934 64.7256 34.934 64.7256C34.934 64.7256 35.0696 64.59 34.934 64.7256C34.934 64.7256 34.934 64.59 35.0696 64.59L35.2052 64.4543C35.0696 64.59 35.2052 64.4543 35.3408 64.4543H35.4764C35.612 64.4543 35.4764 64.4543 35.4764 64.4543H35.612C35.612 64.4543 35.7476 64.4543 35.612 64.4543C35.7476 64.4543 35.7476 64.4543 35.8833 64.4543C35.8833 64.4543 36.0189 64.4543 35.8833 64.4543H36.0189H36.1545C36.0189 64.4543 36.1545 64.4543 36.1545 64.4543C36.1545 64.4543 36.2901 64.4543 36.2901 64.59C36.2901 64.59 36.2901 64.59 36.4257 64.59C36.5613 64.59 36.5613 64.7256 36.5613 64.8612C36.697 64.9968 36.4257 64.7256 36.5613 64.8612C36.5613 64.8612 36.5613 64.9968 36.697 64.9968C36.697 64.9968 36.697 65.1324 36.8326 65.1324C36.8326 65.1324 36.8326 65.268 36.8326 65.1324C36.8326 65.268 36.9682 65.4036 36.9682 65.5393C36.9682 65.5393 36.9682 65.6749 36.9682 65.5393V65.6749C36.9682 65.6749 36.9682 66.0817 36.9682 65.8105C36.9682 65.9461 36.9682 65.9461 36.8326 66.0817C36.8326 65.9461 36.8326 66.0817 36.8326 66.0817L36.697 66.2173C36.697 66.0817 36.697 66.2173 36.697 66.2173C36.697 66.2173 36.697 66.2173 36.5613 66.353C36.697 66.2173 36.4257 66.3529 36.4257 66.4886C36.2901 66.4886 36.4257 66.4886 36.4257 66.4886H36.2901H36.1545C36.0189 66.4886 36.2901 66.4886 36.1545 66.4886C36.0189 66.4886 36.0189 66.4886 35.8833 66.4886C35.7476 66.4886 36.0189 66.4886 35.8833 66.4886H35.7476C35.7476 66.4886 35.4764 66.3529 35.612 66.4886C35.4764 66.4886 35.4764 66.353 35.3408 66.353C35.2052 66.2173 35.3408 66.353 35.3408 66.353C35.3408 66.353 35.2052 66.353 35.2052 66.2173C35.2052 66.2173 35.2052 66.2173 35.0696 66.0817C35.2052 66.2173 35.0696 66.0817 35.0696 66.0817V65.9461C35.2052 66.0817 35.0696 65.9461 35.0696 65.9461V65.8105C35.0696 65.9461 35.0696 65.8105 35.0696 65.6749C35.0696 65.5393 35.0696 65.8105 35.0696 65.6749V65.5393C35.0696 65.5393 35.0696 65.4036 35.0696 65.5393C35.0696 65.5393 35.0696 65.4036 35.2052 65.4036C35.2052 65.4036 35.2052 65.268 35.3408 65.268C35.2052 65.4036 35.3408 65.268 35.3408 65.268L35.4764 65.1324C35.612 64.9968 35.3408 65.1324 35.4764 65.1324C35.612 65.1324 35.612 64.9968 35.7476 64.9968C35.612 64.9968 35.8833 64.9968 35.8833 64.9968C36.0189 64.9968 35.7476 64.9968 35.8833 64.9968H36.0189C36.1545 64.9968 35.8833 64.9968 36.0189 64.9968C36.0189 64.9968 36.2901 65.1324 36.1545 64.9968H36.2901C36.4257 65.1324 36.2901 64.9968 36.2901 64.9968C36.2901 64.9968 36.4257 65.268 36.4257 65.1324C36.4257 65.1324 36.5613 65.4036 36.5613 65.268V65.4036C36.5613 65.4036 36.5613 65.6749 36.5613 65.5393C36.5613 65.4036 36.5613 65.6749 36.5613 65.6749C36.5613 65.6749 36.5613 65.9461 36.5613 65.6749V65.8105C36.5613 65.9461 36.5613 65.9461 36.4257 66.0817C36.4257 66.2173 36.4257 66.0817 36.4257 66.0817C36.4257 66.0817 36.4257 66.2173 36.2901 66.2173C36.2901 66.2173 36.1545 66.353 36.2901 66.2173C36.2901 66.2173 36.2901 66.2173 36.1545 66.353C36.1545 66.353 36.1545 66.3529 36.0189 66.4886C35.8833 66.6242 36.1545 66.3529 36.0189 66.4886C36.0189 66.4886 36.0189 66.4886 35.8833 66.4886C35.7476 66.6242 36.0189 66.4886 35.8833 66.4886H35.7476C35.612 66.4886 35.8833 66.4886 35.7476 66.4886C35.3408 66.4886 35.0696 66.7598 35.0696 67.1666C34.5271 67.3023 34.934 67.7091 35.3408 67.7091Z" fill="url(#paint5_linear_1_297)"/>
<path d="M83.2081 30.9569C84.1574 33.1267 87.2765 33.2624 88.9039 31.7706C90.9381 30.0076 89.8532 26.7528 87.9546 25.5323C85.5135 24.0405 82.3944 25.5323 81.4451 28.109C80.4958 30.8213 82.8012 33.5336 85.3779 33.6692C87.9546 33.9404 89.8532 31.3638 89.582 28.9227C89.3108 26.2104 86.3272 24.7186 83.8862 25.8035C81.4451 26.8885 80.4958 30.2788 82.1232 32.4487C83.6149 34.4829 86.7341 35.0254 88.6327 33.2624C90.3957 31.635 89.9888 28.6515 88.2258 27.2953C86.056 25.6679 83.0725 27.5665 82.8013 30.0076C82.8013 30.5501 82.9369 31.2281 83.2081 31.7706C83.4793 32.3131 84.1574 32.1774 84.4286 31.7706C84.5642 31.4994 84.8355 30.9569 85.2423 30.9569C85.1067 30.9569 85.2423 30.9569 85.2423 30.9569V31.0925C85.2423 30.9569 85.2423 30.8213 85.3779 30.8213C85.6492 31.2281 85.9204 31.635 86.3272 31.9062C87.6834 30.6857 87.1409 28.109 85.5135 27.4309C84.9711 27.1597 84.293 27.0241 83.8862 27.7022C83.6149 28.109 83.6149 28.6515 83.7506 29.1939C83.8862 29.6008 84.1574 30.1432 84.6999 30.2788C85.2423 30.5501 86.056 30.6857 86.3272 30.0076C86.8697 28.9227 86.4629 27.2953 85.5135 26.6172C85.1067 26.2104 84.5642 26.346 84.293 26.8885C83.7506 28.3802 84.8355 29.872 86.1916 30.2788C87.6834 30.8213 89.1752 30.2788 89.7176 28.7871C90.1245 27.5665 89.582 25.9392 88.6327 24.9899C87.2765 23.9049 85.6492 24.1762 84.4286 25.2611C83.2081 26.4816 82.8012 28.2446 83.6149 29.872C84.4286 31.3638 86.056 32.1774 87.6834 32.1774C88.0902 32.1774 88.6327 32.1774 88.9039 31.9062C89.1752 31.635 89.3108 31.0925 89.4464 30.6857C89.582 29.872 89.4464 29.0583 89.1751 28.2446C88.4971 26.7528 87.0053 25.9392 85.3779 26.2104C83.7506 26.4816 82.2588 28.2446 82.8013 30.0076C83.3437 31.635 85.5135 32.7199 87.0053 31.7706C87.819 31.2281 87.0053 30.0076 86.3272 30.5501C85.7848 30.9569 85.1067 30.6857 84.6999 30.2788C84.1574 29.872 84.0218 29.1939 84.4286 28.6515C84.6999 28.109 85.5135 27.7022 86.056 27.7022C86.7341 27.7022 87.4122 27.9734 87.819 28.6515C88.2258 29.3295 88.3615 30.4145 88.0902 31.0925C88.2259 30.9569 88.3615 30.8213 88.4971 30.8213C87.2765 31.0925 85.7848 30.5501 85.2423 29.4651C84.5642 28.3802 84.9711 27.0241 86.056 26.346C86.5985 26.0748 87.1409 25.9392 87.6834 26.0748C88.0902 26.2104 88.4971 26.6172 88.6327 27.0241C89.0395 27.8378 88.9039 28.9227 87.9546 29.1939C87.5478 29.3295 86.8697 29.0583 86.5985 28.6515C86.1916 28.2446 86.056 27.8378 86.1916 27.2953C85.7848 27.4309 85.3779 27.5665 84.9711 27.5665C85.5135 28.109 85.7848 28.7871 85.5135 29.4651C85.6492 29.3295 85.9204 29.0583 86.056 28.9227L85.9204 28.7871V28.6515V28.5158C85.7848 28.6515 85.5135 28.6515 85.3779 28.7871C86.3272 28.9227 86.7341 30.4145 86.056 31.0925C85.5135 31.635 86.1916 32.7199 87.0053 32.1774C87.9546 31.635 87.6834 30.2788 86.7341 29.872C85.6492 29.3295 84.6999 30.4145 84.1574 31.2281C84.5642 31.2281 84.9711 31.2281 85.3779 31.2281C84.6999 30.0076 86.1916 28.109 87.6834 28.3802C89.1752 28.6515 89.582 30.5501 89.1751 31.7706C88.4971 33.2624 86.4629 33.398 85.1067 32.5843C83.6149 31.635 83.4793 29.3295 84.5642 28.109C85.6492 26.8885 88.0902 26.8885 88.9039 28.3802C89.7176 29.7364 89.0395 31.635 87.6834 32.3131C86.056 32.9911 84.0218 31.635 83.7506 30.0076C83.4793 28.2446 85.3779 26.4816 87.1409 26.6172C88.7683 26.7528 90.1245 28.6515 89.582 30.1432C89.1752 31.4994 87.2765 31.7706 86.1916 31.0925C85.9204 30.9569 85.7848 30.6857 85.6492 30.4145C85.5135 30.0076 84.9711 30.0076 84.6999 30.1432C83.0725 30.2788 83.0725 30.6857 83.2081 30.9569Z" fill="url(#paint6_linear_1_297)"/>
<path d="M30.455 15.2257C31.1331 14.2764 31.1331 12.7846 30.455 11.6997C30.3194 11.4284 29.777 11.2928 29.5057 11.4284C28.692 11.8353 28.4208 12.9202 28.692 13.7339C28.9633 14.5476 29.777 15.3613 30.5907 15.2257C30.8619 15.2257 31.1331 15.0901 31.4043 14.9544C31.8112 14.6832 31.8112 14.1407 31.8112 13.7339C31.6756 13.3271 31.2687 12.9202 30.8619 12.649C30.3194 12.3778 29.777 12.3778 29.3701 12.649C28.8277 12.9202 28.5564 13.4627 28.692 14.1407C28.8277 15.3613 30.5907 16.175 31.4043 15.2257C31.6756 14.9544 31.6756 14.412 31.4043 14.1407C31.1331 13.8695 30.5907 13.8695 30.3194 14.1407C30.3194 14.1407 30.3194 14.1407 30.455 14.1407C30.455 14.1407 30.455 14.1407 30.3194 14.1407H30.455C30.3194 14.1407 30.5907 14.1407 30.5907 14.1407C30.5907 14.1407 30.5907 14.1407 30.455 14.1407C30.7263 14.1407 30.5907 14.1407 30.5907 14.1407H30.455C30.3194 14.1407 30.5907 14.1407 30.5907 14.1407L30.455 14.0051C30.455 14.0051 30.5907 14.1407 30.455 14.0051C30.455 14.0051 30.455 14.0051 30.3194 13.8695L30.455 14.0051V13.8695C30.455 13.8695 30.455 13.7339 30.455 13.8695C30.455 14.0051 30.455 13.8695 30.455 13.8695C30.455 13.8695 30.455 13.7339 30.455 14.0051C30.455 14.0051 30.455 13.8695 30.455 14.0051C30.455 14.1407 30.455 14.0051 30.455 14.0051C30.455 13.8695 30.455 14.1407 30.455 14.1407C30.5907 14.0051 30.455 14.1407 30.455 14.1407L30.5907 14.0051L30.455 14.1407H30.3194C30.3194 14.1407 30.3194 14.1407 30.455 14.1407C30.5907 14.1407 30.3194 14.1407 30.455 14.1407C30.455 14.1407 30.455 14.1407 30.5907 14.1407C30.7263 14.1407 30.455 14.1407 30.455 14.1407H30.5907C30.7263 14.1407 30.455 14.0051 30.5907 14.1407H30.7263C30.7263 14.1407 30.7263 14.1407 30.8619 14.1407C30.7263 14.0051 30.7263 14.0051 30.8619 14.1407C30.8619 14.1407 30.9975 14.2764 30.8619 14.1407C30.8619 14.1407 30.8619 14.1407 30.8619 14.2764C30.8619 14.2764 30.7263 14.0051 30.8619 14.1407C30.8619 14.1407 30.8619 14.2764 30.8619 14.0051V14.1407C30.8619 14.2764 30.8619 14.0051 30.8619 14.0051V14.1407C30.9975 14.0051 31.1331 13.8695 31.1331 13.7339C30.9975 13.7339 31.2687 13.7339 31.2687 13.7339H31.1331C31.1331 13.7339 31.1331 13.7339 30.9975 13.7339C30.8619 13.7339 31.1331 13.7339 31.1331 13.7339C30.9975 13.7339 30.8619 13.7339 31.1331 13.7339H30.9975H31.1331C31.1331 13.7339 30.9975 13.7339 30.9975 13.5983C30.8619 13.5983 31.1331 13.7339 30.9975 13.5983C30.9975 13.5983 30.9975 13.5983 30.8619 13.5983L30.7263 13.4627C30.7263 13.4627 30.5907 13.3271 30.7263 13.4627C30.8619 13.5983 30.7263 13.4627 30.7263 13.4627C30.7263 13.4627 30.7263 13.3271 30.5907 13.3271L30.455 13.1914C30.455 13.1914 30.5907 13.3271 30.455 13.3271V13.1914V13.0558C30.455 13.0558 30.455 12.9202 30.455 13.0558C30.455 13.1914 30.455 13.0558 30.455 13.0558V12.9202V12.7846V12.9202C30.455 12.9202 30.455 12.9202 30.455 12.7846C30.455 12.649 30.455 12.9202 30.455 12.9202L30.5907 12.7846L30.455 12.9202C30.455 12.9202 30.5907 12.9202 30.455 12.9202C30.3194 13.0558 30.455 12.9202 30.455 12.9202C30.455 12.9202 30.455 12.9202 30.5907 12.9202C30.3194 12.7846 29.9126 12.7846 29.6413 12.649C29.6413 12.7846 29.777 12.7846 29.777 12.9202C29.777 13.0558 29.777 12.9202 29.777 12.9202C29.777 12.9202 29.777 12.9202 29.777 13.0558V13.1914V13.3271C29.777 13.3271 29.777 13.3271 29.777 13.4627C29.777 13.5983 29.777 13.4627 29.777 13.3271C29.777 13.4627 29.777 13.5983 29.777 13.7339V13.8695C29.777 13.8695 29.777 14.0051 29.777 13.8695C29.777 13.7339 29.777 13.8695 29.777 13.8695C29.777 14.0051 29.777 14.1407 29.6413 14.1407V14.2764C29.6413 14.412 29.6413 14.1407 29.6413 14.2764C29.6413 14.2764 29.6413 14.2764 29.6413 14.412C29.6413 14.5476 29.5057 14.6832 29.5057 14.6832C29.2345 14.9544 29.3701 15.4969 29.777 15.6325C29.777 15.6325 30.1838 15.4969 30.455 15.2257Z" fill="url(#paint7_linear_1_297)"/>
<path d="M35.0683 64.3181C34.9327 64.3181 34.9327 64.3181 35.0683 64.3181C34.9327 64.3181 35.0683 64.3181 35.0683 64.3181H35.2039C35.0683 64.3181 35.0683 64.3181 35.0683 64.3181C35.2039 64.3181 35.2039 64.4537 35.2039 64.4537C35.2039 64.3181 35.0683 64.3181 35.0683 64.3181C35.2039 64.3181 35.2039 64.4537 35.2039 64.4537C35.2039 64.3181 35.2039 64.3181 35.0683 64.3181C35.2039 64.3181 35.2039 64.4537 35.2039 64.4537C35.2039 64.3181 35.2039 64.3181 35.0683 64.3181C35.2039 64.3181 35.2039 64.4537 35.2039 64.4537C35.2039 64.3181 35.2039 64.3181 35.0683 64.3181C35.2039 64.3181 35.2039 64.4537 35.2039 64.4537V64.3181C35.2039 64.3181 35.2039 64.4537 35.0683 64.4537C35.0683 64.4537 35.2039 64.4537 35.0683 64.3181C35.2039 64.4537 35.0683 64.4537 35.0683 64.5894C35.0683 64.5894 35.0683 64.5894 35.2039 64.4537L35.0683 64.5894H35.2039C35.2039 64.5894 35.0683 64.5894 35.0683 64.725H35.2039H35.0683H35.2039H35.0683H35.2039C35.2039 64.725 35.0683 64.725 35.0683 64.5894C35.0683 64.5894 35.2039 64.5894 35.2039 64.725L35.0683 64.5894L35.2039 64.725L35.0683 64.5894C35.0683 64.5894 35.0683 64.725 35.2039 64.725C35.2039 64.725 35.2039 64.5894 35.0683 64.5894V64.725V64.5894V64.725V64.5894V64.725C34.7971 64.4537 34.9327 64.3181 35.0683 64.3181C34.9327 64.3181 34.9327 64.3181 34.9327 64.3181C34.9327 64.4537 34.7971 64.4537 34.7971 64.5894C34.7971 64.725 34.7971 64.725 34.7971 64.8606C34.7971 64.9962 34.9327 65.2674 35.0683 65.2674C35.2039 65.4031 35.4751 65.4031 35.6108 65.4031C35.7464 65.4031 36.0176 65.2674 36.0176 65.1318C36.1532 64.9962 36.1532 64.8606 36.1532 64.725C36.1532 64.5894 36.1532 64.4537 36.1532 64.3181C36.1532 64.0469 36.0176 63.9113 35.882 63.7757L35.7464 63.6401C35.6108 63.5044 35.6108 63.5044 35.4751 63.3688C35.3395 63.3688 35.2039 63.2332 35.2039 63.2332C35.0683 63.2332 35.0683 63.2332 34.9327 63.2332C34.9327 63.2332 34.9327 63.2332 34.7971 63.2332C34.6615 63.2332 34.6615 63.2332 34.5258 63.2332C34.5258 63.2332 34.5258 63.2332 34.3902 63.2332C34.2546 63.2332 34.2546 63.2332 34.119 63.3688C33.9834 63.3688 33.9834 63.5044 33.8478 63.5044C33.7121 63.5044 33.7121 63.6401 33.5765 63.7757C33.5765 63.9113 33.4409 63.9113 33.4409 64.0469C33.4409 64.1825 33.4409 64.3181 33.4409 64.3181V64.4537C33.4409 64.5894 33.4409 64.725 33.4409 64.725C33.4409 64.8606 33.5765 64.9962 33.5765 64.9962C33.7121 65.1318 33.8478 65.4031 33.9834 65.5387C33.9834 65.5387 33.9834 65.5387 34.119 65.5387C34.2546 65.5387 34.2546 65.6743 34.3902 65.6743C34.5258 65.6743 34.6615 65.6743 34.7971 65.6743C34.9327 65.6743 34.9327 65.6743 35.0683 65.6743C35.2039 65.6743 35.2039 65.5387 35.3395 65.5387C35.4751 65.4031 35.6108 65.2674 35.6108 64.9962C35.6108 64.8606 35.4751 64.5894 35.3395 64.4537C35.4751 64.3181 35.2039 64.3181 35.0683 64.3181Z" fill="url(#paint8_linear_1_297)"/>
<defs>
<linearGradient id="paint0_linear_1_297" x1="83.9236" y1="20.0799" x2="42.1398" y2="94.0391" gradientUnits="userSpaceOnUse">
<stop stop-color="#8C8EC3"/>
<stop offset="1" stop-color="#5458C5"/>
</linearGradient>
<linearGradient id="paint1_linear_1_297" x1="65.0652" y1="2.90725" x2="-4.34693" y2="41.4469" gradientUnits="userSpaceOnUse">
<stop stop-color="#8C8EC3"/>
<stop offset="1" stop-color="#5458C5"/>
</linearGradient>
<linearGradient id="paint2_linear_1_297" x1="81.6586" y1="15.7713" x2="29.7152" y2="91.6327" gradientUnits="userSpaceOnUse">
<stop stop-color="#8C8EC3"/>
<stop offset="1" stop-color="#5458C5"/>
</linearGradient>
<linearGradient id="paint3_linear_1_297" x1="50.7527" y1="38.5444" x2="39.5031" y2="49.9021" gradientUnits="userSpaceOnUse">
<stop stop-color="#8C8EC3"/>
<stop offset="1" stop-color="#5458C5"/>
</linearGradient>
<linearGradient id="paint4_linear_1_297" x1="33.8224" y1="10.7331" x2="27.624" y2="17.2084" gradientUnits="userSpaceOnUse">
<stop stop-color="#8C8EC3"/>
<stop offset="1" stop-color="#5458C5"/>
</linearGradient>
<linearGradient id="paint5_linear_1_297" x1="38.4352" y1="62.1321" x2="32.2368" y2="68.6074" gradientUnits="userSpaceOnUse">
<stop stop-color="#8C8EC3"/>
<stop offset="1" stop-color="#5458C5"/>
</linearGradient>
<linearGradient id="paint6_linear_1_297" x1="89.5221" y1="24.6143" x2="80.6657" y2="33.1428" gradientUnits="userSpaceOnUse">
<stop stop-color="#8C8EC3"/>
<stop offset="1" stop-color="#5458C5"/>
</linearGradient>
<linearGradient id="paint7_linear_1_297" x1="31.6363" y1="11.5093" x2="27.9291" y2="14.5904" gradientUnits="userSpaceOnUse">
<stop stop-color="#8C8EC3"/>
<stop offset="1" stop-color="#5458C5"/>
</linearGradient>
<linearGradient id="paint8_linear_1_297" x1="36.006" y1="63.3099" x2="33.8909" y2="65.8965" gradientUnits="userSpaceOnUse">
<stop stop-color="#8C8EC3"/>
<stop offset="1" stop-color="#5458C5"/>
</linearGradient>
</defs>
</svg>
