<svg width="23" height="25" viewBox="0 0 23 25" fill="none" xmlns="http://www.w3.org/2000/svg">
<path d="M3.61057 2.98053C3.13629 2.98005 2.66657 3.07312 2.2283 3.2544C1.79003 3.43568 1.39181 3.70161 1.05645 4.03698C0.721078 4.37234 0.455144 4.77056 0.273865 5.20883C0.0925867 5.6471 -0.000476672 6.11682 1.83593e-06 6.5911C1.83593e-06 9.29842 3.61057 13.2957 3.61057 13.2957C3.61057 13.2957 7.22114 9.29842 7.22114 6.5911C7.22162 6.11682 7.12855 5.6471 6.94727 5.20883C6.76599 4.77056 6.50006 4.37234 6.16469 4.03698C5.82933 3.70161 5.43111 3.43568 4.99284 3.2544C4.55457 3.07312 4.08485 2.98005 3.61057 2.98053ZM3.61057 7.8799C3.35567 7.8799 3.10649 7.80431 2.89455 7.66269C2.68261 7.52108 2.51742 7.3198 2.41988 7.0843C2.32233 6.8488 2.29681 6.58967 2.34654 6.33967C2.39627 6.08967 2.51901 5.86003 2.69925 5.67978C2.87949 5.49954 3.10914 5.3768 3.35914 5.32707C3.60914 5.27734 3.86827 5.30286 4.10377 5.40041C4.33927 5.49795 4.54055 5.66314 4.68216 5.87508C4.82378 6.08702 4.89936 6.3362 4.89936 6.5911C4.89904 6.93281 4.76316 7.26044 4.52153 7.50206C4.2799 7.74369 3.95228 7.87957 3.61057 7.8799ZM21.8065 11.2177V6.00429C21.798 5.45683 21.7147 4.9131 21.5591 4.38815C21.1613 3.00032 20.2809 1.80023 19.0765 1.00413C17.8721 0.208037 16.423 -0.131699 14.9903 0.0461479C13.5575 0.223995 12.2354 0.907728 11.2623 1.97413C10.2891 3.04053 9.72876 4.41947 9.68234 5.86244V6.16312L9.67021 7.21792V19.2839H9.66536V19.3336C9.66536 19.9767 9.40989 20.5934 8.95515 21.0482C8.5004 21.5029 7.88364 21.7584 7.24054 21.7584C6.59743 21.7584 5.98067 21.5029 5.52592 21.0482C5.07118 20.5934 4.81571 19.9767 4.81571 19.3336C4.81571 19.319 4.81935 19.3045 4.82056 19.2887H4.81571V16.933H2.39088V19.3578H2.39331C2.39411 20.6434 2.90557 21.876 3.81517 22.7844C4.72477 23.6929 5.958 24.2028 7.24357 24.202C8.52913 24.2012 9.76172 23.6897 10.6702 22.7801C11.5787 21.8705 12.0886 20.6373 12.0878 19.3518H12.0902V18.1612H12.0963V8.43033L12.1084 6.16312V5.86365C12.1429 4.90919 12.5514 4.00659 13.2456 3.35065C13.9398 2.69472 14.8641 2.33805 15.819 2.35762C16.7739 2.3772 17.6828 2.77145 18.3496 3.45529C19.0163 4.13912 19.3874 5.0577 19.3829 6.01278V11.1958C18.9186 11.4586 18.5539 11.8671 18.3455 12.3581C18.137 12.8492 18.0964 13.3953 18.2299 13.9118C18.3634 14.4282 18.6636 14.8862 19.0839 15.2148C19.5042 15.5433 20.0211 15.7239 20.5546 15.7287C21.088 15.7335 21.6081 15.5622 22.0343 15.2413C22.4604 14.9204 22.7688 14.4679 22.9116 13.9539C23.0544 13.4399 23.0236 12.8932 22.824 12.3984C22.6244 11.9037 22.2672 11.4887 21.8077 11.2177H21.8065Z" fill="#233066"/>
</svg>
