<svg width="98" height="47" viewBox="0 0 98 47" fill="none" xmlns="http://www.w3.org/2000/svg">
<path fill-rule="evenodd" clip-rule="evenodd" d="M46.165 50.9223C40.762 50.9223 36.4612 49.1299 33.2626 45.545C31.7498 43.8174 30.6476 41.7874 29.956 39.4551C29.3076 37.1228 28.9834 34.013 28.9834 30.1258C28.9834 26.8865 29.0699 24.1438 29.2428 21.8979C29.4589 19.652 29.8479 17.406 30.4098 15.1601C31.015 12.9141 31.8362 11.1001 32.8736 9.718C33.9542 8.29269 35.3806 7.08334 37.1528 6.08995C38.9682 5.09655 41.1294 4.42709 43.6364 4.08156L51.6113 3.04497C53.4699 2.78583 54.8099 2.46189 55.6311 2.07317C56.4524 1.68445 56.9927 0.993396 57.252 0L62.8279 1.61967C62.266 4.12475 61.3151 5.96037 59.9752 7.12653C58.6784 8.2495 56.755 8.98375 54.2047 9.32928L45.776 10.4307C43.8742 10.6898 42.2965 11.0569 41.043 11.532C39.8327 12.0071 38.7089 12.7846 37.6715 13.8643C36.6773 14.9009 35.9209 16.3478 35.4022 18.2051C34.9268 20.0623 34.6458 22.4162 34.5594 25.2668H34.7539C37.3041 20.559 41.6265 18.2051 47.7211 18.2051C51.9571 18.2051 55.5663 19.7167 58.5488 22.7401C61.5312 25.7635 63.0225 29.6723 63.0225 34.4665C63.0225 39.3471 61.4016 43.3207 58.1597 46.3873C54.9179 49.4106 50.9197 50.9223 46.165 50.9223ZM39.4869 41.4635C41.0862 43.4071 43.269 44.3789 46.0354 44.3789C48.8017 44.3789 51.0061 43.4071 52.6487 41.4635C54.3344 39.4767 55.1773 37.0796 55.1773 34.2721C55.1773 31.5079 54.3344 29.154 52.6487 27.2104C51.0061 25.2236 48.7801 24.2302 45.9705 24.2302C43.2042 24.2302 41.0214 25.202 39.4221 27.1456C37.866 29.0892 37.088 31.4647 37.088 34.2721C37.088 37.0796 37.8876 39.4767 39.4869 41.4635ZM-18.7371 48.5892L1.23243 2.72021H8.29958L28.0746 48.5892H18.7382L14.459 38.0937H-5.4457L-9.59521 48.5892H-18.7371ZM-2.65774 31.0968H11.6062L4.53908 12.4382L-2.65774 31.0968ZM69.5066 17.4912V48.5888H86.0398C89.5842 48.5888 92.437 47.8114 94.5982 46.2565C96.7594 44.7016 97.84 42.5421 97.84 39.7778C97.84 37.7047 97.2132 36.0202 95.9597 34.7245C94.7495 33.3855 93.1718 32.5649 91.2267 32.2626V32.133C92.7828 31.7443 94.0363 30.9668 94.9872 29.8007C95.9814 28.5913 96.4784 27.1876 96.4784 25.5895C96.4784 23.5164 95.8733 21.8535 94.663 20.601C93.4527 19.3052 92.0912 18.463 90.5783 18.0743C89.1087 17.6856 87.4446 17.4912 85.586 17.4912H69.5066ZM84.6134 43.0172H77.2869V35.5019H84.8079C88.2658 35.5019 89.9948 36.7544 89.9948 39.2595C89.9948 41.7646 88.201 43.0172 84.6134 43.0172ZM84.6782 29.9303H77.2869V22.9981H84.0947C87.3365 22.9981 88.9574 24.1642 88.9574 26.4966C88.9574 28.7857 87.531 29.9303 84.6782 29.9303Z" fill="url(#paint0_linear_1_85)"/>
<defs>
<linearGradient id="paint0_linear_1_85" x1="-18.7371" y1="21.4612" x2="97.84" y2="21.4612" gradientUnits="userSpaceOnUse">
<stop stop-color="#58A4EA"/>
<stop offset="1" stop-color="#0C65C9"/>
</linearGradient>
</defs>
</svg>
