<svg width="28" height="26" viewBox="0 0 28 26" fill="none" xmlns="http://www.w3.org/2000/svg">
<path fill-rule="evenodd" clip-rule="evenodd" d="M15.7109 13.0905C17.8865 9.65851 17.3485 5.10991 14.262 2.41132C10.8437 -0.57737 5.59395 -0.165193 2.53632 3.33194C-0.521304 6.82907 -0.228931 12.0869 3.18936 15.0756C6.2759 17.7742 10.8557 17.7 13.9665 15.0857L16.7395 18.7294L24.5793 25.5839L27.532 22.2068L19.6922 15.3522L15.7109 13.0905ZM12.5585 4.35966C14.925 6.42875 15.1274 10.0688 13.0106 12.4899C10.8938 14.911 7.25935 15.1963 4.89284 13.1272C2.52633 11.0581 2.32392 7.41811 4.44074 4.99702C6.55756 2.57592 10.192 2.29057 12.5585 4.35966Z" fill="#474A66"/>
</svg>
