 <svg width="197" height="222" viewBox="0 0 222 254" fill="none"
                            xmlns="http://www.w3.org/2000/svg">
                            <path fill-rule="evenodd" clip-rule="evenodd"
                                d="M55.6197 1.43282C44.1284 -1.81022 32.3739 5.67284 30.4491 17.4569L0.877909 198.496C-0.76186 208.535 5.39463 218.205 15.1842 220.968L126.662 252.429C136.452 255.192 146.756 250.167 150.606 240.752L220.044 70.9637C224.564 59.912 218.456 47.3878 206.964 44.1448L55.6197 1.43282ZM98.2565 73.2214C99.3959 67.5022 105.167 63.9674 110.78 65.5512L126.422 69.9657C132.034 71.5496 135.106 77.5803 133.088 83.0513L111.732 140.931C109.926 145.828 104.657 148.512 99.6344 147.094L93.2929 145.304C88.27 143.887 85.182 138.845 86.2017 133.726L98.2565 73.2214ZM71.8183 183.429C69.2288 179.507 68.6078 175.159 69.9553 170.384C71.3349 165.496 74.1536 162.057 78.4114 160.067C82.7013 157.964 87.471 157.653 92.7206 159.135C98.0843 160.649 101.988 163.407 104.431 167.411C107.021 171.333 107.626 175.738 106.246 180.626C104.899 185.401 102.096 188.783 97.8381 190.772C93.6623 192.908 88.8926 193.219 83.5288 191.705C78.2792 190.223 74.3757 187.465 71.8183 183.429Z"
                                fill="white" />
                        </svg>
