<svg width="102" height="77" viewBox="0 0 102 77" fill="none" xmlns="http://www.w3.org/2000/svg">
<path d="M51.075 46.7382C39.7591 46.7382 30.145 52.2082 23.8654 60.782V76.7291H78.2888V60.782C72.0091 52.2082 62.393 46.7382 51.075 46.7382ZM101.042 38.5541L50.9431 0.177368L0.865234 38.5541L9.21294 44.9045V54.6718C7.11974 55.392 7.11346 57.2154 7.11346 59.3832C7.11346 60.6637 7.36883 62.1634 7.85445 63.0611L4.99094 73.2495H15.2058L12.3674 63.0542C12.8447 62.1564 13.2361 60.8342 13.2361 59.5537C13.2361 57.3893 11.3061 55.3886 11.3061 54.6683V46.5364L21.7722 54.3516V53.6592C28.0518 44.5809 39.0851 38.8186 51.0729 38.8186C63.0649 38.8186 74.1023 44.5809 80.382 53.6592V54.3516L101.042 38.5541Z" fill="white"/>
</svg>
