<svg width="176" height="152" viewBox="0 0 176 152" fill="none" xmlns="http://www.w3.org/2000/svg">
<path d="M175.678 80.6894L150.084 16.0085H150.005L149.765 15.4426C149.765 15.4211 149.756 15.4005 149.741 15.3854C149.726 15.3702 149.706 15.3617 149.685 15.3617C149.606 15.1826 149.498 15.0184 149.365 14.8766H149.285L148.885 14.3915C148.864 14.3915 148.843 14.383 148.828 14.3678C148.813 14.3526 148.805 14.3321 148.805 14.3106L148.405 13.9872H148.245L147.765 13.6638C147.685 13.6638 147.605 13.6638 147.605 13.583L147.125 13.4213H146.965L146.405 13.2596H144.566L92.8183 24.6596V4.85106C92.8183 3.56448 92.3127 2.33059 91.4128 1.42084C90.5128 0.511092 89.2922 0 88.0195 0C86.7467 0 85.5261 0.511092 84.6262 1.42084C83.7262 2.33059 83.2206 3.56448 83.2206 4.85106V26.8426L29.3936 38.8894H28.9937L28.3539 39.1319H28.2739L27.794 39.4553H27.714L27.2342 39.7787H27.1542L26.7543 40.2638H26.6743L26.3544 40.7489H26.2744C26.1855 40.9473 26.0784 41.1368 25.9545 41.3149L0.360646 105.996C0.0424716 106.733 -0.0682376 107.544 0.0407232 108.34C0.0407232 126.047 18.6762 132.596 30.4334 132.596C42.1905 132.596 60.826 126.047 60.826 108.34C60.8433 107.731 60.7344 107.126 60.5061 106.562L36.9918 47.1362L83.2206 36.7872V142.298H68.8241C67.5514 142.298 66.3308 142.809 65.4308 143.719C64.5309 144.628 64.0253 145.862 64.0253 147.149C64.0253 148.436 64.5309 149.669 65.4308 150.579C66.3308 151.489 67.5514 152 68.8241 152H107.215C108.488 152 109.708 151.489 110.608 150.579C111.508 149.669 112.014 148.436 112.014 147.149C112.014 145.862 111.508 144.628 110.608 143.719C109.708 142.809 108.488 142.298 107.215 142.298H92.8183V34.6043L137.767 24.4979L115.533 80.6894C115.305 81.2532 115.196 81.8591 115.213 82.4681C115.213 100.174 133.848 106.723 145.606 106.723C157.363 106.723 175.998 100.174 175.998 82.4681C176.016 81.8591 175.907 81.2532 175.678 80.6894ZM30.4334 122.894C25.5334 122.858 20.7208 121.579 16.4368 119.174C12.1978 116.668 9.95833 113.434 9.63841 109.23L30.4334 56.7574L51.2284 109.23C50.5085 120.387 35.7121 122.894 30.4334 122.894ZM145.606 97.0213C140.706 96.9853 135.893 95.7065 131.609 93.3021C127.37 90.7957 125.131 87.5617 124.811 83.3575L145.606 30.8851L166.401 83.3575C165.681 94.5149 150.884 97.0213 145.606 97.0213Z" fill="url(#paint0_linear_1_1239)"/>
<defs>
<linearGradient id="paint0_linear_1_1239" x1="8.19564e-07" y1="76" x2="176" y2="76" gradientUnits="userSpaceOnUse">
<stop stop-color="#0C65C9"/>
<stop offset="1" stop-color="#58A4EA"/>
</linearGradient>
</defs>
</svg>
