<svg width="76" height="60" viewBox="0 0 76 60" fill="none" xmlns="http://www.w3.org/2000/svg">
<path fill-rule="evenodd" clip-rule="evenodd" d="M42.2121 13.0681C40.8964 17.2269 41.4452 21.4987 43.8586 25.8835C46.2288 30.19 49.5645 32.945 53.8655 34.1484C58.1522 35.3257 62.4488 34.7292 66.7553 32.359C71.114 29.96 73.9427 26.6347 75.2414 22.3832C76.5519 18.0913 76.0219 13.7921 73.6517 9.48559C71.2383 5.1008 67.9098 2.35889 63.6663 1.25988C59.4227 0.160868 55.1085 0.818043 50.7237 3.23141C46.3911 5.61604 43.5539 8.89495 42.2121 13.0681ZM55.9353 28.8264C53.0975 27.8718 50.8598 25.9069 49.2221 22.9315C47.6276 20.0344 47.1731 17.1389 47.8588 14.245C48.5706 11.3368 50.3359 9.10695 53.1547 7.5555C55.9995 5.98969 58.8279 5.69124 61.6396 6.66017C64.4774 7.61473 66.6936 9.54056 68.2881 12.4377C69.9258 15.413 70.3887 18.3549 69.6769 21.2631C68.9508 24.1452 67.1783 26.362 64.3596 27.9135C61.5669 29.4506 58.7588 29.7549 55.9353 28.8264ZM15.6439 59.5725L0.387978 31.8543L5.32087 29.1393L11.4836 40.3362L24.4422 33.2038L18.2795 22.0069L23.2124 19.2919L38.4683 47.0101L33.5354 49.7251L26.7694 37.432L13.8107 44.5644L20.5768 56.8574L15.6439 59.5725ZM47.2322 54.9393L46.0079 52.7149L48.6384 44.2058C49.106 42.7189 49.0838 41.5103 48.5718 40.5801C48.2082 39.9195 47.6958 39.5077 47.0345 39.3447C46.3733 39.1817 45.7068 39.285 45.0351 39.6547C44.3497 40.0319 43.9138 40.5705 43.7275 41.2703C43.5474 41.949 43.6097 42.6788 43.9144 43.4596L41.3083 44.4197C40.7987 43.1369 40.7848 41.8623 41.2666 40.5959C41.7484 39.3295 42.6473 38.3342 43.9632 37.6099C45.3066 36.8705 46.6553 36.6112 48.0092 36.8321C49.3632 37.053 50.4 37.8173 51.1198 39.125C51.5873 39.9743 51.8009 40.8492 51.7606 41.7496C51.7267 42.629 51.5257 43.6267 51.1576 44.7427L49.1333 50.9947L55.6926 47.3845L56.9169 49.6089L47.2322 54.9393Z" fill="url(#paint0_linear_1_455)"/>
<defs>
<linearGradient id="paint0_linear_1_455" x1="10.5155" y1="50.2548" x2="76.1945" y2="14.1055" gradientUnits="userSpaceOnUse">
<stop stop-color="#F8963D"/>
<stop offset="1" stop-color="#FF5689"/>
</linearGradient>
</defs>
</svg>
